<svg xmlns="http://www.w3.org/2000/svg" viewBox="0 0 300.39 300.39"><defs><style>.cls-1{fill:#6f3;stroke-width:0.31px;}.cls-1,.cls-2{stroke:#6f3;stroke-miterlimit:10;}.cls-2{fill:#1b99c8;stroke-width:1.25px;}</style></defs><title>Blue MitoEC Emblem</title><g id="Layer_2" data-name="Layer 2"><g id="mito_emblem" data-name="mito emblem"><circle class="cls-1" cx="150.19" cy="150.19" r="150.04"/><path class="cls-2" d="M286.51,153.44A112.88,112.88,0,0,1,285.08,171c-.92,5.42-1.91,10.83-2.91,16.24s-3.1,10.74-4.83,16.07a87.46,87.46,0,0,1-4.45,11c-1.83,3.77-3.41,7.68-5.31,11.42-1.74,3.43-3.62,6.81-5.69,10a102.82,102.82,0,0,1-11.69,15c-2.4,2.55-4.78,5.12-7.25,7.61a59.46,59.46,0,0,1-4.79,4.32c-3.64,3-7.34,5.87-11,8.76a32.1,32.1,0,0,1-3.26,2.14A120.12,120.12,0,0,1,208,282a126.84,126.84,0,0,1-20.37,6.62c-4.54,1-9.07,2.08-13.68,2.67s-9.06.82-13.6,1.18c-2.19.18-4.39.34-6.58.43a85.92,85.92,0,0,1-12.73-.66c-1.94-.2-3.89-.24-5.83-.42-1.29-.13-2.57-.37-3.86-.56-2.27-.33-4.55-.63-6.82-1a78.52,78.52,0,0,1-12.13-2.73q-8.58-2.94-17.13-5.95a85,85,0,0,1-15-6.78c-4.44-2.62-8.9-5.2-13.25-8-2.86-1.82-5.53-3.95-8.29-5.93a35.14,35.14,0,0,1-6.54-6.12,38.29,38.29,0,0,1-2.67-3.42,8.08,8.08,0,0,1-.95-2.48,1.56,1.56,0,0,1,1.33-1.73,7.79,7.79,0,0,1,4.12,0c2.36.72,4,2.42,5.86,3.79,1.45,1.07,2.84,2.2,4.32,3.23a147.32,147.32,0,0,0,16.91,9.7,84.09,84.09,0,0,0,8,3.36,115.68,115.68,0,0,0,17,5.49c5,1.08,10.06,2.15,15.17,2.88a197.64,197.64,0,0,0,21.85,1.58,68.48,68.48,0,0,0,15.23-1.15c4.12-.79,8.3-1.28,12.44-2a80.61,80.61,0,0,0,13.47-3.51,113.34,113.34,0,0,0,19.91-9,130.9,130.9,0,0,0,11.55-7.25c5.34-4,10.91-7.67,15.59-12.46.84-.86,1.82-1.56,2.73-2.36s1.58-1.38,2.31-2.13c3.55-3.6,6.78-7.49,10-11.37a76.83,76.83,0,0,0,8.33-12.09,130,130,0,0,0,7.51-14.68c1.68-4.23,3.64-8.34,5.3-12.58a84.44,84.44,0,0,0,4.2-13.11c.85-4,1.86-7.89,2.54-11.87.73-4.29,1.26-8.61,1.69-12.94a82,82,0,0,0,.4-9.14c-.05-3.24-.4-6.47-.6-9.71-.14-2.24-.18-4.5-.41-6.73a63.83,63.83,0,0,0-2.08-12.1c-.82-2.72-1.55-5.48-2.4-8.19-.51-1.62-1.17-3.19-1.79-4.77a12.62,12.62,0,0,1-.68-4.87,1.82,1.82,0,0,1,1.42-1.74,2.42,2.42,0,0,1,2.64.55c1.79,1.89,3.59,3.78,4.5,6.3,1.7,4.75,3.63,9.43,5,14.27,1.21,4.21,1.87,8.59,2.67,12.92C286.13,133.69,286.46,142,286.51,153.44Z"/><path class="cls-2" d="M145.51,272.75c-3.74-.18-7.5-.22-11.23-.56-6-.54-11.93-1.28-17.89-2-1.14-.14-2.28-.37-3.4-.62-3.95-.89-7.93-1.64-11.82-2.75a90.77,90.77,0,0,1-10.75-3.79,64.52,64.52,0,0,1-13.2-7.37c-1.52-1.14-3.09-2.22-4.6-3.37a10.73,10.73,0,0,1-3.18-3.55,1.93,1.93,0,0,1,.94-2.93,4.56,4.56,0,0,1,5,.34A88.6,88.6,0,0,0,84,251a64.75,64.75,0,0,0,16.81,5.35c3.49.66,7,1.48,10.47,1.92,7.35.93,14.72,1.81,22.15,1.33,3.75-.23,7.48-.73,11.23-.87,4.16-.16,8.24-.93,12.35-1.47a21.75,21.75,0,0,0,2.16-.6c2.76-.7,5.53-1.36,8.28-2.09a23.82,23.82,0,0,0,2.36-1c2.7-1.06,5.37-2.2,8.11-3.12a94,94,0,0,0,14.94-6.6,137.54,137.54,0,0,0,12.28-7.51,100.21,100.21,0,0,0,14.9-12.3c1.05-1.07,2.21-2,3.24-3.12a129.46,129.46,0,0,0,11.35-13.18c1.26-1.74,2.68-3.36,3.79-5.19,3.19-5.25,6.74-10.29,9.14-16,1.15-2.75,2.74-5.32,3.63-8.2,1.47-4.79,2.69-9.63,3.72-14.53A178.53,178.53,0,0,0,258,143.52a84.6,84.6,0,0,0-.34-20.36c-.4-2.72-.51-5.49-.95-8.2-.61-3.74-1.35-7.47-2.14-11.19-.7-3.27-1.53-6.51-2.32-9.77-1-4.2-2.95-8.07-4.41-12.11-.7-1.93-1.35-3.88-2.18-5.75-1.28-2.93-2.54-5.88-4.08-8.68a165.59,165.59,0,0,0-9.94-16.06c-.46-.65-.91-1.3-1.35-2a1.85,1.85,0,0,1,0-2.24,2.77,2.77,0,0,1,2.61-.62,8.74,8.74,0,0,1,4.6,3.39A158.17,158.17,0,0,1,248.73,66.1c2.39,3.75,4.58,7.63,6.83,11.47A23.65,23.65,0,0,1,256.69,80c1.11,2.46,2.3,4.88,3.3,7.39.82,2,1.4,4.16,2.09,6.25s1.32,4.09,2,6.12a47.86,47.86,0,0,1,1.93,7.85c.44,2.51,1.09,5,1.56,7.48.77,4.08,1.47,8.17,2.2,12.25a6.39,6.39,0,0,1,.09.75c.19,3.34.42,6.68.55,10a72.78,72.78,0,0,1-.46,10.94c-.31,2.83-.36,5.69-.68,8.52-.42,3.77-.95,7.53-1.52,11.29a33.57,33.57,0,0,1-1,3.92c-1.05,3.81-2.08,7.62-3.18,11.42-.38,1.34-.9,2.65-1.39,4a126,126,0,0,1-10.76,21.59c-3.38,5.5-7.08,10.8-11,16-1.25,1.68-2.5,3.37-3.85,5-1,1.14-2.1,2.13-3.15,3.2-5.14,5.2-10.23,10.44-16.54,14.3-2.6,1.59-5,3.46-7.62,5.07-2.89,1.79-5.85,3.46-8.84,5.1-1.44.79-3,1.35-4.5,2a135.68,135.68,0,0,1-14,5.74,104.06,104.06,0,0,1-19,4.77c-5.79.78-10.42,1.88-16.42,1.81C146.57,272.86,145.51,272.64,145.51,272.75Z"/><path class="cls-2" d="M254,135.34c0,2.56.13,5.12,0,7.66a102.21,102.21,0,0,1-1.9,16.53,118.7,118.7,0,0,1-4.26,14.81c-1.19,3.24-2.31,6.5-3.62,9.69a60.19,60.19,0,0,1-3,5.9c-1.47,2.67-3,5.34-4.56,7.94-1.93,3.15-3.95,6.25-6,9.33a29.56,29.56,0,0,1-2.49,3c-2.47,2.83-4.87,5.71-7.45,8.44-1.58,1.66-3.47,3-5.14,4.6a94.5,94.5,0,0,1-14.73,11.34,81.49,81.49,0,0,1-13.37,7.11c-1.15.45-2.19,1.21-3.34,1.68-4.63,1.9-9.21,3.91-13.93,5.56a73.8,73.8,0,0,1-13.75,3.6c-2,.29-4,1-6,1.26-4.81.55-9.64,1.1-14.48,1.32a95.18,95.18,0,0,1-19-1.45,71.49,71.49,0,0,1-9.39-1.85c-2.68-.8-5.43-1.33-8.09-2.16a22.72,22.72,0,0,1-4.31-2.06,3.24,3.24,0,0,1-1.2-1.47c-.53-1.14,0-2,1.15-2.42a8,8,0,0,1,4-.08c4,.54,8,1.17,12,1.67,3.46.43,6.94.8,10.43,1.06a57.2,57.2,0,0,0,7,.1c4.55-.23,9.12-.4,13.62-1a64.73,64.73,0,0,0,13.06-3.34c5.92-2.14,11.81-4.36,17.58-6.9a117.36,117.36,0,0,0,11.77-6.28,129,129,0,0,0,14-10,87,87,0,0,0,14.42-14c1-1.21,2-2.4,3-3.55a64.12,64.12,0,0,0,6.78-9.53c2.49-4,5-8.09,7.27-12.25,1.41-2.57,2.42-5.37,3.68-8a60,60,0,0,0,3.21-10c1.32-4.84,2-9.79,2.95-14.7a50.4,50.4,0,0,0,.6-6.27,139.56,139.56,0,0,0-.11-16.49c-.46-8.27-2.2-16.31-4.05-24.37-1.71-7.47-4.9-14.28-8.42-20.94-2.92-5.52-6.29-10.81-9.51-16.17-1.13-1.88-2.39-3.7-3.66-5.49a59.27,59.27,0,0,0-6.95-8.22c-4-3.9-7.85-8-12-11.73-3.32-2.94-7.06-5.4-10.64-8.05-.64-.48-1.38-.8-2.06-1.23a3.54,3.54,0,0,1-.9-.78,2.16,2.16,0,0,1-.58-2.21c.34-.79,1.14-.85,1.9-.94a5.55,5.55,0,0,1,3.21.52,69.59,69.59,0,0,1,10.39,6c2.32,1.66,4.71,3.22,7,4.85a78.53,78.53,0,0,1,10.41,8.59c.54.52,1.05,1.08,1.62,1.57,4,3.46,7.14,7.69,10.36,11.84a2.15,2.15,0,0,0,.18.24c3.54,3.64,5.8,8.13,8.25,12.49,1.72,3.05,3.56,6,5.18,9.13a101.9,101.9,0,0,1,4.8,10,106.47,106.47,0,0,1,4.78,15.47c.65,2.87,1.35,5.74,2.1,8.59a50.7,50.7,0,0,1,1.39,9.64c.28,4.14.5,8.29.74,12.44Z"/><path class="cls-2" d="M238.11,128.4a107,107,0,0,1-1.3,19.84,121.17,121.17,0,0,1-3.94,16.32,90,90,0,0,1-4.45,11.13c-1.33,2.8-2.91,5.47-4.33,8.23a101.49,101.49,0,0,1-10.16,15.21,110.42,110.42,0,0,1-8.3,9.28,61.1,61.1,0,0,1-9.75,8.18c-2.45,1.64-4.69,3.61-7.16,5.2-4.58,3-9,6.1-13.94,8.54-1.74.87-3.4,1.91-5.17,2.72-2.68,1.22-5.38,2.42-8.15,3.44A72.7,72.7,0,0,1,149.7,240c-3.09.57-6.2,1.06-9.3,1.6-5.31.92-10.67.76-16,.62A37.47,37.47,0,0,1,114.9,241c-1-.29-2-.71-3-1.07a1.35,1.35,0,0,1-1-1.35,1.46,1.46,0,0,1,1-1.51,9,9,0,0,1,2.16-.49c2.84-.13,5.69-.12,8.54-.26a90,90,0,0,0,22.73-3.74,84.69,84.69,0,0,0,15.71-6.27c6.3-3.47,12.57-7,18.57-11A93.52,93.52,0,0,0,196.63,201a123.13,123.13,0,0,0,11.61-14A73.74,73.74,0,0,0,215,175.16c.9-2.07,1.88-4.1,2.76-6.17a78.77,78.77,0,0,0,3.56-11.75c.88-3.4,1.59-6.81,2.13-10.26.31-1.92.54-3.87.66-5.81a128.33,128.33,0,0,0,.13-19.8c-.37-4.07-1.06-8.13-1.71-12.17-.43-2.71-.93-5.43-1.61-8.08-.55-2.12-1.47-4.15-2.15-6.24a64.32,64.32,0,0,0-4.53-9.79,109.16,109.16,0,0,0-6.91-11.77c-1.51-2.17-3.12-4.28-4.79-6.34-2.21-2.71-4.49-5.37-6.81-8a95.06,95.06,0,0,0-14.82-14,75.2,75.2,0,0,0-7-4.42c-2.63-1.53-5.32-3-8-4.36A63.18,63.18,0,0,0,160,33.6c-4.92-2-9.74-4.18-14.91-5.47q-4.87-1.21-9.73-2.48a15.46,15.46,0,0,1-2-.66c-.84-.32-1.53-1.16-1.39-1.76a2.06,2.06,0,0,1,1.53-1.51,9,9,0,0,1,2.06-.33,28.53,28.53,0,0,1,3.46,0c1.74.14,3.47.39,5.2.62a104.73,104.73,0,0,1,16,3.91,67.3,67.3,0,0,1,7.38,2.48c3.81,1.61,7.53,3.46,11.28,5.2,4.7,2.18,8.93,5.13,13.25,7.92a76.24,76.24,0,0,1,10.92,9.14c3.64,3.45,6.88,7.27,10.19,11a18,18,0,0,1,1.48,2.07c1.74,2.57,3.53,5.11,5.17,7.73,1.3,2.08,2.42,4.26,3.62,6.4.86,1.53,1.67,3.08,2.56,4.58a57.84,57.84,0,0,1,4.71,11c1.59,4.64,3,9.34,4.54,14,1.2,3.59,1.48,7.32,2.1,11A85.76,85.76,0,0,1,238.11,128.4Z"/><path class="cls-2" d="M114.2,31c4.85.17,9.71.17,14.54.53A95.77,95.77,0,0,1,149.67,36c5,1.54,9.71,3.67,14.5,5.68A25.6,25.6,0,0,1,168,43.73c3.64,2.28,7.43,4.34,10.84,7,1,.77,1.88,1.64,2.81,2.49,4.39,4,8.81,8,13.14,12.09,1.63,1.54,3,3.33,4.58,5,5,5.24,8.54,11.42,12,17.72a68.82,68.82,0,0,1,7.25,22.91c.75,5,1.4,10.11,1.92,15.18a53.26,53.26,0,0,1,.2,11.84c-.17,1.44-.11,2.9-.17,4.35a59.45,59.45,0,0,1-2.73,15c-1.12,3.63-2.29,7.25-3.6,10.81-.85,2.3-2,4.48-3,6.72-2,4.65-5,8.8-7.48,13.17a15,15,0,0,1-1.68,2.3c-3.64,4.26-7.14,8.64-11.43,12.31-2.36,2-4.47,4.31-6.85,6.3a74.6,74.6,0,0,1-19.07,11.81c-2.3,1-4.57,2-6.87,3-.54.24-1.09.48-1.66.67a135,135,0,0,1-14.88,4.13,25,25,0,0,1-3.12.29,1.92,1.92,0,0,1-2-1c-.54-.94-.59-1.44.15-2.21,1-1,2.29-1.2,3.48-1.67,4.23-1.66,8.48-3.28,12.72-4.92.65-.25,1.32-.47,2-.77,1.62-.77,3.28-1.48,4.82-2.39q5.25-3.06,10.4-6.29a35.2,35.2,0,0,0,4.46-3.3q3.94-3.48,7.69-7.17A61.69,61.69,0,0,0,191.05,188c2.71-4.33,5.71-8.48,7.69-13.21a107.09,107.09,0,0,0,5.46-15.23,111.25,111.25,0,0,0,3.3-17.06c.08-.8.12-1.6.19-2.4.48-5.2-.05-10.39-.08-15.59a33.77,33.77,0,0,0-.93-6.37,111.86,111.86,0,0,0-3.48-14.43c-.48-1.42-1-2.81-1.56-4.21A73.54,73.54,0,0,0,192,82c-2.94-4-6-7.84-9.16-11.7A26.73,26.73,0,0,0,179.63,67c-4.81-4.23-9.46-8.65-15-11.93-2.28-1.34-4.64-2.55-7-3.82-1.23-.66-2.46-1.34-3.7-2-1.42-.73-2.89-1.37-4.28-2.15-3.25-1.81-6.83-2.81-10.31-4-1.82-.65-3.75-1-5.62-1.53-2.84-.8-5.66-1.64-8.5-2.45a12.62,12.62,0,0,0-2-.39c-2.42-.42-3.63-.43-6-.72-1.08-.18-2.18-.18-3.27-.29a89.4,89.4,0,0,0-14.54-.35,29.74,29.74,0,0,0-7.52,1.31,5.92,5.92,0,0,1-2.22.22,1.8,1.8,0,0,1-1.18-.73c-.37-.51-.08-1,.33-1.47a12.5,12.5,0,0,1,4.37-2.86,29.14,29.14,0,0,1,7.66-2A89.91,89.91,0,0,1,114.2,31Z"/><path class="cls-2" d="M204.07,134.24c-.39,5.33-.68,10.68-1.21,16-.29,3-.94,5.92-1.5,8.87-.16.88-.58,1.7-.83,2.57a118.67,118.67,0,0,1-5.85,15.25,85,85,0,0,1-6.79,12,68.69,68.69,0,0,1-10.68,12.13,58,58,0,0,1-9.39,7.19c-2.6,1.6-5.65,2.48-8.55,3.58a4,4,0,0,1-2.19,0c-.89-.21-1-.67-.88-1.6a3.18,3.18,0,0,1,1.35-2.09c1.63-1.15,3.29-2.26,4.93-3.41,1.1-.78,2.24-1.53,3.26-2.4,2.37-2,4.72-4,7-6.14a35.87,35.87,0,0,0,6.36-7.74c1.93-3.16,4-6.27,5.65-9.55a72.17,72.17,0,0,0,5.63-14.2,76.21,76.21,0,0,0,2.37-9.44,92.31,92.31,0,0,0,.95-17.5c-.1-1.8,0-3.61-.07-5.41s-.22-3.8-.48-5.68A82.66,82.66,0,0,0,188.42,108a72.2,72.2,0,0,0-7.19-14.82,81.2,81.2,0,0,0-5.38-7c-1.94-2.29-4.17-4.33-6.1-6.62-3.35-4-7.55-6.83-11.7-9.8a78.37,78.37,0,0,0-14-7.77,71.73,71.73,0,0,0-15.73-5.35c-1.61-.3-3.25-.45-4.88-.65-1.79-.22-3.58-.39-5.36-.63-4.06-.56-8.1,0-12.14.21-.8,0-1.6.15-2.4.14a32.43,32.43,0,0,0-10,1.73c-2.77.86-5.63,1.48-8.29,2.58a34,34,0,0,0-9.15,5.38c-1.32,1.13-2.52,2.41-3.84,3.55-1,.88-1.54.94-2.11.47a2.07,2.07,0,0,1-.21-2.24,20.88,20.88,0,0,1,4.49-6.85,40.64,40.64,0,0,1,10.37-7.83,57.45,57.45,0,0,1,10.63-4,53.19,53.19,0,0,1,5.53-1.38A68.06,68.06,0,0,1,113.77,46c2,0,3.91-.11,5.85,0a114.82,114.82,0,0,1,13.8,1.94,94.62,94.62,0,0,1,12.34,3.17A47.22,47.22,0,0,1,152.67,54c3.61,1.83,7.2,3.72,10.64,5.85a82.62,82.62,0,0,1,13.24,9.81,95.6,95.6,0,0,1,14.3,16.91,75.49,75.49,0,0,1,8,16.91,83.71,83.71,0,0,1,3.54,13.78c.94,5.61,2.1,10.41,1.72,16.15C204.16,133.37,204,134.23,204.07,134.24Z"/><path class="cls-2" d="M174,187.21a2.22,2.22,0,0,1,.08-2.51,64,64,0,0,0,3.18-7.44c1.45-4.31,2.79-8.67,3.94-13.06.73-2.8,1-5.71,1.55-8.56a49.15,49.15,0,0,0,.16-13.16,87.49,87.49,0,0,0-2-13.18,71.38,71.38,0,0,0-6-16.45c-1.25-2.39-2.47-4.81-3.86-7.11A78.14,78.14,0,0,0,158.31,89.5a67.81,67.81,0,0,0-6.55-5.25,59.07,59.07,0,0,0-18.33-9.08c-3.11-.92-6.2-2-9.35-2.71a42.85,42.85,0,0,0-14.14-1.14c-3.19.3-6.41.42-9.47,1.45a55,55,0,0,0-5.42,2.14,31.4,31.4,0,0,0-9,6.58A16.07,16.07,0,0,0,81.25,92.2c-.09,1.39-.18,2.79-.36,4.18a2.46,2.46,0,0,1-.67,1.27,1.17,1.17,0,0,1-2-.36A17.82,17.82,0,0,1,77.05,93a23.82,23.82,0,0,1,1.63-10.11c.42-1.18.82-2.36,1.31-3.5a20.81,20.81,0,0,1,4.87-6.42,44.26,44.26,0,0,1,4.71-4.38,36.82,36.82,0,0,1,5.54-3.24,41.71,41.71,0,0,1,13.07-3.75c2.21-.3,4.48-.24,6.72-.33.75,0,1.5,0,2.25,0a48.63,48.63,0,0,1,13.37,1.5c3.28.9,6.59,1.65,9.84,2.62a25.14,25.14,0,0,1,4.51,2c3.18,1.68,6.38,3.35,9.46,5.21A77.84,77.84,0,0,1,167.5,82.87,87.64,87.64,0,0,1,177,93.52a72.38,72.38,0,0,1,4.08,6.8,85,85,0,0,1,5.51,12.47c.62,1.57,1,3.25,1.46,4.88.25.86.46,1.74.72,2.6a44.48,44.48,0,0,1,1.9,9.84c.19,2.54.52,5.07.73,7.62a57.65,57.65,0,0,1-.62,11.21,107.7,107.7,0,0,1-3.44,17.34,45,45,0,0,1-5,12c-1.21,1.89-2.27,3.88-3.55,5.72a18.17,18.17,0,0,1-2.7,2.78A1.87,1.87,0,0,1,174,187.21Z"/></g></g></svg>