<svg xmlns="http://www.w3.org/2000/svg" viewBox="0 0 1247.61 316.79"><defs><style>.cls-1,.cls-3{fill:#6f3;}.cls-2,.cls-4{fill:#1b99c8;}.cls-3,.cls-4{stroke:#6f3;stroke-miterlimit:10;}.cls-3{stroke-width:0.07px;}.cls-4{stroke-width:0.29px;}</style></defs><title>Blue MitoEC Name</title><g id="Layer_2" data-name="Layer 2"><g id="mito_blue_logo_text" data-name="mito blue logo text"><rect class="cls-1" x="760.97" y="86.75" width="45.14" height="95"/><rect class="cls-1" x="482.29" y="86.75" width="43.41" height="95"/><path class="cls-2" d="M120,25.6h-4a8,8,0,0,0-8,8V66.79H30a19.93,19.93,0,0,0-16.29,8.43,19.44,19.44,0,0,0-1.3,2,20.65,20.65,0,0,0-1.51,3.59,19.79,19.79,0,0,0-.9,6v80H0v143a7,7,0,0,0,7,7H33a7,7,0,0,0,7-7v-136a7,7,0,0,0-7-7H30v-73a7,7,0,0,1,7-7h71V120a8,8,0,0,0,8,8h4a8,8,0,0,0,8-8V33.6A8,8,0,0,0,120,25.6Z"/><path class="cls-2" d="M276.86,166.79h-3v-80a20,20,0,0,0-20-20h0v0c-.33,0-.66,0-1,0h-76V8a8,8,0,0,0-8-8h-4a8,8,0,0,0-8,8V145.57a8,8,0,0,0,8,8h4a8,8,0,0,0,8-8V86.79h77v80h-3a7,7,0,0,0-7,7v136a7,7,0,0,0,7,7h26a7,7,0,0,0,7-7v-136A7,7,0,0,0,276.86,166.79Z"/><path class="cls-2" d="M347.47,178h-11.2V91.31h10.18a3.65,3.65,0,0,0,3.66-3.65V80.12a3.66,3.66,0,0,0-3.66-3.66H306v11.2a3.65,3.65,0,0,0,3.66,3.65h11.19V178h-10a3.66,3.66,0,0,0-3.66,3.66v7.74a3.66,3.66,0,0,0,3.66,3.66h36.63a3.65,3.65,0,0,0,3.65-3.66v-7.74A3.65,3.65,0,0,0,347.47,178Z"/><path class="cls-2" d="M377.26,76.46a3.66,3.66,0,0,0-3.66,3.66v7.54a3.65,3.65,0,0,0,3.66,3.65h21.57v98.06a3.65,3.65,0,0,0,3.65,3.66h8.15a3.66,3.66,0,0,0,3.66-3.66V91.31h20.34a3.65,3.65,0,0,0,3.66-3.65V76.46Z"/><path class="cls-2" d="M519.57,76.46h-40.1a12.2,12.2,0,0,0-12.19,12.2v92.17A12.2,12.2,0,0,0,479.47,193h40.1a12.2,12.2,0,0,0,12.19-12.2V88.66A12.2,12.2,0,0,0,519.57,76.46ZM515.49,165a12.19,12.19,0,0,1-12.19,12.19h-8.37A12.19,12.19,0,0,1,482.74,165V103.3a12.19,12.19,0,0,1,12.19-12.19h8.37a12.19,12.19,0,0,1,12.19,12.19Z"/><path class="cls-2" d="M613.64,109.62h11.6V80.12a3.66,3.66,0,0,0-3.66-3.66H560.75V189.37a3.66,3.66,0,0,0,3.66,3.66H620a3.66,3.66,0,0,0,3.66-3.66V182a3.66,3.66,0,0,0-3.66-3.66H580.68a3.66,3.66,0,0,1-3.66-3.66V95.18a3.66,3.66,0,0,1,3.66-3.66h25.64A3.66,3.66,0,0,1,610,95.18V106A3.66,3.66,0,0,0,613.64,109.62Z"/><path class="cls-2" d="M800,76.46h-40.1a12.19,12.19,0,0,0-12.19,12.2v92.17A12.19,12.19,0,0,0,759.89,193H800a12.2,12.2,0,0,0,12.19-12.2V88.66A12.2,12.2,0,0,0,800,76.46ZM795.91,165a12.2,12.2,0,0,1-12.2,12.19h-8.36A12.19,12.19,0,0,1,763.16,165V103.3a12.19,12.19,0,0,1,12.19-12.19h8.36a12.2,12.2,0,0,1,12.2,12.19Z"/><path class="cls-2" d="M893,76.46a3.66,3.66,0,0,0-3.66,3.66v55.81a1.22,1.22,0,0,1-2.3.55l-30-58.21a3.68,3.68,0,0,0-3.31-2l-9,.13a3.65,3.65,0,0,0-3.61,3.65V193H853a3.66,3.66,0,0,0,3.66-3.66V125.31a1.22,1.22,0,0,1,2.3-.55L892.43,191a3.67,3.67,0,0,0,3.27,2H902a3.65,3.65,0,0,0,3.65-3.66V76.46Z"/><path class="cls-2" d="M998.48,102.58,981.5,78a3.65,3.65,0,0,0-3-1.58H938.3a3.66,3.66,0,0,0-3.66,3.66V193h42a3.64,3.64,0,0,0,2.81-1.33L998.28,169a3.63,3.63,0,0,0,.85-2.33v-62A3.68,3.68,0,0,0,998.48,102.58ZM980.82,171a3.62,3.62,0,0,1-.85,2.34l-2.12,2.55a3.66,3.66,0,0,1-2.82,1.32H953.76a3.66,3.66,0,0,1-3.66-3.66V94.77a3.66,3.66,0,0,1,3.66-3.66h21a3.64,3.64,0,0,1,3,1.63l2.37,3.55a3.67,3.67,0,0,1,.62,2Z"/><path class="cls-2" d="M1070.63,141h17.9V80.12a3.66,3.66,0,0,0-3.66-3.66h-53.1a3.66,3.66,0,0,0-3.66,3.66V193h12a3.66,3.66,0,0,0,3.66-3.68l-.19-48.4h4.34a3.66,3.66,0,0,1,3.21,1.9l26.4,48.27a3.65,3.65,0,0,0,3.21,1.91h18.17Zm-23.4-14.65a3.65,3.65,0,0,1-3.66-3.65V94.57a3.66,3.66,0,0,1,3.66-3.66h21.37a3.66,3.66,0,0,1,3.66,3.66v28.08a3.65,3.65,0,0,1-3.66,3.65Z"/><path class="cls-2" d="M1156.78,178h-11.19V91.31h10.17a3.65,3.65,0,0,0,3.66-3.65V76.46h-40.48a3.66,3.66,0,0,0-3.66,3.66v7.54a3.65,3.65,0,0,0,3.66,3.65h11.19V178h-10a3.66,3.66,0,0,0-3.66,3.66v7.74a3.66,3.66,0,0,0,3.66,3.66h36.62a3.66,3.66,0,0,0,3.66-3.66v-7.74A3.66,3.66,0,0,0,1156.78,178Z"/><path class="cls-2" d="M1235.41,76.46h-48.63a3.66,3.66,0,0,0-3.66,3.66V189.37a3.66,3.66,0,0,0,3.66,3.66h8.14a3.66,3.66,0,0,0,3.66-3.66V141h29.09a3.66,3.66,0,0,1,3.66,3.66v44.76A3.66,3.66,0,0,0,1235,193h12.62V88.66A12.2,12.2,0,0,0,1235.41,76.46Zm-4.08,49.84h-29.09a3.65,3.65,0,0,1-3.66-3.65V94.57a3.66,3.66,0,0,1,3.66-3.66h25.43a3.66,3.66,0,0,1,3.66,3.66Z"/><path class="cls-2" d="M669.68,80.12V189.37A3.66,3.66,0,0,1,666,193h-8.14a3.66,3.66,0,0,1-3.66-3.66V130.58H641.16a3,3,0,0,1-3-3v-8.65a3,3,0,0,1,3-3h13.06V80.12a3.66,3.66,0,0,1,3.66-3.66H666A3.66,3.66,0,0,1,669.68,80.12Z"/><path class="cls-2" d="M735.08,118.93v8.65a3,3,0,0,1-3,3H718.71v58.79a3.66,3.66,0,0,1-3.66,3.66h-9a3.66,3.66,0,0,1-3.66-3.66V80.12a3.66,3.66,0,0,1,3.66-3.66h12.62v39.47h13.37A3,3,0,0,1,735.08,118.93Z"/><path class="cls-2" d="M353.9,232.64v-7.8a3,3,0,0,0-3-3L306,222v83a3,3,0,0,0,3,3H353.9v-8.71a3,3,0,0,0-3-3H320.46a3,3,0,0,1-3-3V262.06H350.9a3,3,0,0,0,3-3v-4.81a3,3,0,0,0-3-3H317.46V232.64Z"/><path class="cls-2" d="M414.28,222a3,3,0,0,0-3,3v40.49a1,1,0,0,1-1.89.46l-22.06-42.46a3,3,0,0,0-2.7-1.61l-6.23.08a3,3,0,0,0-3,3V308h8.5a3,3,0,0,0,3-3V258.42a1,1,0,0,1,1.89-.45l24.64,48.38a3,3,0,0,0,2.67,1.64h4.24a3,3,0,0,0,3-3V222Z"/><path class="cls-2" d="M492.86,232.64v-7.8a3,3,0,0,0-3-3l-44.93.14v83a3,3,0,0,0,3,3h44.94v-8.71a3,3,0,0,0-3-3H459.42a3,3,0,0,1-3-3V262.06h33.44a3,3,0,0,0,3-3v-4.81a3,3,0,0,0-3-3H456.42V232.64Z"/><path class="cls-2" d="M546,269.56h13.3V225a3,3,0,0,0-3-3H517.4a3,3,0,0,0-3,3v83H523a3,3,0,0,0,3-3l-.13-35.42H529a3,3,0,0,1,2.63,1.56l19.46,35.32a3,3,0,0,0,2.62,1.55H567Zm-17.11-10.8a3,3,0,0,1-3-3V235.64a3,3,0,0,1,3-3h15.32a3,3,0,0,1,3,3v20.12a3,3,0,0,1-3,3Z"/><path class="cls-2" d="M599,233.24h32.83V225a3,3,0,0,0-3-3H583.88v83a3,3,0,0,0,3,3h41.93a3,3,0,0,0,3-3V251.1H608.5a3,3,0,0,0-3,3v4.66a3,3,0,0,0,3,3h8.82a3,3,0,0,1,3,3v29.42a3,3,0,0,1-3,3H599a3,3,0,0,1-3-3V236.24A3,3,0,0,1,599,233.24Z"/><path class="cls-2" d="M698.29,222H692.2a3,3,0,0,0-3,3v44.28H667.85a3,3,0,0,1-3-3V222h-8.19a3,3,0,0,0-3,3v52.39a3,3,0,0,0,3,3H689.2v13.81a3,3,0,0,1-3,3H656.36a3,3,0,0,0-3,3V308h44.93a3,3,0,0,0,3-3V225A3,3,0,0,0,698.29,222Z"/><path class="cls-2" d="M790,246.45h8.34V225a3,3,0,0,0-3-3H750.44v83a3,3,0,0,0,3,3h40.72a3,3,0,0,0,3-3v-4.81a3,3,0,0,0-3-3H765.53a3,3,0,0,1-3-3V236.09a3,3,0,0,1,3-3H784a3,3,0,0,1,3,3v7.36A3,3,0,0,0,790,246.45Z"/><path class="cls-2" d="M857.85,222H829.92a10,10,0,0,0-10,10v66a10,10,0,0,0,10,10h27.93a10,10,0,0,0,10-10V232A10,10,0,0,0,857.85,222Zm-2.1,64.3a10,10,0,0,1-10,10h-4.34a10,10,0,0,1-10-10V242.79a10,10,0,0,1,10-10h4.34a10,10,0,0,1,10,10Z"/><path class="cls-2" d="M970,222H889.4v83a3,3,0,0,0,3,3h5.49a3,3,0,0,0,3-3V235.64a3,3,0,0,1,3-3h21V305a3,3,0,0,0,3,3h6.4a3,3,0,0,0,3-3V235.64a3,3,0,0,1,3-3h17.59a3,3,0,0,1,3,3V308H970a3,3,0,0,0,3-3V225A3,3,0,0,0,970,222Z"/><path class="cls-2" d="M1036.32,222H997.41a3,3,0,0,0-3,3v83H1003a3,3,0,0,0,3-3l-.14-35.42h30.42a3,3,0,0,0,3-3V225A3,3,0,0,0,1036.32,222Zm-9.1,33.78a3,3,0,0,1-3,3H1005.9V235.64a3,3,0,0,1,3-3h15.32a3,3,0,0,1,3,3Z"/><path class="cls-2" d="M1105.65,222h-44.94v83a3,3,0,0,0,3,3h5.5a3,3,0,0,0,3-3V272.56a3,3,0,0,1,3-3h18.34a3,3,0,0,1,3,3V305a3,3,0,0,0,3,3h9.1V225A3,3,0,0,0,1105.65,222Zm-9.1,36.78h-21.34a3,3,0,0,1-3-3V235.64a3,3,0,0,1,3-3h18.34a3,3,0,0,1,3,3Z"/><path class="cls-2" d="M1169,222a3,3,0,0,0-3,3v40.49a1,1,0,0,1-1.89.46l-22.06-42.46a3,3,0,0,0-2.7-1.61l-6.23.08a3,3,0,0,0-3,3V308h8.49a3,3,0,0,0,3-3V258.42a1,1,0,0,1,1.9-.45l24.64,48.38a3,3,0,0,0,2.67,1.64h4.24a3,3,0,0,0,3-3V222Z"/><path class="cls-2" d="M1244.61,222h-6.1a3,3,0,0,0-3,3v44.28h-21.34a3,3,0,0,1-3-3V222H1203a3,3,0,0,0-3,3v52.39a3,3,0,0,0,3,3h29.53a3,3,0,0,1,3,3v10.81a3,3,0,0,1-3,3h-29.84a3,3,0,0,0-3,3V308h44.94a3,3,0,0,0,3-3V225A3,3,0,0,0,1244.61,222Z"/><circle class="cls-3" cx="215.36" cy="127.98" r="34.89"/><path class="cls-4" d="M247.07,128.73a27.34,27.34,0,0,1-.34,4.07c-.21,1.26-.44,2.52-.67,3.78a30.39,30.39,0,0,1-1.13,3.74,20,20,0,0,1-1,2.55c-.43.88-.8,1.78-1.24,2.65a25.55,25.55,0,0,1-1.32,2.34,23.61,23.61,0,0,1-2.72,3.5c-.56.59-1.11,1.19-1.68,1.77-.36.35-.73.69-1.12,1-.85.69-1.71,1.37-2.57,2-.24.18-.5.34-.76.5a28.37,28.37,0,0,1-3.69,2,29,29,0,0,1-4.73,1.54c-1.06.23-2.11.48-3.18.62s-2.11.19-3.17.27c-.51,0-1,.08-1.53.1a19.57,19.57,0,0,1-3-.15c-.45-.05-.9-.06-1.35-.1-.3,0-.6-.08-.9-.13-.53-.08-1.06-.14-1.59-.23a19.5,19.5,0,0,1-2.82-.64l-4-1.38A20,20,0,0,1,199.1,157c-1-.61-2.07-1.21-3.08-1.85-.67-.43-1.29-.92-1.93-1.38a8.19,8.19,0,0,1-1.52-1.42,7.79,7.79,0,0,1-.62-.8,1.93,1.93,0,0,1-.22-.58c0-.16.1-.35.31-.4a1.74,1.74,0,0,1,1,0,4.67,4.67,0,0,1,1.36.88c.33.25.66.51,1,.75a35.59,35.59,0,0,0,3.93,2.25c.6.31,1.24.54,1.87.79a27,27,0,0,0,3.94,1.27c1.17.25,2.34.5,3.53.67a43.39,43.39,0,0,0,5.08.37,15.61,15.61,0,0,0,3.54-.27c1-.18,1.93-.3,2.9-.46a18,18,0,0,0,3.13-.82,26.42,26.42,0,0,0,4.63-2.1,31.13,31.13,0,0,0,2.69-1.69,29.59,29.59,0,0,0,3.62-2.89,8.27,8.27,0,0,1,.63-.55,6.39,6.39,0,0,0,.54-.5c.83-.83,1.58-1.74,2.33-2.64a17.35,17.35,0,0,0,1.94-2.81,30.57,30.57,0,0,0,1.75-3.42c.39-1,.85-1.94,1.23-2.92a20.44,20.44,0,0,0,1-3c.2-.92.43-1.84.59-2.76s.29-2,.39-3a19,19,0,0,0,.09-2.13c0-.75-.09-1.5-.14-2.26,0-.52,0-1-.09-1.56a15.72,15.72,0,0,0-.48-2.81c-.19-.64-.36-1.28-.56-1.91-.12-.38-.27-.74-.42-1.11a3.1,3.1,0,0,1-.16-1.13.45.45,0,0,1,.33-.41.59.59,0,0,1,.62.13,4.37,4.37,0,0,1,1,1.47c.4,1.1.85,2.19,1.17,3.32a28,28,0,0,1,.62,3A36,36,0,0,1,247.07,128.73Z"/><path class="cls-4" d="M214.27,156.48c-.87,0-1.74,0-2.61-.13-1.39-.13-2.77-.3-4.16-.46a7.27,7.27,0,0,1-.79-.14c-.92-.21-1.84-.38-2.75-.64a21.78,21.78,0,0,1-2.5-.88,15.18,15.18,0,0,1-3.07-1.72c-.35-.26-.72-.51-1.07-.78a2.57,2.57,0,0,1-.74-.83.45.45,0,0,1,.22-.68,1.07,1.07,0,0,1,1.17.08,18.75,18.75,0,0,0,2,1.12,15.16,15.16,0,0,0,3.9,1.24c.82.16,1.62.34,2.44.45a27.73,27.73,0,0,0,5.15.31c.87-.06,1.74-.17,2.61-.21a27.92,27.92,0,0,0,2.88-.34,3.12,3.12,0,0,0,.5-.14l1.92-.48a3.76,3.76,0,0,0,.55-.23c.63-.24,1.25-.51,1.89-.72a21.51,21.51,0,0,0,3.47-1.53,32.16,32.16,0,0,0,2.86-1.75,23.68,23.68,0,0,0,3.46-2.86c.25-.25.52-.48.76-.73a32,32,0,0,0,2.64-3.06c.29-.41.62-.79.88-1.21a27.88,27.88,0,0,0,2.12-3.72c.27-.64.64-1.24.85-1.91.34-1.11.62-2.24.86-3.38a42,42,0,0,0,.72-4.72,20.32,20.32,0,0,0-.08-4.74c-.1-.63-.12-1.28-.22-1.91-.14-.87-.32-1.73-.5-2.6s-.36-1.51-.54-2.27a27.93,27.93,0,0,0-1-2.82c-.16-.45-.31-.9-.5-1.34-.3-.68-.59-1.36-.95-2a38.74,38.74,0,0,0-2.31-3.74c-.11-.15-.22-.3-.32-.46a.45.45,0,0,1,0-.52.67.67,0,0,1,.61-.14,2,2,0,0,1,1.07.79,37.36,37.36,0,0,1,2.6,3.75c.55.87,1.06,1.77,1.59,2.67.1.18.17.38.26.57.26.57.54,1.13.77,1.71s.32,1,.48,1.46.31,1,.48,1.42a12.86,12.86,0,0,1,.45,1.83c.1.58.25,1.16.36,1.74.18,1,.34,1.9.51,2.85a.88.88,0,0,1,0,.17c0,.78.1,1.55.13,2.33a18.14,18.14,0,0,1-.11,2.55c-.07.66-.08,1.32-.16,2-.1.88-.22,1.75-.35,2.62-.05.31-.15.61-.23.92-.24.88-.49,1.77-.74,2.65-.09.31-.21.62-.32.92a29.05,29.05,0,0,1-2.51,5c-.78,1.28-1.64,2.52-2.54,3.72-.29.39-.58.78-.9,1.15s-.49.5-.73.75a20.66,20.66,0,0,1-3.85,3.32c-.6.37-1.17.81-1.77,1.18s-1.36.81-2.05,1.19c-.34.18-.7.31-1,.47a31.88,31.88,0,0,1-3.26,1.34,25.09,25.09,0,0,1-4.42,1.11,25.51,25.51,0,0,1-3.82.42S214.27,156.45,214.27,156.48Z"/><path class="cls-4" d="M239.5,124.52c0,.6,0,1.19,0,1.78a22.71,22.71,0,0,1-.44,3.85,25.52,25.52,0,0,1-1,3.44c-.27.75-.53,1.51-.84,2.25a11.84,11.84,0,0,1-.69,1.38c-.34.62-.69,1.24-1.06,1.84s-.92,1.46-1.4,2.17a6.33,6.33,0,0,1-.58.7c-.57.66-1.13,1.33-1.73,2-.36.39-.8.71-1.19,1.07a21.89,21.89,0,0,1-3.43,2.64,18.15,18.15,0,0,1-3.11,1.65c-.27.11-.51.29-.78.4-1.07.44-2.14.91-3.23,1.29a17.52,17.52,0,0,1-3.2.84c-.47.06-.93.24-1.4.29-1.12.13-2.24.25-3.37.31a22.55,22.55,0,0,1-4.41-.34,17.87,17.87,0,0,1-2.18-.43c-.63-.19-1.27-.31-1.88-.51a5.77,5.77,0,0,1-1-.47.78.78,0,0,1-.28-.34c-.12-.27,0-.46.27-.57a2,2,0,0,1,.93,0c.94.13,1.87.28,2.8.39s1.62.19,2.43.25a12.8,12.8,0,0,0,1.64,0c1-.05,2.12-.09,3.16-.24a14.58,14.58,0,0,0,3-.77c1.38-.5,2.75-1,4.09-1.61a26.67,26.67,0,0,0,2.74-1.46,30.73,30.73,0,0,0,3.26-2.33A20.2,20.2,0,0,0,230,140.7c.23-.28.46-.55.7-.82a15.68,15.68,0,0,0,1.58-2.22c.57-.94,1.15-1.88,1.69-2.85.33-.6.56-1.25.85-1.87a13.36,13.36,0,0,0,.75-2.32c.31-1.12.47-2.27.69-3.41a12,12,0,0,0,.14-1.46,35.14,35.14,0,0,0,0-3.84,33.94,33.94,0,0,0-.94-5.66,20.27,20.27,0,0,0-2-4.88c-.68-1.28-1.46-2.51-2.21-3.75-.27-.44-.56-.86-.85-1.28a13.51,13.51,0,0,0-1.62-1.91c-.94-.91-1.82-1.87-2.8-2.73-.77-.68-1.64-1.26-2.47-1.87-.15-.11-.33-.19-.48-.29a.74.74,0,0,1-.21-.18.5.5,0,0,1-.14-.51c.08-.19.27-.2.45-.22a1.19,1.19,0,0,1,.74.12,15.31,15.31,0,0,1,2.42,1.39l1.64,1.13a18.42,18.42,0,0,1,2.42,2c.12.13.24.25.37.37a17.47,17.47,0,0,1,2.41,2.75l.05.06a13.35,13.35,0,0,1,1.91,2.9c.4.71.83,1.4,1.21,2.13a22.41,22.41,0,0,1,1.11,2.32,25,25,0,0,1,1.12,3.6c.15.67.31,1.33.49,2a12,12,0,0,1,.32,2.24c.06,1,.11,1.93.17,2.89Z"/><path class="cls-4" d="M235.81,122.91a25.58,25.58,0,0,1-.3,4.61,29.61,29.61,0,0,1-.92,3.8,23.27,23.27,0,0,1-1,2.59c-.31.65-.68,1.27-1,1.91a24.5,24.5,0,0,1-4.3,5.69,13.77,13.77,0,0,1-2.26,1.91c-.57.38-1.09.84-1.67,1.21a33.38,33.38,0,0,1-3.24,2c-.4.2-.79.45-1.2.64-.63.28-1.25.56-1.9.8a17.17,17.17,0,0,1-2.73.82l-2.16.37a19.41,19.41,0,0,1-3.73.14,9.18,9.18,0,0,1-2.21-.29c-.23-.07-.45-.17-.68-.25a.31.31,0,0,1-.23-.32.33.33,0,0,1,.24-.35,1.72,1.72,0,0,1,.5-.11l2-.06a21,21,0,0,0,5.29-.87,20.3,20.3,0,0,0,3.65-1.46c1.47-.81,2.93-1.63,4.32-2.57a21.6,21.6,0,0,0,3.94-3.32,28.91,28.91,0,0,0,2.7-3.25,16.62,16.62,0,0,0,1.58-2.75c.21-.48.44-.95.64-1.43a18.43,18.43,0,0,0,.83-2.74,23.9,23.9,0,0,0,.49-2.38,12.42,12.42,0,0,0,.16-1.35,29.56,29.56,0,0,0,0-4.61c-.09-.94-.25-1.89-.4-2.83-.1-.63-.22-1.26-.37-1.88s-.35-1-.51-1.45a14.59,14.59,0,0,0-1.05-2.27,24.26,24.26,0,0,0-1.61-2.74q-.53-.76-1.11-1.47c-.51-.64-1-1.25-1.58-1.87a22,22,0,0,0-3.45-3.24,17.05,17.05,0,0,0-1.62-1c-.61-.36-1.24-.69-1.87-1a13,13,0,0,0-1.37-.62,28.07,28.07,0,0,0-3.46-1.27L211.92,99a4.11,4.11,0,0,1-.46-.15c-.2-.08-.36-.27-.32-.41a.48.48,0,0,1,.35-.35A2,2,0,0,1,212,98a7.3,7.3,0,0,1,.81,0c.4,0,.8.09,1.21.15a24,24,0,0,1,3.72.9c.58.18,1.16.35,1.72.58.88.38,1.75.81,2.62,1.21a28.14,28.14,0,0,1,3.08,1.84,17.81,17.81,0,0,1,2.54,2.13c.85.8,1.6,1.69,2.37,2.56a5.22,5.22,0,0,1,.34.48c.41.6.82,1.19,1.21,1.8s.56,1,.84,1.49.39.72.59,1.07a13.18,13.18,0,0,1,1.1,2.56c.37,1.08.69,2.17,1,3.25a15.85,15.85,0,0,1,.49,2.56A21,21,0,0,1,235.81,122.91Z"/><path class="cls-4" d="M207,100.26c1.13,0,2.26,0,3.38.12a22.47,22.47,0,0,1,4.87,1c1.16.36,2.26.86,3.37,1.32a5.92,5.92,0,0,1,.89.49c.85.53,1.73,1,2.52,1.62.23.18.44.38.65.58,1,.93,2.05,1.86,3.06,2.81.38.36.7.78,1.06,1.16a18.34,18.34,0,0,1,2.79,4.12,15.89,15.89,0,0,1,1.68,5.32c.18,1.18.33,2.35.45,3.53a12.74,12.74,0,0,1,0,2.76c0,.33,0,.67,0,1a13.78,13.78,0,0,1-.64,3.49c-.26.85-.53,1.69-.83,2.52-.2.53-.47,1-.7,1.56a29.76,29.76,0,0,1-1.74,3.06,3.36,3.36,0,0,1-.39.54,24,24,0,0,1-2.66,2.86c-.54.47-1,1-1.59,1.46a17.2,17.2,0,0,1-4.43,2.75c-.54.22-1.07.47-1.6.7l-.39.16a31.64,31.64,0,0,1-3.46,1,4.28,4.28,0,0,1-.72.06.43.43,0,0,1-.46-.24c-.13-.22-.14-.33,0-.51a2,2,0,0,1,.81-.39l3-1.15a3.47,3.47,0,0,0,.45-.17c.38-.18.77-.35,1.13-.56.81-.47,1.62-1,2.41-1.46a8,8,0,0,0,1-.77c.61-.54,1.21-1.1,1.79-1.67a13.86,13.86,0,0,0,2.13-2.57,21.38,21.38,0,0,0,1.79-3.07,23.72,23.72,0,0,0,1.27-3.54,25.54,25.54,0,0,0,.77-4c0-.19,0-.37.05-.56.11-1.21,0-2.41,0-3.62a8.37,8.37,0,0,0-.22-1.49,27.69,27.69,0,0,0-.81-3.35c-.11-.33-.24-.65-.36-1a17.21,17.21,0,0,0-2.24-4.05c-.68-.93-1.4-1.83-2.12-2.73a6.91,6.91,0,0,0-.76-.77,23.86,23.86,0,0,0-3.49-2.77c-.53-.31-1.08-.59-1.62-.89l-.86-.46c-.33-.17-.67-.32-1-.5a15.93,15.93,0,0,0-2.4-.94c-.42-.15-.87-.23-1.3-.35l-2-.57a2.49,2.49,0,0,0-.46-.09c-.57-.1-.85-.1-1.4-.17-.25,0-.51,0-.76-.07a21.18,21.18,0,0,0-3.38-.08,7.46,7.46,0,0,0-1.75.3,1.26,1.26,0,0,1-.51.06.46.46,0,0,1-.28-.17c-.09-.12,0-.24.08-.34a2.83,2.83,0,0,1,1-.67,6.85,6.85,0,0,1,1.79-.47A21.19,21.19,0,0,1,207,100.26Z"/><path class="cls-4" d="M227.89,124.27c-.09,1.24-.16,2.48-.28,3.72-.07.69-.22,1.37-.35,2.06,0,.2-.13.4-.19.6a28.09,28.09,0,0,1-1.36,3.54,20.2,20.2,0,0,1-1.58,2.79,15.92,15.92,0,0,1-2.48,2.82,13.07,13.07,0,0,1-2.19,1.67,11,11,0,0,1-2,.84.94.94,0,0,1-.5,0c-.21,0-.25-.16-.21-.37a.78.78,0,0,1,.31-.49l1.15-.79c.26-.18.52-.36.76-.56.55-.47,1.1-.94,1.63-1.43a8.22,8.22,0,0,0,1.47-1.8c.45-.73.93-1.46,1.32-2.22a17.06,17.06,0,0,0,1.31-3.3,16.46,16.46,0,0,0,.55-2.2,22.13,22.13,0,0,0,.22-4.07c0-.42,0-.84,0-1.26s-.05-.88-.11-1.32a19.15,19.15,0,0,0-1.1-4.35,17.16,17.16,0,0,0-1.67-3.45,18,18,0,0,0-1.25-1.63c-.45-.53-1-1-1.42-1.54a14.44,14.44,0,0,0-2.72-2.28,18.91,18.91,0,0,0-3.26-1.81,16.8,16.8,0,0,0-3.66-1.24c-.37-.07-.75-.11-1.13-.15s-.84-.09-1.25-.15a14.77,14.77,0,0,0-2.82,0l-.56,0a8,8,0,0,0-2.33.4c-.64.2-1.31.35-1.93.6a8,8,0,0,0-2.12,1.25c-.31.27-.59.57-.9.83s-.35.22-.49.11a.47.47,0,0,1,0-.52,4.71,4.71,0,0,1,1-1.59,9.11,9.11,0,0,1,2.41-1.82,13.66,13.66,0,0,1,2.47-.94c.43-.12.85-.23,1.29-.32a16.5,16.5,0,0,1,3-.25c.46,0,.91,0,1.36,0a26.38,26.38,0,0,1,3.21.45,23.23,23.23,0,0,1,2.87.74,10.68,10.68,0,0,1,1.61.66c.84.43,1.67.87,2.47,1.37a18.54,18.54,0,0,1,3.08,2.27,22.42,22.42,0,0,1,3.33,3.94,17.42,17.42,0,0,1,1.85,3.93,19.89,19.89,0,0,1,.82,3.21,15.28,15.28,0,0,1,.4,3.75S227.87,124.26,227.89,124.27Z"/><path class="cls-4" d="M220.89,136.59a.55.55,0,0,1,0-.59,13.84,13.84,0,0,0,.74-1.73c.34-1,.65-2,.92-3,.17-.65.24-1.32.36-2a11.61,11.61,0,0,0,0-3.06,22.6,22.6,0,0,0-.46-3.06,16.71,16.71,0,0,0-1.39-3.83c-.29-.55-.58-1.12-.9-1.65a18.08,18.08,0,0,0-3-3.78,16.23,16.23,0,0,0-1.52-1.22,13.85,13.85,0,0,0-4.27-2.11c-.72-.22-1.44-.45-2.17-.63a10.12,10.12,0,0,0-3.29-.27,9.6,9.6,0,0,0-2.2.34c-.43.15-.85.31-1.26.5a7.18,7.18,0,0,0-2.1,1.53,3.75,3.75,0,0,0-1.11,2.49c0,.32,0,.65-.09,1a.57.57,0,0,1-.15.3.28.28,0,0,1-.48-.09,4.33,4.33,0,0,1-.26-1,5.63,5.63,0,0,1,.38-2.36c.1-.27.19-.54.31-.81a4.71,4.71,0,0,1,1.13-1.49,10.45,10.45,0,0,1,1.09-1,8.33,8.33,0,0,1,1.29-.75,9.83,9.83,0,0,1,3-.88c.52-.07,1,0,1.57-.07h.52a11.25,11.25,0,0,1,3.11.35c.76.21,1.53.38,2.29.61a6.09,6.09,0,0,1,1,.46c.74.39,1.48.78,2.19,1.21a18.32,18.32,0,0,1,3.07,2.41,19.83,19.83,0,0,1,2.19,2.48,14.07,14.07,0,0,1,.95,1.58,20.32,20.32,0,0,1,1.29,2.9c.14.36.22.75.33,1.13.06.2.11.41.17.61a9.77,9.77,0,0,1,.44,2.29c.05.59.13,1.18.17,1.77a12.7,12.7,0,0,1-.14,2.61,25.21,25.21,0,0,1-.8,4,10.66,10.66,0,0,1-1.17,2.79c-.28.44-.53.9-.83,1.33a3.81,3.81,0,0,1-.63.64A.42.42,0,0,1,220.89,136.59Z"/></g></g></svg>