<svg id="mito_colours" data-name="mito colours" xmlns="http://www.w3.org/2000/svg" viewBox="0 0 266.92 114.24"><defs><style>.cls-1{fill:#fff;}.cls-2{fill:#1b99c8;}</style></defs><title>bowline</title><path class="cls-1" d="M2433.69,478.4a4.78,4.78,0,0,0,1.43,3.05c2.25,2.09,4.75,3.92,7.09,5.91a21.09,21.09,0,0,1,6.2,8.63,2.41,2.41,0,0,0,1.83,1.05c2.28,0.12,4.61-.23,6.86.06,8.57,1.07,14.06,6.61,15.62,15.59a29.94,29.94,0,0,1,.54,5.76c0,1.75.69,2.65,2.26,2.71,3.84,0.13,7.69.15,11.53,0.12s7.58-.5,11.33-0.2,5.33,2.37,5.55,6.16a14.45,14.45,0,0,1-.08,2.36c-0.62,5.84-1.67,7.13-7.46,7.15s-11.72-.56-17.57-0.88c-0.61,0-1.22-.12-2.4-0.24,2.74,3.14,5.11,5.88,7.49,8.6,3,3.39,6,6.75,8.93,10.17a8.29,8.29,0,0,1-12.52,10.86q-9.25-10.46-18.44-21c-0.56-.64-1.14-1.25-1.66-1.82a34.69,34.69,0,0,1-21.35,7.36c-7.32.19-12.88-2.75-16.47-9.24-0.79-1.43-1.64-2.83-2.93-5.07a19.44,19.44,0,0,1-1.56,2.45q-12.5,13.9-25.06,27.75a7.73,7.73,0,0,1-9.77,1.67,8.26,8.26,0,0,1-4.41-9.17,9.79,9.79,0,0,1,2.14-3.86c9.22-10.31,18.51-20.54,27.78-30.8l1.67-1.87c-0.69-.59-1.24-1.13-1.86-1.58-10.6-7.78-11.56-26.87-1.79-35.67a14.53,14.53,0,0,1,8-3.85c1.78-.22,2.15-1,2.14-2.64,0-5.3-.25-10.63.24-15.88,0.66-7.09,1.44-7.69,9.19-7.86a32.91,32.91,0,0,1,5.92.92,1.83,1.83,0,0,1,1.72,2" transform="translate(-2378.43 -454.17)"/><path class="cls-2" d="M2411.75,540.65c-1.58.12-3.14,0.15-4.67,0.38a114.35,114.35,0,0,0-12,2c-2.9.76-5,3-6.93,5.55C2399.19,549.92,2408.92,548.43,2411.75,540.65Zm20-68.9c-9.76,6-15,15.51-11.81,21.07C2425.11,486.55,2432.73,481.75,2431.78,471.75Zm-28.91,78.9c-3,.33-5.85.57-8.67,1a53.76,53.76,0,0,0-7.57,1.32,11.92,11.92,0,0,0-7,5.3C2388.95,559.89,2400.41,558,2402.86,550.65Zm80.88,15.78c2.78-9,2.25-20.89-4.8-24,0,4.48-.12,9,0,13.58A13.35,13.35,0,0,0,2483.74,566.43Zm-13.45-30.94c-2.31,8,.22,18.47,5.28,21,0.36-2.75,1-5.42,1-8.09a40.38,40.38,0,0,0-1.27-9.9C2474.33,535.14,2473.92,535.2,2470.3,535.49Zm-50.5-55.66c1-1.33,1.83-2.5,2.75-3.59,2.21-2.62,4.6-5.11,6.68-7.83a12.54,12.54,0,0,0,2.59-9.67C2422,465.1,2417.18,473.23,2419.8,479.83Zm-1.17,52.62c-4.75.21-9.33,0.16-13.83,0.71-3.26.39-5.79,2.41-7.75,5.65,6.28,0.46,12.11.7,17.65-1.78C2416.45,536.24,2418.19,535.27,2418.63,532.45Zm13.25-47.27c-4.66,2.37-10.49,8.6-12,12.94a32,32,0,0,0-.9,5.43l0.79,0.2C2424.76,498.31,2432.75,494.89,2431.88,485.18Zm23.57,57.26c-6.1-1.06-9.15-7.77-15.71-7.85,0.18,4.11,3.85,8.92,7.77,10.27C2450.56,545.91,2452.94,545.25,2455.45,542.44Zm-22.78-13.61c-1.57-5.81-3.11-11.4-8.49-15.11-0.76,3.67.22,9.88,1.86,12.58C2427.58,528.83,2429.48,529.6,2432.68,528.83Zm24.71-7.59,0.74,1.16c3.31-1.17,6.72-2.13,9.91-3.56s4.09-6.27,2.2-9.13a2.37,2.37,0,0,0-.68-0.58,48.37,48.37,0,0,1-3.88,4.8c-1.21,1.17-2.91,1.82-4.18,2.95C2460,518.19,2458.75,519.77,2457.39,521.24Zm-8.36-2.11c3.63-5.26,3.67-15.61,0-18.36-0.35,1.33-.7,2.62-1,3.92-0.63,2.57-1.4,5.12-1.83,7.72C2445.62,515.72,2446.67,517.87,2449,519.13ZM2404.77,530a54.92,54.92,0,0,0,6.75.61,44.75,44.75,0,0,0,7.12-1,2.36,2.36,0,0,0,1.55-1.41,3,3,0,0,0-1.48-2.06,70.1,70.1,0,0,0-7.67-1.59,2.31,2.31,0,0,0-1.75.53C2407.83,526.58,2406.5,528.15,2404.77,530Zm31,3.33a9.88,9.88,0,0,0,1.39,12.1c2.29,2.37,5.1,2.91,7.28,1.71Zm27.27-32.49-5.16,14.64c4.23-.26,7.95-4.13,8.72-8.64A5.25,5.25,0,0,0,2463.09,500.9ZM2444.53,511c0.85-4.51,1.8-8.59,2.31-12.72a5.36,5.36,0,0,0-2.76-5.38c-0.58,2.13-1.15,4-1.58,5.84a55.07,55.07,0,0,0-1.38,7.12C2440.94,507.87,2441.83,509.61,2444.53,511Zm-12.66-14.22c-7.19,3.9-11.05,8.57-10.46,13.05,3.08-1.75,6-3.31,8.84-5.08a3.79,3.79,0,0,0,1.55-2.4A42.56,42.56,0,0,0,2431.87,496.77Zm9.32,34.57c-2.22-5.72-2.56-12.18-9.76-15,1,4.44,1.38,8.54,3.77,12A6.11,6.11,0,0,0,2441.19,531.35Zm3.48,2.08c4,2.67,7.46,5.48,12,6.33,2.82,0.53,5-.59,6-2.72-3.53-1.27-7.13-2.49-10.67-3.87A8.5,8.5,0,0,0,2444.67,533.43Zm26.69-12.8c-5.16,2.3-10.79,2.34-15.54,5.46,3.81,2.55,9.73,2.84,12.82.77C2470.72,525.46,2471.48,523.46,2471.36,520.63Zm-48.91,5.09c-0.45-3.41-.78-6.66-1.35-9.87-0.35-2-1.3-3.75-3.57-4.23C2414.24,516.42,2416.09,525.26,2422.45,525.72Zm16.64-23a22,22,0,0,0,1.82-12.31,4.53,4.53,0,0,0-3.73-4.27c-0.33,3.95-.74,7.67-0.9,11.41A5.32,5.32,0,0,0,2439.09,502.74Zm3,13.72,0.34-.71c-3.66-2-7.23-4.15-11-5.86a5.84,5.84,0,0,0-6.92,1.46C2430.56,512.74,2435.37,518,2442.13,516.46ZM2433.87,547l-1.94-14.55c-2.73.59-4.36,3.22-4.07,6.66C2428.27,543.64,2430.75,546.78,2433.87,547Zm48.37-12.89a46.56,46.56,0,0,0-2.8-6.51,15.41,15.41,0,0,0-4-4.23c-1.64-1.19-2.32-.69-2.56,1.38C2472.29,529.29,2476.57,533.73,2482.24,534.08Zm5.42-.12a16.78,16.78,0,0,0,0-9.11,1,1,0,0,0-.49-0.65c-2.42-.62-4.83-1.41-7.77-0.54C2482.23,527.22,2482.81,532,2487.66,534Zm-106.86,27.74c1.82,3.14,5.89,4.95,8.89,4.21,2.34-.58,5.19-3.07,5.09-5.86Zm106.61-10.06v14.29a8.56,8.56,0,0,0,5.08-8.47A6.39,6.39,0,0,0,2487.42,551.65Zm-86-56.59,0.53,0.6c4.35-1.47,9,1.18,13.4-.9-1.74-2.49-6.51-4.9-9.16-4.68a2.35,2.35,0,0,0-1.49.67C2403.54,492.13,2402.51,493.61,2401.42,495.06Zm27.12-38.59c-4.06-.87-7.75.61-9.38,3.46a6.16,6.16,0,0,0,.43,7.11Zm-14.73,41.24a13.12,13.12,0,0,0-8.72,0c-3.37,1.42-4.46,4.5-2.71,7.91Zm-7.9,16.63c1.67-2.1,3.44-4.13,5-6.32,1.3-1.83,2.07-3.88.9-6.13C2406.16,502.95,2402.81,510.17,2405.91,514.34Zm8.92-6.57a8.79,8.79,0,0,0-5.21,9.35c0.38,2.14,1.68,3.32,4.12,3.78Zm36.4,22.21c3.85,2.15,7.54,4.12,12,3.85,1.94-.12,3.47-0.92,4-2.59-3.59-.78-7-1.59-10.51-2.27C2454.91,528.61,2453.06,528.45,2451.24,530Zm3.54-31.4,1.44,12c3.11-2.23,3.55-4.94,3.69-7.77C2460.09,499.38,2458.52,498.06,2454.78,498.58Zm-38.1-6.49c0.47-4.83-.18-6.27-3.06-6.95-2.62-.62-5.43.64-6.21,2.51Zm23,28.26c0.66,1.84,1.08,3.27,1.67,4.63a21.85,21.85,0,0,0,2.22,4.33c1.15,1.56,2.25,1.34,2.91-.45a4.49,4.49,0,0,0,.16-2.46,8.39,8.39,0,0,0-4.82-5.63A9.32,9.32,0,0,0,2439.65,520.35Zm27.08,26.79,1.2-11.55-0.72-.25a9.9,9.9,0,0,0-4.45,6C2462.2,543.39,2464.43,545.22,2466.73,547.14Zm-12.64-35c-3.48,6.8-3.81,8.58-2.13,11.27C2455.77,522.1,2457.1,515.43,2454.09,512.17Zm41.71,19.66c3.52,0.49,6.61-2.9,5.58-5.57a3.72,3.72,0,0,0-2-2,2.4,2.4,0,0,0-1.91,1.28C2496.74,527.6,2496.33,529.71,2495.8,531.84Zm-78.21-23.65V496.12C2413.39,498.54,2413.29,505.12,2417.58,508.18Zm23.39,4,0.41-.3c-1-1.61-2.13-3.15-3-4.84s-2-1.77-3.51-1.22a28,28,0,0,0-2.67,1.36ZM2427.25,530c-3.94,2.64-4.48,7.8-1.63,10.5Zm7-38.87c2-3.81,2-5.73.41-7Zm14.42,32-0.64.59,1.26,3.66,2.41-1.39Zm25.22,9.67-2.76-3.94-1.15,3.16Zm22.48,2.59c3.42,0,4.32-.79,4-3.43Zm-53.8-16.12,3.8,1.69C2445.83,518.56,2444.72,518.05,2442.51,519.22Z" transform="translate(-2378.43 -454.17)"/><path class="cls-1" d="M2525.51,473.25c2.53,2.51,3.07,4.5,2,6.86s-2.85,3.29-6.18,3.19c-2-.06-4-0.08-6,0-1.28.06-1.8-.29-1.78-1.65,0.06-5.15,0-10.3,0-15.44,0-1.18.37-1.7,1.59-1.66,2.29,0.07,4.58,0,6.87.09s4.21,0.63,5.19,2.78S2527.43,471.62,2525.51,473.25Zm-8.78,1.7a36.69,36.69,0,0,0,.05,4.26,1.91,1.91,0,0,0,1.13,1.39,12.49,12.49,0,0,0,4.84-.29c0.9-.33,1.71-1.79,1.93-2.88a2.08,2.08,0,0,0-2.12-2.45C2520.74,474.86,2518.89,475,2516.73,475Zm3-8.41c-1,.3-2.37.3-2.81,0.95-1.54,2.3.1,4.9,2.88,4.86,3.08,0,4.65-.93,4.64-2.64C2524.46,467.81,2522.93,466.85,2519.75,466.54Z" transform="translate(-2378.43 -454.17)"/><path class="cls-1" d="M2517,516.51h-3.26V497.94c3.28,0,6.43-.23,9.53.06,3.33,0.31,5.56,3.57,5.37,7.2-0.2,3.85-2.46,6.26-6.11,6.45a23,23,0,0,1-3.43-.07c-1.65-.16-2.43.34-2.12,2.14A17.32,17.32,0,0,1,2517,516.51Zm-0.19-7.66a12.36,12.36,0,0,0,1.45.26c1.07,0,2.15.06,3.22,0a3.61,3.61,0,0,0,3.82-3.54c0.18-1.8-.08-3.85-1.81-4.46s-4-.41-6-0.46a1.31,1.31,0,0,0-.61,1C2516.78,504,2516.8,506.46,2516.8,508.85Z" transform="translate(-2378.43 -454.17)"/><path class="cls-1" d="M2553.07,478.77c-0.93,1.42-1.61,2.59-2.42,3.67-1,1.32-2.27,1.4-3.2.08-2-2.8-3.93-5.6-3.69-9.38,0.13-2,.65-2.81,3-2.07a20.82,20.82,0,0,0,.08,4.7,23.15,23.15,0,0,0,2.14,4.53c3.23-2.71,3-6,2.66-9.55l2.92-.15c0,3.41-.62,7,2.76,9.28,2.59-2.41,2.55-5.57,2-8.95h2.74c1.41,4.8-.86,8.51-3.65,11.95-0.8,1-2.1.69-2.9-.49Z" transform="translate(-2378.43 -454.17)"/><path class="cls-1" d="M2639.6,517.15l-3.77-1.61c-4,2-6.43,1.77-8.48-1.19a7.45,7.45,0,0,1,.89-9.44c2.35-2.13,5.42-2,7.92,0l2.85-.68a14.89,14.89,0,0,1,.43,2.41c0,1.64-.13,3.28-0.11,4.92S2639.48,514.7,2639.6,517.15Zm-3.12-7c0-2.38-1.5-4.18-3.6-4.22a4.18,4.18,0,0,0-.14,8.33A3.86,3.86,0,0,0,2636.49,510.12Z" transform="translate(-2378.43 -454.17)"/><path class="cls-1" d="M2514,546.91a13.16,13.16,0,0,0,3.58-.28c1-.36,2.19-1.2,2.37-2s-0.71-2-1.39-2.77a8.21,8.21,0,0,0-2.18-1.34c-2.37-1.39-3.16-3.18-2.55-5.78a4.86,4.86,0,0,1,4.67-3.75,44.68,44.68,0,0,1,5.79.72l-1.43,2.91a14.19,14.19,0,0,0-3.65-.66,3,3,0,0,0-2.24,1.44,3.22,3.22,0,0,0,1,2.49,10.26,10.26,0,0,0,2.58,1.51c3.5,2,4,6.14.91,8.7a9,9,0,0,1-3.62,1.69C2514.76,550.46,2514.51,550.2,2514,546.91Z" transform="translate(-2378.43 -454.17)"/><path class="cls-1" d="M2593.54,478.35c1.4,3.23,3.64,3.58,7.94,1.43,1,0.91,1.21,1.74-.06,2.69a7.79,7.79,0,0,1-7.76.38c-2.35-1.35-3.46-4-3-7a6.57,6.57,0,0,1,4.9-5.64,5.9,5.9,0,0,1,7.08,5.63,1.68,1.68,0,0,1-1.85,1.85C2598.41,477.84,2596,478.11,2593.54,478.35Zm6-2.63c-0.15-2.19-1.17-3.15-2.87-3.27s-2.85,1.32-3,3.72Z" transform="translate(-2378.43 -454.17)"/><path class="cls-1" d="M2573.12,513.23c-0.21.77-.19,1.79-0.68,2.28-1.75,1.73-5.56,1.94-7.86.63a7,7,0,0,1-3-7.67,6.36,6.36,0,0,1,5.39-5.11,5.75,5.75,0,0,1,6.43,5c0.26,1.7-.34,2.57-2.1,2.69-2.14.14-4.27,0.36-6.4,0.55a0.92,0.92,0,0,0-.34.23c1,3.12,3.55,3.52,7.71,1.21Zm-2.63-4.37c-0.74-2.44-1.92-3.42-3.38-3.17-1.64.28-2.65,1.72-2.42,3.77Z" transform="translate(-2378.43 -454.17)"/><path class="cls-1" d="M2537.21,546.29c-0.14.76,0,1.76-.46,2.23-1.84,2-6.06,2.1-8.41.47a7.25,7.25,0,0,1-2.16-8.51,6.12,6.12,0,0,1,6.86-3.94,5.79,5.79,0,0,1,4.59,5.71,2.49,2.49,0,0,1-1.62,1.69c-2.37.42-4.8,0.55-7.24,0.79C2529.74,548,2532.29,548.41,2537.21,546.29Zm-2.78-4.23c-0.27-2.35-1.44-3.42-3.13-3.18s-2.62,1.61-2.39,3.72Z" transform="translate(-2378.43 -454.17)"/><path class="cls-1" d="M2582.39,544.71c1.33,3.33,3.74,3.69,7.78,1.46,1.31,1.5,1.27,1.87-.28,2.88-3.14,2-7.89,1-9.68-2a7.49,7.49,0,0,1,2.53-9.83,5.88,5.88,0,0,1,8.73,5c0,1.32-.72,1.77-1.85,1.88C2587.28,544.26,2584.94,544.47,2582.39,544.71Zm5.73-2.6c0.18-2.13-.86-3-2.53-3.22s-3.07,1.23-3.16,3.68Z" transform="translate(-2378.43 -454.17)"/><path class="cls-1" d="M2529.56,476.8a6.59,6.59,0,0,1,6.36-6.73,6.72,6.72,0,0,1,6.51,6.85,6.62,6.62,0,0,1-6.64,6.7A6.51,6.51,0,0,1,2529.56,476.8Zm10.11,0.1a3.85,3.85,0,0,0-3.67-4.15,3.93,3.93,0,0,0-3.78,4.08,4.08,4.08,0,0,0,3.72,4.21A4,4,0,0,0,2539.68,476.9Z" transform="translate(-2378.43 -454.17)"/><path class="cls-1" d="M2552,510.23a6.39,6.39,0,0,1-6.62,6.6,6.55,6.55,0,0,1-6.19-6.86,6.47,6.47,0,0,1,6.67-6.58C2549.45,503.48,2552.08,506.41,2552,510.23Zm-10.06-.1a3.85,3.85,0,0,0,3.73,4.1,4.15,4.15,0,0,0-.08-8.26C2543.52,506,2542,507.76,2542,510.14Z" transform="translate(-2378.43 -454.17)"/><path class="cls-1" d="M2603.82,516.84a6.49,6.49,0,0,1-6.35-6.9,6.39,6.39,0,0,1,6.46-6.55A6.73,6.73,0,0,1,2603.82,516.84Zm3.77-6.72a3.74,3.74,0,1,0-7.45,0,4,4,0,0,0,3.72,4.16A3.91,3.91,0,0,0,2607.59,510.12Z" transform="translate(-2378.43 -454.17)"/><path class="cls-1" d="M2579.95,483.22h-3V471.15c1.13-.53,2.47-1.09,3.11,1.06a23.09,23.09,0,0,1,3.14-1.63c3.07-1,5.29.54,5.36,3.78,0.06,2.86,0,5.71,0,8.78h-2.88c0-2.38,0-4.72,0-7.06,0-1.69-.22-3.27-2.45-3.24a3.24,3.24,0,0,0-3.25,3.44C2579.93,478.55,2579.95,480.83,2579.95,483.22Z" transform="translate(-2378.43 -454.17)"/><path class="cls-1" d="M2615.42,505.62c0.73-.49,1.2-0.82,1.68-1.12,1.69-1,3.69-1.62,5.21-.31a6.58,6.58,0,0,1,1.65,4.1c0.25,2.68.07,5.39,0.07,8.2h-2.91c0-2.33,0-4.59,0-6.86,0-1.69,0-3.48-2.37-3.58-2-.08-3.38,1.53-3.39,3.79s0,4.28,0,6.36c-2.78.8-3,.56-3-2,0.09-3.2,0-6.4,0-9.79C2613.27,504.32,2614.83,502.86,2615.42,505.62Z" transform="translate(-2378.43 -454.17)"/><path class="cls-1" d="M2548.86,537.22h2.47c0.1,1.85-.13,3.64.36,5.21s1.68,2.92,2.66,4.54a9.32,9.32,0,0,0,2.92-9.48c2.77-.75,2.91-0.53,3.22,2,0.51,4.26-2.29,6.92-4.56,9.78a2.89,2.89,0,0,1-2.82,0C2550.1,545.89,2547,542.42,2548.86,537.22Z" transform="translate(-2378.43 -454.17)"/><path class="cls-1" d="M2560.37,497.11l0.43,2.1c-3.14,1-3.41,1.45-3.05,4.39,3,0.72,3,.72,2.74,2.75l-1.21.1-1.51.08v9.69c-2.73.72-2.92,0.59-3-1.94,0-1.71,0-3.43,0-5.14,0-1.12.5-2.57-1.39-2.77a13,13,0,0,1,.29-2.26c0.18-.58.86-1.06,0.92-1.63C2555,498.63,2556.18,497.4,2560.37,497.11Z" transform="translate(-2378.43 -454.17)"/><path class="cls-1" d="M2577.49,539.61c-2.25-.94-4.23-0.9-5.62,1.2a4.11,4.11,0,0,0,0,4.84c1.41,2.08,3.39,2.1,5.47,1.16,1.07,2.17.92,2.54-1.14,3.05a6.15,6.15,0,0,1-6.88-2.72,7.39,7.39,0,0,1,.19-8.08,6.29,6.29,0,0,1,7-2.39C2578.25,537.13,2578.62,538,2577.49,539.61Z" transform="translate(-2378.43 -454.17)"/><path class="cls-1" d="M2642.38,497.95h2.88c0,0.6.09,1.21,0.09,1.82,0,5.09-.07,10.17-0.08,15.26,0,1-.22,1.83-1.39,1.54a2.12,2.12,0,0,1-1.43-1.22C2642.35,509.62,2642.38,503.9,2642.38,497.95Z" transform="translate(-2378.43 -454.17)"/><path class="cls-1" d="M2564.95,483v-18.2h2.86c0,0.9,0,1.86,0,2.82q0,6.74,0,13.48C2567.78,483.52,2567.69,483.58,2564.95,483Z" transform="translate(-2378.43 -454.17)"/><path class="cls-1" d="M2599,538.64a13.16,13.16,0,0,0-1.54.46c-0.66.34-1.3,0.72-1.94,1.09a16.2,16.2,0,0,0,1.38,1.71c0.46,0.44,1.1.67,1.57,1.1a3.73,3.73,0,0,1,.51,4.87c-1,1.44-3.76,2.63-4.88,1.9a4.13,4.13,0,0,1-.88-1.79,3.25,3.25,0,0,1,.54-0.5c1.05-.43,2.11-0.85,3.16-1.27a12.6,12.6,0,0,0-2.23-2.48c-1.7-1.1-2.33-2.52-1.72-4.37a3.86,3.86,0,0,1,4-2.64C2597.55,536.72,2598.1,537.73,2599,538.64Z" transform="translate(-2378.43 -454.17)"/><path class="cls-1" d="M2588.63,505.8a10,10,0,0,0-1.81.37c-1.18.49-1.29,1.24-.33,2.1a5.64,5.64,0,0,0,.71.47c2.55,1.67,3.29,3.18,2.53,5.21s-2.77,2.89-5.76,2.64l-0.22-2.15a6.24,6.24,0,0,0,.8-0.2c0.91-.4,1.82-0.81,2.73-1.22a10.57,10.57,0,0,0-1.91-2.24c-1.41-.94-2.78-2-2.18-3.74a6.31,6.31,0,0,1,2.73-3.17C2587.88,502.82,2588.39,503.3,2588.63,505.8Z" transform="translate(-2378.43 -454.17)"/><path class="cls-1" d="M2575.64,516.55l-0.31-1.95a3.15,3.15,0,0,1,.46-0.32L2579,513a13.48,13.48,0,0,0-2.28-2.46,3.5,3.5,0,0,1-1.76-4.18c0.43-1.61,2.47-3.16,4.09-2.84,0.63,0.13,1.09,1.16,1.91,2.11a10.61,10.61,0,0,0-2.11.42,2.15,2.15,0,0,0-1.19,1,2.65,2.65,0,0,0,.79,1.36,1.93,1.93,0,0,0,.54.35c2.47,1.61,3.21,3.1,2.51,5.05S2578.61,516.9,2575.64,516.55Z" transform="translate(-2378.43 -454.17)"/><path class="cls-1" d="M2538.07,506.56c-4.51.78-4.51,0.78-4.51,5.39,0,1.48,0,3,0,4.39-2.89.47-3,.33-2.9-2.13,0.09-3.33,0-6.66,0-10.44l3.11,0.73-0.15.35,4.43-1.3v3Z" transform="translate(-2378.43 -454.17)"/><path class="cls-1" d="M2542.56,549.46c-2.84.46-2.89,0.36-2.84-2,0.07-3.34,0-6.67,0-10.46l3.07,0.6-0.15.4,4.43-1.3v3a2,2,0,0,1-.54.27c-3.69.07-4,.35-4,4.07C2542.55,545.8,2542.56,547.58,2542.56,549.46Z" transform="translate(-2378.43 -454.17)"/><path class="cls-1" d="M2573.79,483.19h-2.9V471h2.9v12.23Z" transform="translate(-2378.43 -454.17)"/><path class="cls-1" d="M2566.07,537.26v12.06c-2.69.84-3,.61-3-1.95,0-3.34,0-6.67,0-10.11h3Z" transform="translate(-2378.43 -454.17)"/><path class="cls-1" d="M2592.24,517.2v-13h2.92c0,3.83.09,7.6-.11,11.36C2595,516,2593.57,516.44,2592.24,517.2Z" transform="translate(-2378.43 -454.17)"/><path class="cls-1" d="M2572.37,469.57c-0.84-1-1.83-1.72-1.71-2.09a2.71,2.71,0,0,1,1.73-1.62,2.21,2.21,0,0,1,1.55,1.49C2574,467.88,2573.14,468.53,2572.37,469.57Z" transform="translate(-2378.43 -454.17)"/><path class="cls-1" d="M2593.57,498.31c0.85,1,1.72,1.58,1.71,2.14a2.11,2.11,0,0,1-1.41,1.53,2.57,2.57,0,0,1-1.81-1.43C2591.92,500.16,2592.82,499.37,2593.57,498.31Z" transform="translate(-2378.43 -454.17)"/><path class="cls-1" d="M2566.43,534.38c-0.68.27-1.43,0.87-2,.74s-1.06-1-1.58-1.52c0.67-.48,1.31-1.26,2-1.32,0.52,0,1.13.84,1.7,1.31Z" transform="translate(-2378.43 -454.17)"/><path class="cls-2" d="M2411.75,540.65c-2.83,7.78-12.56,9.27-23.56,8,1.9-2.59,4-4.79,6.93-5.55a114.35,114.35,0,0,1,12-2C2408.61,540.8,2410.17,540.77,2411.75,540.65Z" transform="translate(-2378.43 -454.17)"/><path class="cls-2" d="M2431.78,471.75c1,10-6.67,14.8-11.81,21.07C2416.76,487.26,2422,477.8,2431.78,471.75Z" transform="translate(-2378.43 -454.17)"/><path class="cls-2" d="M2402.86,550.65c-2.45,7.34-13.91,9.23-23.28,7.57a11.92,11.92,0,0,1,7-5.3,53.76,53.76,0,0,1,7.57-1.32C2397,551.23,2399.85,551,2402.86,550.65Z" transform="translate(-2378.43 -454.17)"/><path class="cls-2" d="M2483.74,566.43A13.35,13.35,0,0,1,2479,556c-0.15-4.55,0-9.1,0-13.58C2486,545.54,2486.52,557.41,2483.74,566.43Z" transform="translate(-2378.43 -454.17)"/><path class="cls-2" d="M2470.3,535.49c3.62-.29,4-0.35,5,3a40.38,40.38,0,0,1,1.27,9.9c0.06,2.66-.61,5.34-1,8.09C2470.51,554,2468,543.52,2470.3,535.49Z" transform="translate(-2378.43 -454.17)"/><path class="cls-2" d="M2419.8,479.83c-2.62-6.6,2.21-14.73,12-21.09a12.54,12.54,0,0,1-2.59,9.67c-2.08,2.73-4.46,5.21-6.68,7.83C2421.63,477.33,2420.81,478.51,2419.8,479.83Z" transform="translate(-2378.43 -454.17)"/><path class="cls-2" d="M2418.63,532.45c-0.44,2.82-2.19,3.79-3.93,4.57-5.54,2.48-11.37,2.24-17.65,1.78,2-3.23,4.49-5.25,7.75-5.65C2409.31,532.62,2413.88,532.67,2418.63,532.45Z" transform="translate(-2378.43 -454.17)"/><path class="cls-2" d="M2431.88,485.18c0.87,9.7-7.12,13.13-12.1,18.57l-0.79-.2a32,32,0,0,1,.9-5.43C2421.38,493.78,2427.22,487.55,2431.88,485.18Z" transform="translate(-2378.43 -454.17)"/><path class="cls-2" d="M2455.45,542.44c-2.51,2.81-4.89,3.47-7.94,2.42-3.92-1.35-7.59-6.15-7.77-10.27C2446.3,534.67,2449.35,541.38,2455.45,542.44Z" transform="translate(-2378.43 -454.17)"/><path class="cls-2" d="M2432.68,528.83c-3.2.78-5.1,0-6.63-2.53-1.64-2.7-2.62-8.91-1.86-12.58C2429.56,517.43,2431.11,523,2432.68,528.83Z" transform="translate(-2378.43 -454.17)"/><path class="cls-2" d="M2457.39,521.24c1.36-1.47,2.62-3,4.11-4.37,1.27-1.12,3-1.78,4.18-2.95a48.37,48.37,0,0,0,3.88-4.8,2.37,2.37,0,0,1,.68.58c1.89,2.87.87,7.76-2.2,9.13s-6.6,2.39-9.91,3.56Z" transform="translate(-2378.43 -454.17)"/><path class="cls-2" d="M2449,519.13c-2.36-1.26-3.4-3.41-2.86-6.71,0.43-2.6,1.2-5.15,1.83-7.72,0.32-1.3.67-2.59,1-3.92C2452.69,503.52,2452.65,513.88,2449,519.13Z" transform="translate(-2378.43 -454.17)"/><path class="cls-2" d="M2404.77,530c1.73-1.9,3.06-3.47,4.51-4.91a2.31,2.31,0,0,1,1.75-.53,70.1,70.1,0,0,1,7.67,1.59,3,3,0,0,1,1.48,2.06,2.36,2.36,0,0,1-1.55,1.41,44.75,44.75,0,0,1-7.12,1A54.92,54.92,0,0,1,2404.77,530Z" transform="translate(-2378.43 -454.17)"/><path class="cls-2" d="M2435.82,533.38l8.67,13.8c-2.18,1.21-5,.66-7.28-1.71A9.88,9.88,0,0,1,2435.82,533.38Z" transform="translate(-2378.43 -454.17)"/><path class="cls-2" d="M2463.09,500.9a5.25,5.25,0,0,1,3.57,6c-0.78,4.51-4.5,8.38-8.72,8.64Z" transform="translate(-2378.43 -454.17)"/><path class="cls-2" d="M2444.53,511c-2.7-1.39-3.59-3.12-3.4-5.14a55.07,55.07,0,0,1,1.38-7.12c0.43-1.87,1-3.7,1.58-5.84a5.36,5.36,0,0,1,2.76,5.38C2446.33,502.41,2445.38,506.49,2444.53,511Z" transform="translate(-2378.43 -454.17)"/><path class="cls-2" d="M2431.87,496.77a42.56,42.56,0,0,1-.07,5.58,3.79,3.79,0,0,1-1.55,2.4c-2.82,1.77-5.76,3.34-8.84,5.08C2420.82,505.34,2424.68,500.67,2431.87,496.77Z" transform="translate(-2378.43 -454.17)"/><path class="cls-2" d="M2441.19,531.35a6.11,6.11,0,0,1-6-2.93c-2.39-3.48-2.72-7.58-3.77-12C2438.63,519.16,2439,525.62,2441.19,531.35Z" transform="translate(-2378.43 -454.17)"/><path class="cls-2" d="M2444.67,533.43a8.5,8.5,0,0,1,7.28-.27c3.54,1.39,7.14,2.6,10.67,3.87-1,2.13-3.18,3.25-6,2.72C2452.14,538.91,2448.7,536.1,2444.67,533.43Z" transform="translate(-2378.43 -454.17)"/><path class="cls-2" d="M2471.36,520.63c0.13,2.83-.64,4.83-2.72,6.22-3.09,2.07-9,1.78-12.82-.77C2460.57,523,2466.2,522.94,2471.36,520.63Z" transform="translate(-2378.43 -454.17)"/><path class="cls-2" d="M2422.45,525.72c-6.36-.46-8.21-9.31-4.92-14.1,2.27,0.48,3.22,2.22,3.57,4.23C2421.67,519.06,2422,522.31,2422.45,525.72Z" transform="translate(-2378.43 -454.17)"/><path class="cls-2" d="M2439.09,502.74a5.32,5.32,0,0,1-2.81-5.17c0.16-3.74.57-7.46,0.9-11.41a4.53,4.53,0,0,1,3.73,4.27A22,22,0,0,1,2439.09,502.74Z" transform="translate(-2378.43 -454.17)"/><path class="cls-2" d="M2442.13,516.46c-6.76,1.54-11.57-3.72-17.61-5.11a5.84,5.84,0,0,1,6.92-1.46c3.78,1.71,7.35,3.88,11,5.86Z" transform="translate(-2378.43 -454.17)"/><path class="cls-2" d="M2433.87,547c-3.12-.2-5.6-3.34-6-7.89-0.3-3.44,1.34-6.07,4.07-6.66Z" transform="translate(-2378.43 -454.17)"/><path class="cls-2" d="M2482.24,534.08c-5.67-.36-9.95-4.8-9.41-9.37,0.25-2.07.92-2.57,2.56-1.38a15.41,15.41,0,0,1,4,4.23A46.56,46.56,0,0,1,2482.24,534.08Z" transform="translate(-2378.43 -454.17)"/><path class="cls-2" d="M2487.66,534c-4.85-2-5.43-6.75-8.22-10.3,2.94-.88,5.36-0.09,7.77.54a1,1,0,0,1,.49.65A16.78,16.78,0,0,1,2487.66,534Z" transform="translate(-2378.43 -454.17)"/><path class="cls-2" d="M2380.81,561.71l14-1.65c0.1,2.79-2.75,5.28-5.09,5.86C2386.7,566.66,2382.63,564.85,2380.81,561.71Z" transform="translate(-2378.43 -454.17)"/><path class="cls-2" d="M2487.42,551.65a6.39,6.39,0,0,1,5.08,5.81,8.56,8.56,0,0,1-5.08,8.47V551.65Z" transform="translate(-2378.43 -454.17)"/><path class="cls-2" d="M2401.42,495.06c1.08-1.44,2.12-2.93,3.27-4.31a2.35,2.35,0,0,1,1.49-.67c2.66-.22,7.43,2.19,9.16,4.68-4.42,2.08-9-.57-13.4.9Z" transform="translate(-2378.43 -454.17)"/><path class="cls-2" d="M2428.54,456.47l-9,10.57a6.16,6.16,0,0,1-.43-7.11C2420.79,457.08,2424.48,455.61,2428.54,456.47Z" transform="translate(-2378.43 -454.17)"/><path class="cls-2" d="M2413.82,497.71l-11.43,7.88c-1.75-3.41-.66-6.49,2.71-7.91A13.12,13.12,0,0,1,2413.82,497.71Z" transform="translate(-2378.43 -454.17)"/><path class="cls-2" d="M2405.91,514.34c-3.1-4.18.25-11.4,5.89-12.45,1.17,2.25.41,4.3-.9,6.13C2409.35,510.21,2407.58,512.25,2405.91,514.34Z" transform="translate(-2378.43 -454.17)"/><path class="cls-2" d="M2414.83,507.78l-1.09,13.12c-2.44-.46-3.74-1.64-4.12-3.78A8.79,8.79,0,0,1,2414.83,507.78Z" transform="translate(-2378.43 -454.17)"/><path class="cls-2" d="M2451.24,530c1.82-1.53,3.67-1.37,5.48-1,3.47,0.69,6.91,1.49,10.51,2.27-0.56,1.67-2.09,2.47-4,2.59C2458.77,534.1,2455.09,532.13,2451.24,530Z" transform="translate(-2378.43 -454.17)"/><path class="cls-2" d="M2454.78,498.58c3.74-.52,5.3.8,5.13,4.25-0.14,2.83-.58,5.54-3.69,7.77Z" transform="translate(-2378.43 -454.17)"/><path class="cls-2" d="M2416.68,492.09l-9.26-4.44c0.78-1.87,3.58-3.13,6.21-2.51C2416.5,485.81,2417.15,487.26,2416.68,492.09Z" transform="translate(-2378.43 -454.17)"/><path class="cls-2" d="M2439.65,520.35a9.32,9.32,0,0,1,2.15.42,8.39,8.39,0,0,1,4.82,5.63,4.49,4.49,0,0,1-.16,2.46c-0.66,1.79-1.76,2-2.91.45a21.85,21.85,0,0,1-2.22-4.33C2440.73,523.62,2440.31,522.19,2439.65,520.35Z" transform="translate(-2378.43 -454.17)"/><path class="cls-2" d="M2466.73,547.14c-2.3-1.92-4.53-3.74-4-5.85a9.9,9.9,0,0,1,4.45-6l0.72,0.25Z" transform="translate(-2378.43 -454.17)"/><path class="cls-2" d="M2454.09,512.17c3,3.26,1.67,9.92-2.13,11.27C2450.28,520.75,2450.61,519,2454.09,512.17Z" transform="translate(-2378.43 -454.17)"/><path class="cls-2" d="M2495.8,531.84c0.54-2.12.95-4.24,1.66-6.25a2.4,2.4,0,0,1,1.91-1.28,3.72,3.72,0,0,1,2,2C2502.4,528.93,2499.32,532.33,2495.8,531.84Z" transform="translate(-2378.43 -454.17)"/><path class="cls-2" d="M2417.58,508.18c-4.29-3.06-4.19-9.65,0-12.06v12.06Z" transform="translate(-2378.43 -454.17)"/><path class="cls-2" d="M2441,512.15l-8.74-5a28,28,0,0,1,2.67-1.36c1.46-.55,2.67-0.47,3.51,1.22s2,3.24,3,4.84Z" transform="translate(-2378.43 -454.17)"/><path class="cls-2" d="M2427.25,530l-1.63,10.5C2422.77,537.77,2423.31,532.6,2427.25,530Z" transform="translate(-2378.43 -454.17)"/><path class="cls-2" d="M2434.21,491.1l0.41-7C2436.2,485.37,2436.16,487.29,2434.21,491.1Z" transform="translate(-2378.43 -454.17)"/><path class="cls-2" d="M2448.62,523.08l3,2.86-2.41,1.39-1.26-3.66Z" transform="translate(-2378.43 -454.17)"/><path class="cls-2" d="M2473.84,532.75l-3.91-.78,1.15-3.16Z" transform="translate(-2378.43 -454.17)"/><path class="cls-2" d="M2496.31,535.34l4-3.43C2500.63,534.55,2499.73,535.3,2496.31,535.34Z" transform="translate(-2378.43 -454.17)"/><path class="cls-2" d="M2442.51,519.22c2.21-1.17,3.32-.66,3.8,1.69Z" transform="translate(-2378.43 -454.17)"/></svg>