<svg id="mito_colours" data-name="mito colours" xmlns="http://www.w3.org/2000/svg" viewBox="0 0 304.82 121.65"><defs><style>.cls-1{fill:#fff;}.cls-2{fill:#1b99c8;}</style></defs><title>espe</title><g id="Layer_1" data-name="Layer 1"><path class="cls-1" d="M3159.42,484h-2.91q-15.47,0-30.93,0c-4.87,0-7.57,2.47-7.62,7.07-0.06,6.54,0,13.09,0,19.63,0,5.23,3.57,7.33,7.43,7.2,6.35-.22,12.72-0.07,19.08-0.05,0.73,0,1.72-.34,1.7,1,0,1.91,0,3.82,0,5.73,0,1-.5,1.23-1.37,1.23-8.58-.06-17.15-0.11-25.73-0.1a1.59,1.59,0,0,0-1.13,1.06c-0.1,1.9-.06,3.82,0,5.73a6.4,6.4,0,0,0,6.68,6.18c9.08,0,18.16-.2,27.22,0,4.43,0.12,7.33-2.76,7.24-7.06-0.14-6.66,0-13.33,0-20,0-4-2.58-6.59-6.56-6.58-6,0-12,0-18,0h-3.63c0-2.59-.06-4.93.06-7.25a1.67,1.67,0,0,1,1.28-1c7,0,14.07,0,21.11.06a5.92,5.92,0,0,0,5.63-4.75C3159.28,489.52,3159.27,486.82,3159.42,484Zm63.33,33.93c0.71,0,1.19-.09,1.67-0.09,4.13,0,8.27,0,12.4,0,4.47-.07,7-2.31,7.24-6.46a52.9,52.9,0,0,0,.09-5.53,1.5,1.5,0,0,0-1.09-1q-9.44,0-18.87.16c-1,0-1.5-.17-1.48-1.28,0-1.91-.06-3.83.07-5.73a1.67,1.67,0,0,1,1.15-1.15q11.75,0,23.5.16c1.22,0,1.69-.14,1.5-1.5a26.21,26.21,0,0,1-.1-4.06c0.08-4.52-2.33-7.33-6.85-7.4-8.39-.13-16.79-0.12-25.18,0-4.24.06-7,2.65-7,6.3q0,21,0,42c0,3.89,2.86,6.36,6.81,6.33q12.68-.1,25.36,0c3.68,0,6.31-2,6.71-5.65a53.31,53.31,0,0,0,.25-6.44,1.71,1.71,0,0,0-1.31-.86c-7.9,0-15.79.05-23.69,0a1.67,1.67,0,0,1-1.13-1.17C3222.68,522.43,3222.75,520.27,3222.75,517.91Zm-135.17,0c0.73,0,1.33-.08,1.94-0.08,3.83,0,7.66,0,11.49,0,5.42,0.06,8.16-3.5,7.58-7.57a21.29,21.29,0,0,1,.06-4.06c0.05-1-.18-1.41-1.33-1.39-6.17.12-12.34,0.13-18.52,0.21a1.06,1.06,0,0,1-1.32-1.27c0-1.91-.07-3.83,0-5.73a1.67,1.67,0,0,1,1.12-1.18c7.78,0,15.56,0,23.33.13,1.19,0,1.54-.24,1.46-1.4-0.11-1.47-.08-3-0.06-4.44,0.06-4.27-2.29-7-6.53-7.1-8.46-.13-16.92-0.16-25.38,0-5,.1-6.93,2.57-6.91,7.56q0.1,20.28.06,40.57c0,4.18,2.44,6.55,6.66,6.52,8.52-.06,17,0,25.56,0,3.12,0,5.68-1.57,6.22-4.61a48.16,48.16,0,0,0,.34-7.72,1.32,1.32,0,0,0-1-.69c-7.59,0-15.18.09-22.77,0.15h-2v-7.89ZM3163.89,484c0,2.15,0,4.06,0,6q0,23.79-.1,47.58c0,1,.26,1.38,1.4,1.28a44.66,44.66,0,0,1,5.54-.11,6.24,6.24,0,0,0,6.37-5.86c0.07-4.38.16-8.77-.07-13.14-0.09-1.75.44-1.91,1.88-1.9,6.11,0.06,12.22,0,18.33,0,5.41,0,8.21-2.64,8-7.95-0.24-6-.25-12.1,0-18.14,0.23-5.66-3.49-7.83-7.79-7.79-10.24.1-20.49,0-30.73,0h-2.81ZM3180,551.31a1.4,1.4,0,0,0-.4-0.17c-1.23,0-2.47,0-3.7,0-3,0-3,0-2.79-3.06a2.32,2.32,0,0,1,.31-0.55c1.95,0,4,0,6.11,0a3,3,0,0,0,1.17-.84,2.45,2.45,0,0,0-.79-1c-2.87-.07-5.74,0-8.64,0,0,4,0,7.76,0,11.52a0.76,0.76,0,0,0,0,.36,3,3,0,0,0,1.21,1.06c2.34,0.11,4.69,0,7,.09,1.22,0,1.52-.44,1.2-1.64h-6.33c-2,0-1.12-1.48-1.27-2.42s-0.13-1.9,1.28-1.86,3,0,4.44.05C3180.07,552.87,3180.32,552.36,3180,551.31Zm27.89,7.72c-0.2,1.91.54,3,2,3.32,2.29,0.52,4.29-.13,5.14-1.57a3.18,3.18,0,0,0,.51-1.35c0.12-2.57.22-5.14,0.23-7.71,0-1.24.68-3.36-2-2a2.59,2.59,0,0,1-1-.4,3.84,3.84,0,0,0-5.23,2.94c-0.77,3.2.49,6,3,6.39a17.61,17.61,0,0,0,3.85-.42c-0.79,1.08-1.18,2.18-1.85,2.4a5,5,0,0,1-2.8-.41A8.93,8.93,0,0,1,3207.86,559Zm-131.6-5.22c2.06-.22,3.84-0.33,5.58-0.63s2.2-1.77,2.32-3.33,0-3.16-1.61-3.52a78.78,78.78,0,0,0-8-1c0,4.45,0,8.39,0,12.33a2.75,2.75,0,0,0,.7,1.08,2.83,2.83,0,0,0,.9-1.06C3076.33,556.43,3076.26,555.14,3076.26,553.81Zm124,1.72c-0.61.27-1.22,0.55-1.84,0.79-0.91.35-1.95,1.09-2.72,0.89s-1.38-1.35-2.05-2.09l0.37-.53c1.83,0,3.65,0,5.48,0a1.63,1.63,0,0,0,1.26-.61c0.38-1.1-1.23-3.94-2.35-4.39-3.87-1.55-6.49.46-6.4,4.9,0,2.06,1.29,4,2.81,4.31C3197.54,559.36,3199.49,558.44,3200.25,555.53Zm-86.13-.9c0-.76,0-1.19,0-1.62a3.75,3.75,0,0,0-3.86-3.85c-2.51-.11-4.18,1.08-4.54,3.36a12.17,12.17,0,0,0,0,2.94,3.69,3.69,0,0,0,3.78,3.31c2.87,0.15,4-.55,4.69-3.48a19.92,19.92,0,0,1-2.22,1.21,5.86,5.86,0,0,1-2.62.67,2,2,0,0,1-1.75-2.55h6.55Zm50.71-.08c-0.74-4.64-1.63-5.54-5-5.38a3.9,3.9,0,0,0-3.71,4c-0.11,3.34.92,5.27,3,5.58,3.13,0.47,4.8-.4,5.58-3.47a8.11,8.11,0,0,0-2.24,1.18,2.15,2.15,0,0,1-2.94.63,9.14,9.14,0,0,1-1.81-2l0.42-.55h6.74Zm58-2.1c0.37-2,1.85-2,3.26-1.81,0.48,0.08.84,0.87,1.26,1.34a3.69,3.69,0,0,1-1.12.94c-1.11.31-2.28,0.37-3.39,0.67a2.38,2.38,0,0,0-1.93,2.74,2.32,2.32,0,0,0,2.33,2.4c2,0,4.08-.28,5.75-0.42,0-2.29,0-4.54,0-6.79a2.43,2.43,0,0,0-.43-1.5c-1.86-2-6.56-.77-7.34,2Zm-77.61,1.35c-0.09-3.45-1.38-4.72-4.68-4.62-2.87.09-4.22,1.93-4.08,5.57,0.1,2.64,1.8,4.13,4.62,4C3144.1,558.7,3145.27,557.29,3145.18,553.81Zm-21.39,2.2c1,2.54,2,3,5.23,2.78a3,3,0,0,0,2.7-2.62,2.43,2.43,0,0,0-2.08-2.83,28.23,28.23,0,0,1-2.84-.79,1.31,1.31,0,0,1-.77-0.85,1.28,1.28,0,0,1,.56-1c0.91,0.09,2.25.06,2.62,0.62,0.84,1.25,1.37.78,2.11,0.21-0.45-2.75-2.57-2.33-4.35-2.37-1.19,0-2.41.22-2.63,1.74s-0.28,2.76,1.57,3.19a12.13,12.13,0,0,1,2.6.82,5.58,5.58,0,0,1,1.28,1.29c-0.51.39-1.06,1.12-1.53,1.08a3.26,3.26,0,0,1-2.25-1C3125.28,555.18,3124.7,555.49,3123.79,556Zm-28-6.79c-3.13,0-4.56,1.46-4.62,4.84q-0.07,4.66,4.34,4.74c2.89,0.06,4.48-1.56,4.53-4.58C3100,550.89,3098.66,549.26,3095.75,549.21Zm27,3c-1-3.1-4.59-4.06-6.48-2.35a2.42,2.42,0,0,0,.57,4.11c1,0.44,2.13.58,3.16,1a4.68,4.68,0,0,1,1.18,1,4.07,4.07,0,0,1-1.16,1.23,2.15,2.15,0,0,1-3-1,2.84,2.84,0,0,0-1.31-.58,2.46,2.46,0,0,0-.4,1c0.26,1.52,1.61,2.15,4.19,2.17,1.67,0,2.95-.57,3.36-2.25a2.59,2.59,0,0,0-2-3.22c-1-.3-2-0.51-3-0.85a1.17,1.17,0,0,1-.67-0.77,1,1,0,0,1,.43-0.88c1.11-.28,2.23-0.64,3.18.53A6,6,0,0,0,3122.76,552.24Zm24.17,1.71h-0.12c0,1.23-.07,2.47,0,3.69a0.88,0.88,0,1,0,1.66,0c0.1-1.41.05-2.83,0-4.24,0-1.61.78-2.7,2.34-2.77,1.76-.08,2,1.4,2,2.74s-0.08,3,0,4.42a2.67,2.67,0,0,0,.75,1,2.43,2.43,0,0,0,.86-0.92c0.07-2,.1-4.06,0-6.08-0.1-1.68-1-2.75-2.85-2.63-1.35.08-2.71,0-4,.15a1.47,1.47,0,0,0-.75,1.13C3146.75,551.61,3146.87,552.78,3146.92,553.95Zm35.73,0.08h0.08c0,1.11-.08,2.22,0,3.32a4.51,4.51,0,0,0,.72,1.42,4.11,4.11,0,0,0,.79-1.37c0.18-1.64.14-3.3,0.34-4.94a2,2,0,0,1,2.52-1.78c1.32,0.19,1.58,1.2,1.58,2.33,0,1.6-.08,3.2,0,4.8a2.55,2.55,0,0,0,.82,1,2.49,2.49,0,0,0,.82-1c0.06-2.09.08-4.18,0-6.27a2.33,2.33,0,0,0-2.53-2.38,40.25,40.25,0,0,0-4.53.24,1.48,1.48,0,0,0-.59,1.11C3182.6,551.68,3182.65,552.86,3182.65,554Zm-80.79-2.84c0,1,0,2.06,0,3.17s-0.11,2.23,0,3.33a0.88,0.88,0,1,0,1.66-.06c0.07-1.91-.06-3.82,0-5.73a2.41,2.41,0,0,1,.87-1.24,6.8,6.8,0,0,1,1.15-.76,8.73,8.73,0,0,1-1.1-.59,2.29,2.29,0,0,1-.86-0.85,2.84,2.84,0,0,1,1-1.28,2.8,2.8,0,0,1,1.33.22l0.14-1.83c-3.8-.14-3.8-0.14-4.29,3.24l-1.45,1.16Zm-16,2.82h0a35,35,0,0,0,0,3.69,0.93,0.93,0,1,0,1.84-.08c0.08-1.53-.06-3.08,0-4.62,0.07-1.24.45-2.28,2.1-2.11a0.87,0.87,0,1,0,.09-1.7c-1.29,0-2.9-.22-3.76.45-0.63.49-.29,2.25-0.36,3.44A7.21,7.21,0,0,0,3085.89,554Zm116.19,0a33.83,33.83,0,0,0,0,3.5,3.7,3.7,0,0,0,.83,1.31,3.59,3.59,0,0,0,.85-1.32c0.12-1.47,0-2.95.08-4.42,0.05-1.19.52-2.35,1.89-2.16,0.95,0.13,1.37-.09,1.32-0.86a1.65,1.65,0,0,0-1.27-.84c-3.77-.15-3.77-0.12-3.74,3.68C3202.08,553.22,3202.08,553.59,3202.08,554Zm17.21,0.32h0c0-1.29.07-2.58,0-3.86a2.86,2.86,0,0,0-.91-1.07,2.6,2.6,0,0,0-.78,1c-0.06,2.45-.06,4.9,0,7.35a0.84,0.84,0,1,0,1.63,0C3219.34,556.61,3219.28,555.44,3219.28,554.28Zm-84.4-.19h0c0-1.23.06-2.47,0-3.69a2.68,2.68,0,0,0-.78-1,2.57,2.57,0,0,0-.81,1q-0.08,3.69,0,7.38a2.41,2.41,0,0,0,.86.9,2.33,2.33,0,0,0,.66-0.89C3134.93,556.56,3134.89,555.32,3134.89,554.09Zm83.49-5.59c0.51-.93.95-1.36,0.9-1.72a3.88,3.88,0,0,0-.79-1.31,2.66,2.66,0,0,0-.94,1A6.31,6.31,0,0,0,3218.38,548.5Zm-83-2a3.64,3.64,0,0,0-1.37-.85,1.19,1.19,0,0,0-.74.93,3.5,3.5,0,0,0,.89,1.17Z" transform="translate(-2944.14 -451.62)"/><path class="cls-1" d="M3159.42,484c-0.14,2.84-.13,5.54-0.45,8.2a5.92,5.92,0,0,1-5.63,4.75c-7,0-14.07-.09-21.11-0.06a1.67,1.67,0,0,0-1.28,1c-0.12,2.33-.06,4.66-0.06,7.25h3.63c6,0,12,0,18,0,4,0,6.57,2.57,6.56,6.58,0,6.67-.11,13.34,0,20,0.09,4.3-2.8,7.18-7.24,7.06-9.07-.24-18.15-0.08-27.22,0a6.4,6.4,0,0,1-6.68-6.18c-0.07-1.91-.11-3.83,0-5.73a1.59,1.59,0,0,1,1.13-1.06c8.58,0,17.15,0,25.73.1,0.88,0,1.4-.19,1.37-1.23,0-1.91,0-3.82,0-5.73,0-1.36-1-1-1.7-1-6.36,0-12.72-.17-19.08.05-3.86.14-7.4-2-7.43-7.2,0-6.54-.07-13.09,0-19.63,0-4.6,2.74-7.06,7.62-7.07q15.47,0,30.93,0h2.91Z" transform="translate(-2944.14 -451.62)"/><path class="cls-1" d="M3222.75,517.91c0,2.36-.06,4.52.05,6.66a1.67,1.67,0,0,0,1.13,1.17c7.9,0,15.79,0,23.69,0a1.71,1.71,0,0,1,1.31.86,53.31,53.31,0,0,1-.25,6.44c-0.4,3.64-3,5.68-6.71,5.65q-12.68-.1-25.36,0c-3.95,0-6.8-2.44-6.81-6.33q-0.05-21,0-42c0-3.64,2.77-6.24,7-6.3,8.39-.11,16.79-0.13,25.18,0,4.52,0.07,6.93,2.88,6.85,7.4a26.21,26.21,0,0,0,.1,4.06c0.19,1.35-.29,1.52-1.5,1.5q-11.75-.18-23.5-0.16a1.67,1.67,0,0,0-1.15,1.15c-0.13,1.9,0,3.82-.07,5.73,0,1.1.46,1.29,1.48,1.28q9.43-.17,18.87-0.16a1.5,1.5,0,0,1,1.09,1,52.9,52.9,0,0,1-.09,5.53c-0.27,4.15-2.77,6.39-7.24,6.46-4.13.06-8.27,0-12.4,0C3223.93,517.82,3223.45,517.87,3222.75,517.91Z" transform="translate(-2944.14 -451.62)"/><path class="cls-1" d="M3087.57,517.91v7.89h2c7.59-.06,15.18-0.13,22.77-0.15a1.32,1.32,0,0,1,1,.69,48.16,48.16,0,0,1-.34,7.72c-0.54,3-3.1,4.63-6.22,4.61-8.52,0-17-.07-25.56,0-4.22,0-6.67-2.33-6.66-6.52q0-20.28-.06-40.57c0-5,1.93-7.46,6.91-7.56,8.46-.17,16.92-0.14,25.38,0,4.24,0.07,6.59,2.83,6.53,7.1,0,1.48,0,3,.06,4.44,0.08,1.17-.26,1.42-1.46,1.4-7.78-.12-15.55-0.15-23.33-0.13a1.67,1.67,0,0,0-1.12,1.18c-0.11,1.9,0,3.82,0,5.73a1.06,1.06,0,0,0,1.32,1.27c6.17-.09,12.34-0.09,18.52-0.21,1.16,0,1.38.4,1.33,1.39a21.29,21.29,0,0,0-.06,4.06c0.58,4.07-2.16,7.64-7.58,7.57-3.83,0-7.66,0-11.49,0C3088.9,517.82,3088.3,517.87,3087.57,517.91Z" transform="translate(-2944.14 -451.62)"/><path class="cls-1" d="M3163.89,484h2.81c10.25,0,20.49.07,30.73,0,4.3,0,8,2.13,7.79,7.79-0.25,6-.24,12.1,0,18.14,0.21,5.31-2.59,7.95-8,7.95-6.11,0-12.22,0-18.33,0-1.43,0-2,.15-1.88,1.9,0.23,4.37.14,8.76,0.07,13.14a6.24,6.24,0,0,1-6.37,5.86,44.66,44.66,0,0,0-5.54.11c-1.14.11-1.4-.23-1.4-1.28q0.07-23.79.1-47.58C3163.9,488,3163.89,486.13,3163.89,484Zm20.89,12.85v0c-2.15,0-4.3,0-6.45,0a1.12,1.12,0,0,0-1.37,1.39,50,50,0,0,1,0,5.33c-0.07,1.17.32,1.51,1.45,1.49,4.18-.07,8.36-0.1,12.54,0,1,0,1.33-.32,1.33-1.24q0-2.86,0-5.72c0-1-.46-1.23-1.39-1.19C3188.85,496.88,3186.81,496.83,3184.79,496.83Z" transform="translate(-2944.14 -451.62)"/><path class="cls-1" d="M3180,551.31c0.35,1,.09,1.56-1.17,1.49-1.48-.09-3,0-4.44-0.05s-1.44.87-1.28,1.86-0.72,2.43,1.27,2.42h6.33c0.32,1.2,0,1.67-1.2,1.64-2.34-.07-4.69,0-7-0.09a3,3,0,0,1-1.21-1.06,0.76,0.76,0,0,1,0-.36c0-3.76,0-7.52,0-11.52,2.9,0,5.77,0,8.64,0a2.45,2.45,0,0,1,.79,1,3,3,0,0,1-1.17.84c-2.08.09-4.16,0-6.11,0a2.32,2.32,0,0,0-.31.55c-0.22,3.1-.22,3.1,2.79,3.06,1.23,0,2.47,0,3.7,0A1.4,1.4,0,0,1,3180,551.31Z" transform="translate(-2944.14 -451.62)"/><path class="cls-1" d="M3207.86,559a8.93,8.93,0,0,0,1.87,1.19,5,5,0,0,0,2.8.41c0.67-.22,1.06-1.31,1.85-2.4a17.61,17.61,0,0,1-3.85.42c-2.51-.37-3.77-3.19-3-6.39a3.84,3.84,0,0,1,5.23-2.94,2.59,2.59,0,0,0,1,.4c2.7-1.36,2,.75,2,2,0,2.57-.11,5.14-0.23,7.71a3.18,3.18,0,0,1-.51,1.35c-0.84,1.44-2.85,2.09-5.14,1.57C3208.4,562,3207.66,560.95,3207.86,559Zm1.44-5.22c-0.1,2.3.65,3.39,2.32,3.4,1.25,0,2.37-1.4,2.49-3.15a3.17,3.17,0,0,0-2.54-3.5C3210.09,550.45,3209.4,551.44,3209.3,553.81Z" transform="translate(-2944.14 -451.62)"/><path class="cls-1" d="M3076.26,553.81c0,1.33.07,2.62,0,3.89a2.83,2.83,0,0,1-.9,1.06,2.75,2.75,0,0,1-.7-1.08c-0.05-3.94,0-7.88,0-12.33a78.78,78.78,0,0,1,8,1c1.65,0.36,1.73,2,1.61,3.52s-0.51,3-2.32,3.33S3078.32,553.59,3076.26,553.81Zm0-6.27c0,1.3-.06,2.33,0,3.36a1.4,1.4,0,0,0,.69,1,15.47,15.47,0,0,0,4.29-.6,2.57,2.57,0,0,0,.92-2.23,2.44,2.44,0,0,0-1.7-1.47A25.16,25.16,0,0,0,3076.25,547.54Z" transform="translate(-2944.14 -451.62)"/><path class="cls-1" d="M3200.25,555.53c-0.76,2.9-2.7,3.82-5.44,3.24-1.52-.32-2.77-2.24-2.81-4.31-0.09-4.44,2.53-6.45,6.4-4.9,1.12,0.45,2.73,3.28,2.35,4.39a1.63,1.63,0,0,1-1.26.61c-1.82.07-3.65,0-5.48,0l-0.37.53c0.67,0.74,1.24,1.87,2.05,2.09s1.81-.53,2.72-0.89C3199,556.08,3199.63,555.8,3200.25,555.53Zm-6.16-2.7h4.58c-0.13-1.9-1.27-2.22-2.67-2.18S3194.05,551.43,3194.09,552.83Z" transform="translate(-2944.14 -451.62)"/><path class="cls-1" d="M3114.12,554.63h-6.55a2,2,0,0,0,1.75,2.55,5.86,5.86,0,0,0,2.62-.67,19.92,19.92,0,0,0,2.22-1.21c-0.68,2.93-1.82,3.62-4.69,3.48a3.69,3.69,0,0,1-3.78-3.31,12.17,12.17,0,0,1,0-2.94c0.36-2.28,2-3.46,4.54-3.36a3.75,3.75,0,0,1,3.86,3.85C3114.15,553.44,3114.12,553.87,3114.12,554.63Zm-1.76-1.78c-0.36-1.69-1.27-2.34-2.64-2.24a2.18,2.18,0,0,0-2.12,2.24h4.76Z" transform="translate(-2944.14 -451.62)"/><path class="cls-1" d="M3164.83,554.56h-6.74l-0.42.55a9.14,9.14,0,0,0,1.81,2,2.15,2.15,0,0,0,2.94-.63,8.11,8.11,0,0,1,2.24-1.18c-0.78,3.06-2.46,3.94-5.58,3.47-2.08-.31-3.11-2.24-3-5.58a3.9,3.9,0,0,1,3.71-4C3163.21,549,3164.09,549.91,3164.83,554.56Zm-2.21-1.58c0.08-1.75-.72-2.35-2.21-2.34s-2.27.58-2.23,2.15a2.36,2.36,0,0,0,.58.19C3160,553,3161.19,553,3162.63,553Z" transform="translate(-2944.14 -451.62)"/><path class="cls-1" d="M3222.79,552.45l-1.63-.44c0.78-2.75,5.48-4,7.34-2a2.43,2.43,0,0,1,.43,1.5c0,2.25,0,4.5,0,6.79-1.67.14-3.71,0.43-5.75,0.42a2.32,2.32,0,0,1-2.33-2.4,2.38,2.38,0,0,1,1.93-2.74c1.11-.3,2.28-0.36,3.39-0.67a3.69,3.69,0,0,0,1.12-.94c-0.42-.47-0.78-1.27-1.26-1.34C3224.64,550.42,3223.16,550.44,3222.79,552.45Zm4.38,1.85a17.78,17.78,0,0,0-3.12.52,2.11,2.11,0,0,0-1.2,1.35,1.78,1.78,0,0,0,1.11,1.2C3225.82,557.94,3227.36,556.48,3227.17,554.3Z" transform="translate(-2944.14 -451.62)"/><path class="cls-1" d="M3145.18,553.81c0.09,3.48-1.08,4.9-4.14,5-2.82.09-4.52-1.4-4.62-4-0.13-3.63,1.22-5.48,4.08-5.57C3143.8,549.08,3145.09,550.36,3145.18,553.81Zm-1.72.1c0-2-.87-3.29-2.38-3.28-1.81,0-2.86,1.17-2.95,3.28-0.07,1.66,1.25,3.42,2.63,3.51C3142.31,557.52,3143.41,556.08,3143.47,553.9Z" transform="translate(-2944.14 -451.62)"/><path class="cls-1" d="M3123.79,556c0.91-.52,1.49-0.82,2.21.27a3.26,3.26,0,0,0,2.25,1c0.48,0,1-.69,1.53-1.08a5.58,5.58,0,0,0-1.28-1.29,12.13,12.13,0,0,0-2.6-.82c-1.85-.43-1.78-1.79-1.57-3.19s1.45-1.77,2.63-1.74c1.78,0,3.89-.39,4.35,2.37-0.73.57-1.27,1-2.11-.21-0.37-.56-1.71-0.52-2.62-0.62a1.28,1.28,0,0,0-.56,1,1.31,1.31,0,0,0,.77.85,28.23,28.23,0,0,0,2.84.79,2.43,2.43,0,0,1,2.08,2.83,3,3,0,0,1-2.7,2.62C3125.82,559,3124.83,558.54,3123.79,556Z" transform="translate(-2944.14 -451.62)"/><path class="cls-1" d="M3095.75,549.21c2.91,0,4.3,1.68,4.25,5,0,3-1.64,4.64-4.53,4.58s-4.39-1.63-4.34-4.74C3091.18,550.67,3092.62,549.17,3095.75,549.21Zm-2.74,4.55c0,2.22.94,3.65,2.48,3.66s2.72-1.38,2.72-3.48-1-3.25-2.67-3.32C3094,550.57,3093,551.82,3093,553.76Z" transform="translate(-2944.14 -451.62)"/><path class="cls-1" d="M3122.76,552.24a6,6,0,0,1-2-.86c-1-1.16-2.08-.81-3.18-0.53a1,1,0,0,0-.43.88,1.17,1.17,0,0,0,.67.77c1,0.34,2,.55,3,0.85a2.59,2.59,0,0,1,2,3.22c-0.42,1.69-1.69,2.26-3.36,2.25-2.58,0-3.93-.65-4.19-2.17a2.46,2.46,0,0,1,.4-1,2.84,2.84,0,0,1,1.31.58,2.15,2.15,0,0,0,3,1,4.07,4.07,0,0,0,1.16-1.23,4.68,4.68,0,0,0-1.18-1c-1-.4-2.16-0.54-3.16-1a2.42,2.42,0,0,1-.57-4.11C3118.17,548.18,3121.75,549.13,3122.76,552.24Z" transform="translate(-2944.14 -451.62)"/><path class="cls-1" d="M3146.92,553.95c-0.05-1.17-.18-2.34-0.12-3.5a1.47,1.47,0,0,1,.75-1.13c1.34-.15,2.7-0.07,4-0.15,1.9-.11,2.75,1,2.85,2.63,0.12,2,.09,4.06,0,6.08a2.43,2.43,0,0,1-.86.92,2.67,2.67,0,0,1-.75-1c-0.07-1.47.06-3,0-4.42s-0.24-2.82-2-2.74c-1.55.07-2.36,1.16-2.34,2.77,0,1.41.07,2.83,0,4.24a0.88,0.88,0,1,1-1.66,0c-0.11-1.22,0-2.46,0-3.69h0.12Z" transform="translate(-2944.14 -451.62)"/><path class="cls-1" d="M3182.65,554c0-1.17-.05-2.34,0-3.51a1.48,1.48,0,0,1,.59-1.11,40.25,40.25,0,0,1,4.53-.24,2.33,2.33,0,0,1,2.53,2.38c0.12,2.08.1,4.18,0,6.27a2.49,2.49,0,0,1-.82,1,2.55,2.55,0,0,1-.82-1c-0.07-1.6,0-3.2,0-4.8,0-1.13-.26-2.14-1.58-2.33a2,2,0,0,0-2.52,1.78c-0.19,1.64-.15,3.3-0.34,4.94a4.11,4.11,0,0,1-.79,1.37,4.51,4.51,0,0,1-.72-1.42c-0.11-1.1,0-2.21,0-3.32h-0.08Z" transform="translate(-2944.14 -451.62)"/><path class="cls-1" d="M3101.86,551.19l-1.54-1.23,1.45-1.16c0.49-3.38.49-3.38,4.29-3.24l-0.14,1.83a2.8,2.8,0,0,0-1.33-.22,2.84,2.84,0,0,0-1,1.28,2.29,2.29,0,0,0,.86.85,8.73,8.73,0,0,0,1.1.59,6.8,6.8,0,0,0-1.15.76,2.41,2.41,0,0,0-.87,1.24c-0.07,1.91.06,3.82,0,5.73a0.88,0.88,0,1,1-1.66.06c-0.09-1.1,0-2.22,0-3.33S3101.86,552.15,3101.86,551.19Z" transform="translate(-2944.14 -451.62)"/><path class="cls-1" d="M3085.89,554a7.21,7.21,0,0,1-.06-0.92c0.07-1.19-.27-2.95.36-3.44,0.86-.67,2.47-0.45,3.76-0.45a0.87,0.87,0,1,1-.09,1.7c-1.65-.17-2,0.88-2.1,2.11-0.08,1.53.06,3.08,0,4.62a0.93,0.93,0,1,1-1.84.08,35,35,0,0,1,0-3.69h0Z" transform="translate(-2944.14 -451.62)"/><path class="cls-1" d="M3202.08,554c0-.37,0-0.74,0-1.11,0-3.8,0-3.83,3.74-3.68a1.65,1.65,0,0,1,1.27.84c0.06,0.77-.37,1-1.32.86-1.37-.19-1.84,1-1.89,2.16-0.07,1.47,0,3-.08,4.42a3.59,3.59,0,0,1-.85,1.32,3.7,3.7,0,0,1-.83-1.31A33.24,33.24,0,0,1,3202.08,554Z" transform="translate(-2944.14 -451.62)"/><path class="cls-1" d="M3219.28,554.28c0,1.16.06,2.32,0,3.48a0.84,0.84,0,1,1-1.63,0c-0.09-2.45-.09-4.9,0-7.35a2.6,2.6,0,0,1,.78-1,2.86,2.86,0,0,1,.91,1.07c0.12,1.28,0,2.57,0,3.86h0Z" transform="translate(-2944.14 -451.62)"/><path class="cls-1" d="M3134.89,554.09c0,1.23,0,2.47,0,3.69a2.33,2.33,0,0,1-.66.89,2.41,2.41,0,0,1-.86-0.9q-0.13-3.69,0-7.38a2.57,2.57,0,0,1,.81-1,2.68,2.68,0,0,1,.78,1c0.1,1.22,0,2.46,0,3.69h0Z" transform="translate(-2944.14 -451.62)"/><path class="cls-1" d="M3218.38,548.5a6.31,6.31,0,0,1-.84-2,2.66,2.66,0,0,1,.94-1,3.88,3.88,0,0,1,.79,1.31C3219.32,547.14,3218.89,547.57,3218.38,548.5Z" transform="translate(-2944.14 -451.62)"/><path class="cls-1" d="M3135.35,546.49l-1.22,1.25a3.5,3.5,0,0,1-.89-1.17,1.19,1.19,0,0,1,.74-0.93A3.64,3.64,0,0,1,3135.35,546.49Z" transform="translate(-2944.14 -451.62)"/><path class="cls-2" d="M3192.27,498q0,2.86,0,5.72c0,0.91-.32,1.24-1.33,1.24-4.18-.05-8.36,0-12.55,0-1.13,0-1.52-.32-1.44-1.49a51.26,51.26,0,0,0,0-5.34,1.12,1.12,0,0,1,1.38-1.39c2.15,0.05,4.3,0,6.45,0v0c2,0,4.06.05,6.09,0C3191.81,496.77,3192.27,497,3192.27,498Z" transform="translate(-2944.14 -451.62)"/><path class="cls-2" d="M3214.11,554.06c-0.13,1.75-1.24,3.17-2.5,3.16-1.67,0-2.42-1.11-2.32-3.41s0.79-3.36,2.27-3.25A3.18,3.18,0,0,1,3214.11,554.06Z" transform="translate(-2944.14 -451.62)"/><path class="cls-2" d="M3081.27,551.32a15.56,15.56,0,0,1-4.3.6,1.42,1.42,0,0,1-.69-1c-0.1-1,0-2.06,0-3.36a24.71,24.71,0,0,1,4.23.07,2.44,2.44,0,0,1,1.7,1.47A2.56,2.56,0,0,1,3081.27,551.32Z" transform="translate(-2944.14 -451.62)"/><path class="cls-2" d="M3198.67,552.84h-4.59c0-1.42.58-2.14,1.92-2.18S3198.54,550.93,3198.67,552.84Z" transform="translate(-2944.14 -451.62)"/><path class="cls-2" d="M3112.37,552.85h-4.76a2.17,2.17,0,0,1,2.11-2.25C3111.1,550.51,3112,551.16,3112.37,552.85Z" transform="translate(-2944.14 -451.62)"/><path class="cls-2" d="M3162.63,553c-1.44,0-2.65,0-3.86,0a2.34,2.34,0,0,1-.59-0.19c0-1.56.79-2.13,2.24-2.15S3162.7,551.22,3162.63,553Z" transform="translate(-2944.14 -451.62)"/><path class="cls-2" d="M3227.17,554.3c0.19,2.18-1.35,3.63-3.21,3.07a1.78,1.78,0,0,1-1.11-1.2,2.11,2.11,0,0,1,1.2-1.35A17.78,17.78,0,0,1,3227.17,554.3Z" transform="translate(-2944.14 -451.62)"/><path class="cls-2" d="M3143.47,553.9c-0.05,2.18-1.16,3.61-2.71,3.52-1.38-.09-2.7-1.86-2.63-3.51,0.09-2.12,1.14-3.28,2.95-3.28C3142.59,550.62,3143.51,551.88,3143.47,553.9Z" transform="translate(-2944.14 -451.62)"/><path class="cls-2" d="M3098.2,553.94c0,2.1-1.08,3.5-2.71,3.48s-2.5-1.44-2.48-3.67c0-1.94,1-3.19,2.53-3.13C3097.19,550.7,3098.2,552,3098.2,553.94Z" transform="translate(-2944.14 -451.62)"/></g><path class="cls-1" d="M2981.29,534.45l-3,.85a2,2,0,0,0,.35.52,2.94,2.94,0,0,1,.68,3.78,3.17,3.17,0,0,1-3.57,1.8,3.36,3.36,0,0,1-2.66-2.94,3.24,3.24,0,0,1,2-3.37,9.74,9.74,0,0,1,1.7-.25,7.31,7.31,0,0,0-.65-0.73,3.21,3.21,0,0,1-1.16-2.38,3,3,0,0,0-.15-0.59,1.87,1.87,0,0,0-.6.29,3.41,3.41,0,1,1-2.82-5.83,2.58,2.58,0,0,0,.51-0.17,1.91,1.91,0,0,0-.29-0.5,3.25,3.25,0,0,1-1.13-2.47,2,2,0,0,0-.15-0.52,1.83,1.83,0,0,0-.55.23,3.26,3.26,0,0,1-4.55.21,3.45,3.45,0,0,1-.65-4.32,3.24,3.24,0,0,1,2.82-1.58,2.67,2.67,0,0,0,.79-0.1,3.73,3.73,0,0,1-1.81-4.14c0.42-1.81,1.7-2.63,3.57-2.83a11.43,11.43,0,0,1-1.2-1.9,12.19,12.19,0,0,1-.38-2.34,3.26,3.26,0,0,1-4.14,1.61,3.34,3.34,0,0,1-1.67-1.57,3,3,0,0,1,1.63-4.29,3.35,3.35,0,0,1,3.34.53,3.29,3.29,0,0,1,1,3.14l0.19,0a4,4,0,0,0,.54-0.6,3.07,3.07,0,0,1,2.16-1.4c0.69-.15.76-0.3,0.32-0.82a3.11,3.11,0,0,1-.83-2.58,3.33,3.33,0,0,0,0-.57,2.08,2.08,0,0,0-.61.41,3.12,3.12,0,0,1-3.34,1.08,3.07,3.07,0,0,1-2.33-2.78,3.13,3.13,0,0,1,1.85-3.21A3.2,3.2,0,0,1,2971,497c0,0.18,0,.36.09,0.65a1.78,1.78,0,0,0,.45-0.32,3.58,3.58,0,0,1,2.62-1.58,1.73,1.73,0,0,0,.43-0.2,1.92,1.92,0,0,0-.25-0.47,3.36,3.36,0,0,1-.6-4,3.26,3.26,0,0,1,3-2.05,1.81,1.81,0,0,0,.55-0.22,1.94,1.94,0,0,0-.31-0.53,3.32,3.32,0,0,1-.66-4.13,3.43,3.43,0,0,1,3.87-1.62,3.17,3.17,0,0,1,2.55,2.6c0.08,0.43.33,0.39,0.64,0.24,0.71-.36,1.42-0.74,2.15-1.07,0.42-.19.39-0.42,0.19-0.73a3.49,3.49,0,0,1,1.47-5.41,3.74,3.74,0,0,1,4.8,2.2c0.24,0.83.24,0.75,0.94,0.3a12.07,12.07,0,0,1,1.82-.79,0.83,0.83,0,0,0,.44-0.26,0.65,0.65,0,0,0-.2-0.47,3.53,3.53,0,0,1,0-4.33,3.59,3.59,0,0,1,4.1-1,3.18,3.18,0,0,1,2.11,2.83c0,0.36.19,0.71,0.56,0.31a3.61,3.61,0,0,1,3.23-1.21,0.41,0.41,0,0,0,.21,0,0.8,0.8,0,0,0,.15-0.17c-1.78-1.31-2.21-3-.93-4.83,0.94-1.36,2.36-1.59,4-.89a3.22,3.22,0,0,1,.54,5.39,14,14,0,0,1-2.47.87,3.39,3.39,0,0,1,.5.52,18.66,18.66,0,0,1,1.15,1.84c0.16,0.3.28,0.7,0.62,0.45a4.54,4.54,0,0,1,3-1c-1.43-1.5-1.93-3-.87-4.63a3.85,3.85,0,0,1,1.68-1.36,3.34,3.34,0,0,1,4.34,2.09,2.6,2.6,0,0,1-.08,2,5.49,5.49,0,0,1-1.19,1.72,7.33,7.33,0,0,1-2,.78,5.94,5.94,0,0,1,.45.57,8.78,8.78,0,0,1,.91,1.59c0.2,0.56.4,0.59,0.89,0.34s1.23-.49,1.85-0.73a0.9,0.9,0,0,0,.47-0.22,0.64,0.64,0,0,0-.19-0.49c-1.2-1.32-1-2.71-.21-4.11a3.3,3.3,0,0,1,3.48-1.32,3.37,3.37,0,0,1,2.61,2.91,3.25,3.25,0,0,1-2.59,3.55,2.37,2.37,0,0,0-.66.33c0.12,0.19.25,0.38,0.35,0.57,0.32,0.6.66,1.19,0.92,1.81,0.12,0.29.18,0.6,0.56,0.42s0.94-.58,1.45-0.76a11.13,11.13,0,0,1,1.74-.3c-1.67-1.38-2.08-3-1-4.71a3.58,3.58,0,0,1,1.76-1.27,3.22,3.22,0,0,1,3.44,5.13,3.57,3.57,0,0,1-3.14,1.21,6.18,6.18,0,0,0,.58.6,3.45,3.45,0,0,1,1.32,2.39,4.6,4.6,0,0,0,.18.58,2.65,2.65,0,0,0,.58-0.3,3.38,3.38,0,0,1,4.07-.41,3.3,3.3,0,0,1,1.73,3.57,3.37,3.37,0,0,1-2.45,2.82c-0.71.2-.68,0.32-0.27,0.91a6.54,6.54,0,0,1,.81,1.73c0.16,0.5.32,0.68,0.78,0.33a3.63,3.63,0,0,1,4.52.17,3.6,3.6,0,0,1-1.41,6.15c-0.55.15-.55,0.34-0.29,0.8a12.6,12.6,0,0,1,.87,1.93c0.15,0.4.33,0.53,0.67,0.26a3.34,3.34,0,0,1,3.9-.28,3,3,0,0,1,1.75,2.91,3.18,3.18,0,0,1-1.77,3.07,15,15,0,0,1-2.07.65,3.8,3.8,0,0,1,1.49,4.09,3.6,3.6,0,0,1-3.55,2.72,4.81,4.81,0,0,1,1.43,3.87c1.81-2,3.65-2.23,5.53-.37a3.12,3.12,0,0,1,.32,3.57,3,3,0,0,1-3.25,1.59c-1.85-.35-2.55-1.21-2.9-3.65a2,2,0,0,0-.55.4,3.08,3.08,0,0,1-2.17,1.38c-0.44.08-.67,0.29-0.33,0.67a3.24,3.24,0,0,1,.82,2.79,2,2,0,0,0,.1.48,6.6,6.6,0,0,0,.67-0.58,3.21,3.21,0,0,1,4.86,4.19,3.24,3.24,0,0,1-4.52.37,2.87,2.87,0,0,1-1.14-2.44,4,4,0,0,0-.09-0.67,3.16,3.16,0,0,0-.47.44,3.43,3.43,0,0,1-2.64,1.53c-0.47.05-.55,0.29-0.25,0.61a3.59,3.59,0,0,1-2.94,6.05,2.16,2.16,0,0,0-.42.09,5.1,5.1,0,0,0,.59.65,3.07,3.07,0,0,1,1,3.56,3,3,0,0,1-2.34,2.21,3.22,3.22,0,0,1-4.15-2.82,0.56,0.56,0,0,0-.18-0.42,0.63,0.63,0,0,0-.5.16,3.89,3.89,0,0,1-2.5,1.27c-0.65.1-.41,0.45-0.11,0.73,1.44,1.38.91,4.09-.66,5.1a3.47,3.47,0,0,1-5.36-2.44,1,1,0,0,0-.21-0.48,0.47,0.47,0,0,0-.37.12,3.67,3.67,0,0,1-3.1,1.36,1.09,1.09,0,0,0-.26.17c1.41,1.25,2,2.77,1,4.5a3,3,0,0,1-2,1.49,3.28,3.28,0,0,1-3.34-5.33,3.54,3.54,0,0,1,2.78-1.2,1.15,1.15,0,0,0-.17-0.43,4,4,0,0,1-1.4-2,0.62,0.62,0,0,0-.56-0.16c-0.64.23-1.25,0.57-1.9,0.78s-0.41.48-.19,0.75a3.2,3.2,0,0,1,.57,2.64,3.51,3.51,0,0,1-7-.54,2,2,0,0,0-.15-0.45,5.7,5.7,0,0,0-.56.49c-1.56,1.8-5.24,1.16-6-1.19-0.1-.32-0.12-0.66-0.19-1a0.69,0.69,0,0,0-.19-0.41,0.93,0.93,0,0,0-.5.17,8.06,8.06,0,0,1-1.84,1,3.6,3.6,0,0,1-4.33-3.3,1.71,1.71,0,0,0-.18-0.5,2,2,0,0,0-.46.27,3.5,3.5,0,1,1-5.12-4.78,4.85,4.85,0,0,1,1.65-.94c0.38-.15.54-0.23,0.29-0.64C2982.12,535.87,2981.71,535.15,2981.29,534.45Zm-12.19-17.77a1.43,1.43,0,0,0,.09.23,0.57,0.57,0,0,0,.18.22,2.71,2.71,0,0,1,1.41,2.42,0.47,0.47,0,0,0,.25.36,0.61,0.61,0,0,0,.43-0.19,8.68,8.68,0,0,1,.71-0.69,3,3,0,0,0,1.12-.66,2.57,2.57,0,0,0-.48-1.25,2.43,2.43,0,0,0-.55-1.16,3.24,3.24,0,0,0-1.2.41C2970.43,516.52,2969.78,516.58,2969.11,516.68Zm60.37,21.2a0.47,0.47,0,0,0,0-.19,4.77,4.77,0,0,1-1.76-2.29,0.63,0.63,0,0,0-.52-0.07c-0.58.26-1.14,0.59-1.72,0.86a0.42,0.42,0,0,0-.23.67c0.24,0.56.41,1.15,0.61,1.73a0.83,0.83,0,0,0,.2.41,0.75,0.75,0,0,0,.49-0.19,3,3,0,0,1,2.49-.87A2,2,0,0,0,3029.48,537.88Zm-52.84-12.43-2,.5a0.72,0.72,0,0,0-.42.18,0.64,0.64,0,0,0,.15.5,2.71,2.71,0,0,1,.92,2.1,0.43,0.43,0,0,0,.17.35,0.47,0.47,0,0,0,.38-0.09c0.55-.4,1.11-0.79,1.63-1.24a0.64,0.64,0,0,0,.12-0.58,13.64,13.64,0,0,0-.73-1.46A1,1,0,0,0,2976.63,525.45Zm40.14,18a2.18,2.18,0,0,0,.54-0.31,2.65,2.65,0,0,1,1.85-.83,0.56,0.56,0,0,0,.41-0.19,0.89,0.89,0,0,0-.18-0.5c-0.29-.43-0.61-0.84-0.89-1.28s-0.37-.48-0.75-0.27-0.91.41-1.34,0.67a0.74,0.74,0,0,0-.37.52C3016.23,542,3016.5,542.66,3016.77,543.45Zm-33.93-52.84c-0.19-.67-0.38-1.2-0.49-1.75s-0.35-.63-0.77-0.3a2.69,2.69,0,0,1-2,.68,0.52,0.52,0,0,0-.36.14,1.08,1.08,0,0,0,.16.5c0.34,0.51.73,1,1,1.51s0.41,0.44.78,0.18,0.84-.43,1.25-0.67A2.16,2.16,0,0,0,2982.84,490.61Zm17.81,54.92a0.15,0.15,0,0,0,.12,0c0.69-.4,1.39-0.78,2-1.22a0.71,0.71,0,0,0,.11-0.66,4.72,4.72,0,0,0-.76-1.18,0.9,0.9,0,0,0-.73-0.26,6.81,6.81,0,0,0-1.44.57,0.53,0.53,0,0,0-.21.47C3000,544,3000.33,544.71,3000.66,545.53Zm-13.85-4.8c0.74-.45,1.46-0.86,2.13-1.32a0.67,0.67,0,0,0,0-.59c-0.17-.39-0.43-0.74-0.62-1.11s-0.41-.58-0.85-0.33a2.87,2.87,0,0,1-.6.22c-1.14.34-1.11,0.32-.61,1.38A11.52,11.52,0,0,1,2986.81,540.74Zm51.83-30.53a0.14,0.14,0,0,0,0-.1,4.85,4.85,0,0,1-1.33-2.25,0.77,0.77,0,0,0-.56,0c-0.42.22-.79,0.53-1.2,0.76a0.48,0.48,0,0,0-.24.75c0.22,0.45.39,0.92,0.62,1.36a0.56,0.56,0,0,0,.38.29C3037.08,510.77,3037.85,510.49,3038.64,510.21Zm-37.9-31a9.25,9.25,0,0,1-1,.77c-0.39.22-.85,0.31-1.24,0.53a0.61,0.61,0,0,0,0,.56,3,3,0,0,0,1,1.38,3.35,3.35,0,0,0,1.61-.56,0.46,0.46,0,0,0,.2-0.07,0.82,0.82,0,0,0,.21-0.46C3001.26,480.7,3001,480,3000.74,479.24Zm-6.95,63.87c0.41-.31.81-0.64,1.23-0.93a2.28,2.28,0,0,0,.85-0.53,2.21,2.21,0,0,0-.47-1,1.69,1.69,0,0,1-.08-0.2c-0.22-.58-0.49-0.93-1.16-0.44a7.18,7.18,0,0,1-.88.29,0.69,0.69,0,0,0-.36.49C2993.18,541.57,2993.48,542.3,2993.79,543.12ZM3028.23,489a7,7,0,0,0-1.78,1.2c-0.53.65,0.52,1.09,0.59,1.75a0.91,0.91,0,0,0,.69.22,4.19,4.19,0,0,0,1.21-.4,0.63,0.63,0,0,0,.29-0.52C3028.94,490.49,3028.59,489.78,3028.23,489Zm-52.91,22.14c-0.11-.22-0.23-0.43-0.33-0.64-0.5-1-.5-1-1.6-0.69-0.37.12-.76,0.2-1.14,0.3l0.66,1.05a2.69,2.69,0,0,0,.7,1.1,3.25,3.25,0,0,0,1.31-.65,0.78,0.78,0,0,0,.23-0.16A1.88,1.88,0,0,0,2975.32,511.11Zm55.89,19.48-0.35-.44a4.9,4.9,0,0,1-.53-0.67c-0.42-.78-0.44-0.8-1.21-0.29a2.75,2.75,0,0,0-.31.17,1.67,1.67,0,0,0-.63.63,7.34,7.34,0,0,0,.62,1.55,0.47,0.47,0,0,0,.33,0c0.58-.2,1.16-0.41,1.73-0.63A1.53,1.53,0,0,0,3031.21,530.59Zm-52.8-32.21a13.69,13.69,0,0,0,1.26-.7,0.73,0.73,0,0,0,.32-0.53,11.7,11.7,0,0,0-.76-1.45,0.64,0.64,0,0,0-.26.06c-0.47.15-.94,0.31-1.4,0.48a1.53,1.53,0,0,0-.33.21C2977.61,497.08,2978,497.73,2978.41,498.38Zm13.47-12.59c-0.14-.45-0.3-0.85-0.39-1.26s-0.28-.47-0.65-0.26a8,8,0,0,1-1.34.61c-0.45.16-.5,0.39-0.26,0.75,0.86,1.29.87,1.29,2.26,0.58a0.54,0.54,0,0,0,.19-0.1A2.65,2.65,0,0,0,2991.88,485.79Zm40.68,12.71c-0.55.45-1,.81-1.45,1.21a0.52,0.52,0,0,0,0,.4,2.27,2.27,0,0,0,.59,1.09A2.56,2.56,0,0,0,3033,501l0.28,0c0.43-.06.53-0.22,0.28-0.62s-0.43-.88-0.65-1.32A5.57,5.57,0,0,0,3032.56,498.5ZM3036,517c-0.16-.25-0.26-0.41-0.36-0.57s-0.31-.42-0.47-0.62a3,3,0,0,0-.56-0.65,2.4,2.4,0,0,0-1.26.91,3,3,0,0,0,.56,1.53,0.65,0.65,0,0,0,.39,0c0.41-.11.81-0.22,1.21-0.35A4.57,4.57,0,0,0,3036,517Zm-58.41-12.82a6.75,6.75,0,0,0-.66-1.36,2,2,0,0,0-.9.16l-0.42.11c-0.31.07-.74,0-0.63,0.56a3.2,3.2,0,0,0,1.36,1.44l0.06,0c0.29-.17.58-0.33,0.86-0.51A1.92,1.92,0,0,0,2977.54,504.16ZM3032.2,522l-0.91.52a0.65,0.65,0,0,0-.33,1c0.28,1,.7,1,1.46.6a1.34,1.34,0,0,1,.42-0.09c0.49-.09.62-0.31,0.29-0.73s-0.4-.59-0.6-0.88C3032.43,522.29,3032.32,522.18,3032.2,522ZM3022,488.69c-0.22-.55-0.41-1-0.61-1.52a0.24,0.24,0,0,0-.17-0.11,4.36,4.36,0,0,0-1.34,1,1.5,1.5,0,0,0,.73,1.15,2.45,2.45,0,0,0,1.31-.39A0.3,0.3,0,0,0,3022,488.69Zm-13.78-5-0.93-1.47-1.51,1.07a3,3,0,0,0,1,1A3.24,3.24,0,0,0,3008.2,483.74Zm-25.12,44.6a4.15,4.15,0,0,0-1.13.86,6.22,6.22,0,0,0,.82,1.44,2.76,2.76,0,0,0,1-1A3.08,3.08,0,0,0,2983.08,528.33Zm31.72-42.56-0.69-1-1.18,1a3,3,0,0,0,1,.88A0.77,0.77,0,0,0,3014.81,485.78Zm-4.51,54.63a8.84,8.84,0,0,0,1.39-1,1.45,1.45,0,0,0-.38-0.81,0.71,0.71,0,0,0-.63-0.22,1.54,1.54,0,0,0-.78.77A3,3,0,0,0,3010.29,540.4Zm-30.91-20a5,5,0,0,0-1.14-1,2,2,0,0,0-.88.52,8.38,8.38,0,0,0,.94,1.25A6.31,6.31,0,0,0,2979.38,520.42Zm41,13.35a4.61,4.61,0,0,0-1,1.08,1.22,1.22,0,0,0,.56.76,5.93,5.93,0,0,0,1.23-.71ZM2989,492.4a2.38,2.38,0,0,0-.9-0.6,0.89,0.89,0,0,0-.64.58,0.83,0.83,0,0,0,.54.62A2.86,2.86,0,0,0,2989,492.4Zm41.78,14.72a2.37,2.37,0,0,0-.85-0.7,0.9,0.9,0,0,0-.59.62,0.82,0.82,0,0,0,.56.56A2.21,2.21,0,0,0,3030.8,507.13Zm-33.15-20a2.61,2.61,0,0,0-.65.8,0.72,0.72,0,0,0,.5.5,0.75,0.75,0,0,0,.56-0.46A2.08,2.08,0,0,0,2997.66,487.1Zm27.75,11.35a2,2,0,0,0,.5-0.78,0.54,0.54,0,0,0-1.07-.07A2.39,2.39,0,0,0,3025.41,498.45Zm-20.87,38.35a1.89,1.89,0,0,0-.74-0.44,2,2,0,0,0-.57.59,1.28,1.28,0,0,0,.56.4A2.36,2.36,0,0,0,3004.53,536.8Zm-14.74-5.57a2,2,0,0,0-.45.77,0.7,0.7,0,0,0,.48.47,0.66,0.66,0,0,0,.49-0.45A2.28,2.28,0,0,0,2989.79,531.23Zm-8.41-18.08a1.55,1.55,0,0,0-.55-0.36,2,2,0,0,0-.51.39,0.84,0.84,0,0,0,.32.3A3.14,3.14,0,0,0,2981.38,513.15Zm41.3,15.21a1.55,1.55,0,0,0,.33-0.54,1.28,1.28,0,0,0-.45-0.44,0.63,0.63,0,0,0-.29.3A3.35,3.35,0,0,0,3022.68,528.35Zm-25.85,5.5a1.56,1.56,0,0,0-.42.57,0.63,0.63,0,0,0,.39.4,0.53,0.53,0,0,0,.35-0.34A1.71,1.71,0,0,0,2996.83,533.86Z" transform="translate(-2944.14 -451.62)"/><path class="cls-1" d="M3042,491.3a3.17,3.17,0,0,1-3.08,3.22,3.29,3.29,0,0,1-3.4-3A3.24,3.24,0,0,1,3042,491.3Z" transform="translate(-2944.14 -451.62)"/><path class="cls-1" d="M2991,471.48a3.15,3.15,0,0,1,3.19,3.11,3.07,3.07,0,0,1-3.09,3.26c-2-.15-3.26-1.2-3.3-3.18A3.16,3.16,0,0,1,2991,471.48Z" transform="translate(-2944.14 -451.62)"/><path class="cls-1" d="M3043.14,497.38a3.12,3.12,0,0,1,3.25,3,3.17,3.17,0,0,1-3.11,3.28c-1.83-.09-3.27-1.15-3.3-3A3.05,3.05,0,0,1,3043.14,497.38Z" transform="translate(-2944.14 -451.62)"/><path class="cls-1" d="M2978.65,479.05a3.14,3.14,0,0,1,3.21-3.09,3.07,3.07,0,0,1,3.13,3A3.17,3.17,0,1,1,2978.65,479.05Z" transform="translate(-2944.14 -451.62)"/><path class="cls-1" d="M3048.38,516.46a3.09,3.09,0,0,1-3.14,3.14,3.18,3.18,0,0,1-3.15-3A3.15,3.15,0,1,1,3048.38,516.46Z" transform="translate(-2944.14 -451.62)"/><path class="cls-1" d="M2967.13,490.3a3.05,3.05,0,0,1,3-3.15,3.1,3.1,0,0,1,3.26,3,3.17,3.17,0,0,1-3.15,3.31A3.09,3.09,0,0,1,2967.13,490.3Z" transform="translate(-2944.14 -451.62)"/><path class="cls-1" d="M3035,537a3,3,0,0,1,3-3.18,3,3,0,0,1,3.06,3,3,3,0,0,1-3,3.11A2.9,2.9,0,0,1,3035,537Z" transform="translate(-2944.14 -451.62)"/><path class="cls-1" d="M2987.59,552.72a3,3,0,0,1-.2-6.05,3,3,0,0,1,3.27,3A3,3,0,0,1,2987.59,552.72Z" transform="translate(-2944.14 -451.62)"/><path class="cls-1" d="M2997.49,552a3.08,3.08,0,0,1-3,3.16,3,3,0,0,1-3.08-2.95,2.94,2.94,0,0,1,2.88-3.17C2996,549.11,2997.53,550.16,2997.49,552Z" transform="translate(-2944.14 -451.62)"/><path class="cls-1" d="M2963.09,513.67a3,3,0,1,1-.14-6A3,3,0,1,1,2963.09,513.67Z" transform="translate(-2944.14 -451.62)"/><path class="cls-1" d="M3034.27,479.21a2.91,2.91,0,0,1,3.06,2.92,3,3,0,0,1-3,3.07A3,3,0,1,1,3034.27,479.21Z" transform="translate(-2944.14 -451.62)"/><path class="cls-1" d="M3029.44,548a3,3,0,0,1-6,0,3,3,0,0,1,3-3A2.9,2.9,0,0,1,3029.44,548Z" transform="translate(-2944.14 -451.62)"/><path class="cls-1" d="M2962.1,526.61a3,3,0,0,1,6,0A3,3,0,1,1,2962.1,526.61Z" transform="translate(-2944.14 -451.62)"/><path class="cls-1" d="M3000.3,473.26a3,3,0,1,1-.1-6A3,3,0,1,1,3000.3,473.26Z" transform="translate(-2944.14 -451.62)"/><path class="cls-1" d="M3014.28,552.49a2.82,2.82,0,0,1,2.9-3,2.94,2.94,0,1,1,.16,5.88A2.91,2.91,0,0,1,3014.28,552.49Z" transform="translate(-2944.14 -451.62)"/><path class="cls-1" d="M2972.45,535.77a2.87,2.87,0,0,1-2.92,3,3,3,0,0,1-3-2.92,2.94,2.94,0,0,1,2.92-3A2.9,2.9,0,0,1,2972.45,535.77Z" transform="translate(-2944.14 -451.62)"/><path class="cls-1" d="M2998.3,554.41a2.95,2.95,0,0,1,5.9.09,3,3,0,0,1-3,2.93A2.91,2.91,0,0,1,2998.3,554.41Z" transform="translate(-2944.14 -451.62)"/><path class="cls-1" d="M2980.75,550.23a2.91,2.91,0,1,1,3-2.9A2.83,2.83,0,0,1,2980.75,550.23Z" transform="translate(-2944.14 -451.62)"/><path class="cls-1" d="M3047.56,512.53a2.9,2.9,0,0,1-2.93-2.89A3,3,0,1,1,3047.56,512.53Z" transform="translate(-2944.14 -451.62)"/><path class="cls-1" d="M2972.5,480.56a2.94,2.94,0,0,1,3.06,2.8,3,3,0,0,1-2.88,3.07,3,3,0,0,1-3-2.91A2.89,2.89,0,0,1,2972.5,480.56Z" transform="translate(-2944.14 -451.62)"/><path class="cls-1" d="M3032.87,543.6a2.68,2.68,0,0,1,2.7-2.75,2.85,2.85,0,0,1,2.94,2.81,3,3,0,0,1-2.88,2.83A2.82,2.82,0,0,1,3032.87,543.6Z" transform="translate(-2944.14 -451.62)"/><path class="cls-1" d="M2960.57,514.71a2.77,2.77,0,0,1,2.88,2.69,2.8,2.8,0,0,1-2.72,2.86,2.84,2.84,0,0,1-2.88-2.72A2.72,2.72,0,0,1,2960.57,514.71Z" transform="translate(-2944.14 -451.62)"/><path class="cls-1" d="M3045.62,496.45a2.75,2.75,0,0,1-.19-5.5,2.83,2.83,0,0,1,2.92,2.67A2.79,2.79,0,0,1,3045.62,496.45Z" transform="translate(-2944.14 -451.62)"/><path class="cls-1" d="M2984.2,469.61a2.71,2.71,0,1,1,0,5.42,2.72,2.72,0,0,1-2.7-2.78A2.58,2.58,0,0,1,2984.2,469.61Z" transform="translate(-2944.14 -451.62)"/><path class="cls-1" d="M3010.76,556.75a2.69,2.69,0,0,1-2.75,2.79,2.72,2.72,0,0,1-2.72-2.62,2.76,2.76,0,0,1,2.62-2.8A2.73,2.73,0,0,1,3010.76,556.75Z" transform="translate(-2944.14 -451.62)"/><path class="cls-1" d="M2973.87,542.28a2.66,2.66,0,1,1,.13,5.31,2.66,2.66,0,0,1-2.78-2.59A2.63,2.63,0,0,1,2973.87,542.28Z" transform="translate(-2944.14 -451.62)"/><path class="cls-1" d="M3013.57,468.24a2.64,2.64,0,0,1,2.64-2.65,2.74,2.74,0,0,1,2.78,2.63A2.71,2.71,0,1,1,3013.57,468.24Z" transform="translate(-2944.14 -451.62)"/><path class="cls-1" d="M3023.09,473.26a2.63,2.63,0,0,1-2.7-2.73,2.6,2.6,0,0,1,2.73-2.55,2.71,2.71,0,0,1,2.7,2.62A2.65,2.65,0,0,1,3023.09,473.26Z" transform="translate(-2944.14 -451.62)"/><path class="cls-1" d="M3038.52,484.59a2.63,2.63,0,0,1,2.51-2.69,2.78,2.78,0,0,1,2.8,2.61,2.73,2.73,0,0,1-2.68,2.72A2.58,2.58,0,0,1,3038.52,484.59Z" transform="translate(-2944.14 -451.62)"/><path class="cls-1" d="M2993.37,470.55a2.75,2.75,0,0,1-2.64-2.68,2.66,2.66,0,0,1,2.64-2.57,2.6,2.6,0,0,1,2.71,2.56A2.76,2.76,0,0,1,2993.37,470.55Z" transform="translate(-2944.14 -451.62)"/><path class="cls-1" d="M3050,500.37a2.36,2.36,0,0,1,2.55,2.63,2.52,2.52,0,0,1-2.56,2.53,2.57,2.57,0,0,1-2.57-2.63A2.41,2.41,0,0,1,3050,500.37Z" transform="translate(-2944.14 -451.62)"/><path class="cls-1" d="M2975,479.25a2.53,2.53,0,0,1-2.61-2.47,2.58,2.58,0,1,1,5.17,0A2.48,2.48,0,0,1,2975,479.25Z" transform="translate(-2944.14 -451.62)"/><path class="cls-1" d="M3012,465.9a2.61,2.61,0,0,1-2.63,2.5,2.53,2.53,0,0,1,0-5.06A2.57,2.57,0,0,1,3012,465.9Z" transform="translate(-2944.14 -451.62)"/><path class="cls-1" d="M3029.93,470.55a2.45,2.45,0,0,1,2.55,2.52,2.48,2.48,0,0,1-2.66,2.42A2.47,2.47,0,1,1,3029.93,470.55Z" transform="translate(-2944.14 -451.62)"/><path class="cls-1" d="M3049.62,523.22a2.42,2.42,0,0,1,2.56,2.35,2.55,2.55,0,0,1-2.54,2.58,2.47,2.47,0,0,1-2.48-2.52A2.33,2.33,0,0,1,3049.62,523.22Z" transform="translate(-2944.14 -451.62)"/><path class="cls-1" d="M3024,557.32a2.5,2.5,0,1,1,2.52-2.48A2.47,2.47,0,0,1,3024,557.32Z" transform="translate(-2944.14 -451.62)"/><path class="cls-1" d="M3049.77,532.44a2.51,2.51,0,0,1-2.53,2.48,2.62,2.62,0,0,1-2.48-2.5,2.52,2.52,0,0,1,2.5-2.45A2.44,2.44,0,0,1,3049.77,532.44Z" transform="translate(-2944.14 -451.62)"/><path class="cls-1" d="M2961,492.25a2.48,2.48,0,1,1-.05,5,2.47,2.47,0,0,1-2.41-2.52A2.4,2.4,0,0,1,2961,492.25Z" transform="translate(-2944.14 -451.62)"/><path class="cls-1" d="M2965.14,533.39a2.31,2.31,0,0,1-2.41,2.45,2.43,2.43,0,0,1-2.5-2.41,2.35,2.35,0,0,1,2.52-2.41A2.26,2.26,0,0,1,2965.14,533.39Z" transform="translate(-2944.14 -451.62)"/><path class="cls-1" d="M2958.57,499.07a2.44,2.44,0,0,1,2.56,2.44,2.39,2.39,0,0,1-2.44,2.4,2.5,2.5,0,0,1-2.53-2.41A2.42,2.42,0,0,1,2958.57,499.07Z" transform="translate(-2944.14 -451.62)"/><path class="cls-1" d="M3052,521.22a2.28,2.28,0,0,1-2.34-2.5,2.38,2.38,0,0,1,2.48-2.26,2.42,2.42,0,0,1,2.37,2.46A2.38,2.38,0,0,1,3052,521.22Z" transform="translate(-2944.14 -451.62)"/><path class="cls-1" d="M3033.25,552.71a2.29,2.29,0,0,1-2.39-2.32,2.44,2.44,0,0,1,2.31-2.39,2.51,2.51,0,0,1,2.5,2.45A2.2,2.2,0,0,1,3033.25,552.71Z" transform="translate(-2944.14 -451.62)"/><path class="cls-1" d="M2963.49,490.26a2.42,2.42,0,0,1-2.45-2.32,2.37,2.37,0,0,1,2.28-2.41,2.47,2.47,0,0,1,2.53,2.33A2.36,2.36,0,0,1,2963.49,490.26Z" transform="translate(-2944.14 -451.62)"/><path class="cls-1" d="M2960.65,524.17a2.38,2.38,0,0,1-2.39,2.42,2.32,2.32,0,0,1-2.33-2.38,2.24,2.24,0,0,1,2.28-2.33A2.35,2.35,0,0,1,2960.65,524.17Z" transform="translate(-2944.14 -451.62)"/><path class="cls-1" d="M3012.59,559.15a2.17,2.17,0,0,1,2.27-2.23,2.24,2.24,0,0,1,2.32,2.31A2.3,2.3,0,1,1,3012.59,559.15Z" transform="translate(-2944.14 -451.62)"/><path class="cls-1" d="M3047.19,539.32a2.24,2.24,0,0,1-2.32,2.23,2.32,2.32,0,1,1,0-4.64A2.29,2.29,0,0,1,3047.19,539.32Z" transform="translate(-2944.14 -451.62)"/><path class="cls-1" d="M2969.4,542.59a2.26,2.26,0,0,1-2.26,2.28,2.38,2.38,0,0,1-2.35-2.33A2.3,2.3,0,0,1,2969.4,542.59Z" transform="translate(-2944.14 -451.62)"/><path class="cls-1" d="M2958.56,508.29a2.25,2.25,0,0,1-2.36,2.27,2.35,2.35,0,0,1-2.27-2.25A2.31,2.31,0,0,1,2958.56,508.29Z" transform="translate(-2944.14 -451.62)"/><path class="cls-1" d="M2989.74,559a2.24,2.24,0,0,1,2.16-2.38,2.39,2.39,0,0,1,2.45,2.21,2.33,2.33,0,0,1-2.28,2.3A2.21,2.21,0,0,1,2989.74,559Z" transform="translate(-2944.14 -451.62)"/><path class="cls-1" d="M2985.23,558.73a2.19,2.19,0,0,1-2.32-2.15,2.24,2.24,0,0,1,2.2-2.37,2.4,2.4,0,0,1,2.4,2.29A2.29,2.29,0,0,1,2985.23,558.73Z" transform="translate(-2944.14 -451.62)"/><path class="cls-1" d="M3004.9,463.43a2.26,2.26,0,1,1-4.51,0,2.24,2.24,0,0,1,2.08-2.24A2.29,2.29,0,0,1,3004.9,463.43Z" transform="translate(-2944.14 -451.62)"/><path class="cls-1" d="M3036.7,477.54a2,2,0,0,1-2.24-2.16,2.1,2.1,0,0,1,2.14-2.21,2.24,2.24,0,0,1,2.41,2.2A2.12,2.12,0,0,1,3036.7,477.54Z" transform="translate(-2944.14 -451.62)"/><path class="cls-1" d="M3054.41,509.94a2,2,0,0,1,2.21,2.1,2.19,2.19,0,0,1-2.12,2.16,2.12,2.12,0,0,1-2.19-2.14A2,2,0,0,1,3054.41,509.94Z" transform="translate(-2944.14 -451.62)"/><path class="cls-1" d="M2998.85,559.15a2.11,2.11,0,0,1,2.16,2.11,2.21,2.21,0,0,1-2.19,2.19,2.29,2.29,0,0,1-2.14-2.27A2.11,2.11,0,0,1,2998.85,559.15Z" transform="translate(-2944.14 -451.62)"/><path class="cls-1" d="M2978.5,556.19a2.06,2.06,0,0,1-2.25-2.07,2.11,2.11,0,0,1,2.06-2.14,2.28,2.28,0,0,1,2.25,2.1A2,2,0,0,1,2978.5,556.19Z" transform="translate(-2944.14 -451.62)"/><path class="cls-1" d="M2965.9,483.15a2,2,0,0,1-2.19-2,2,2,0,0,1,2.09-2.15,2.16,2.16,0,0,1,2.18,2.11A2,2,0,0,1,2965.9,483.15Z" transform="translate(-2944.14 -451.62)"/><path class="cls-1" d="M3045.87,487a2,2,0,0,1,2-2.1,2.12,2.12,0,0,1,2.25,2.09A2.1,2.1,0,0,1,3045.87,487Z" transform="translate(-2944.14 -451.62)"/><path class="cls-1" d="M2986.58,467.58a2,2,0,0,1-2.08-2.06,2.14,2.14,0,0,1,2-2.09,2.18,2.18,0,0,1,2.2,2.17A2,2,0,0,1,2986.58,467.58Z" transform="translate(-2944.14 -451.62)"/><path class="cls-1" d="M3050.3,496.07a2.09,2.09,0,0,1,2.06-2,2.14,2.14,0,0,1,2.15,2.13A2.1,2.1,0,0,1,3050.3,496.07Z" transform="translate(-2944.14 -451.62)"/><path class="cls-1" d="M2977.44,471.9a1.92,1.92,0,0,1-2.06-2,1.88,1.88,0,0,1,2-2,1.91,1.91,0,0,1,2,2A1.8,1.8,0,0,1,2977.44,471.9Z" transform="translate(-2944.14 -451.62)"/><path class="cls-1" d="M3042.45,548a2.06,2.06,0,0,1-2-2,2,2,0,0,1,2-1.95,2.1,2.1,0,0,1,2.09,2A2,2,0,0,1,3042.45,548Z" transform="translate(-2944.14 -451.62)"/><path class="cls-1" d="M2955.85,515.06a2,2,0,0,1-2,2,2.08,2.08,0,0,1-2-2A2,2,0,0,1,2955.85,515.06Z" transform="translate(-2944.14 -451.62)"/><path class="cls-1" d="M3045.42,477.79a1.83,1.83,0,0,1-1.88,1.83,1.92,1.92,0,0,1-1.89-1.86,2,2,0,0,1,1.83-1.86A1.93,1.93,0,0,1,3045.42,477.79Z" transform="translate(-2944.14 -451.62)"/><path class="cls-1" d="M3005.71,565.46a1.84,1.84,0,1,1-.09-3.67,1.82,1.82,0,0,1,1.89,1.83A1.77,1.77,0,0,1,3005.71,565.46Z" transform="translate(-2944.14 -451.62)"/><path class="cls-1" d="M2971.49,553.54a1.8,1.8,0,0,1-1.8-1.75,1.93,1.93,0,0,1,1.85-1.91A1.83,1.83,0,1,1,2971.49,553.54Z" transform="translate(-2944.14 -451.62)"/><path class="cls-1" d="M2994,461.14a1.83,1.83,0,0,1,3.66,0,1.8,1.8,0,0,1-1.89,1.82A1.74,1.74,0,0,1,2994,461.14Z" transform="translate(-2944.14 -451.62)"/><path class="cls-1" d="M3029.05,557.21a1.82,1.82,0,0,1,1.8-1.78,1.79,1.79,0,1,1,.09,3.58A1.94,1.94,0,0,1,3029.05,557.21Z" transform="translate(-2944.14 -451.62)"/><path class="cls-1" d="M3056.84,503.54a1.82,1.82,0,0,1,1.82,1.76,1.84,1.84,0,0,1-1.85,1.74,1.7,1.7,0,0,1-1.72-1.81A1.66,1.66,0,0,1,3056.84,503.54Z" transform="translate(-2944.14 -451.62)"/><path class="cls-1" d="M2957.66,531a1.76,1.76,0,0,1-1.68,1.8,1.69,1.69,0,0,1-1.82-1.71,1.54,1.54,0,0,1,1.6-1.72A1.74,1.74,0,0,1,2957.66,531Z" transform="translate(-2944.14 -451.62)"/><path class="cls-1" d="M3019.94,561.56a1.65,1.65,0,0,1,1.72-1.71,1.75,1.75,0,1,1,0,3.51A1.71,1.71,0,0,1,3019.94,561.56Z" transform="translate(-2944.14 -451.62)"/><path class="cls-1" d="M3023.79,463.8a1.67,1.67,0,0,1,1.65-1.7,1.8,1.8,0,0,1,1.81,1.75,1.72,1.72,0,0,1-1.78,1.68A1.58,1.58,0,0,1,3023.79,463.8Z" transform="translate(-2944.14 -451.62)"/><path class="cls-1" d="M2962.05,540.19a1.69,1.69,0,0,1-1.74,1.7,1.72,1.72,0,0,1-1.71-1.74A1.73,1.73,0,0,1,2962.05,540.19Z" transform="translate(-2944.14 -451.62)"/><path class="cls-1" d="M2968.23,476.06a1.71,1.71,0,1,1,1.74-1.73A1.75,1.75,0,0,1,2968.23,476.06Z" transform="translate(-2944.14 -451.62)"/><path class="cls-1" d="M3018.61,463.15a1.69,1.69,0,0,1-1.68-1.75,1.74,1.74,0,0,1,3.47,0A1.68,1.68,0,0,1,3018.61,463.15Z" transform="translate(-2944.14 -451.62)"/><path class="cls-1" d="M3030.74,466.2a1.6,1.6,0,0,1,1.48-1.61,1.65,1.65,0,0,1,1.68,1.67A1.58,1.58,0,1,1,3030.74,466.2Z" transform="translate(-2944.14 -451.62)"/><path class="cls-1" d="M3011.86,457.59a1.42,1.42,0,0,1,1.59,1.45,1.55,1.55,0,0,1-1.58,1.59,1.58,1.58,0,0,1-1.59-1.59A1.42,1.42,0,0,1,3011.86,457.59Z" transform="translate(-2944.14 -451.62)"/><path class="cls-1" d="M3041.6,552.86a1.38,1.38,0,0,1-1.48,1.47,1.56,1.56,0,0,1-1.57-1.53,1.59,1.59,0,0,1,1.57-1.53A1.49,1.49,0,0,1,3041.6,552.86Z" transform="translate(-2944.14 -451.62)"/><path class="cls-1" d="M3058,528.07a1.37,1.37,0,0,1-1.5,1.45,1.43,1.43,0,0,1-1.53-1.52A1.52,1.52,0,0,1,3058,528.07Z" transform="translate(-2944.14 -451.62)"/><path class="cls-1" d="M3054.08,536.26a1.57,1.57,0,0,1-1.56-1.47,1.55,1.55,0,0,1,1.46-1.49,1.62,1.62,0,0,1,1.64,1.48A1.51,1.51,0,0,1,3054.08,536.26Z" transform="translate(-2944.14 -451.62)"/><path class="cls-1" d="M2951.46,523.31a1.48,1.48,0,0,1-1.5-1.48,1.51,1.51,0,0,1,3,0A1.38,1.38,0,0,1,2951.46,523.31Z" transform="translate(-2944.14 -451.62)"/><path class="cls-1" d="M2954.18,490.91a1.3,1.3,0,0,1,1.45,1.33,1.46,1.46,0,0,1-1.36,1.56,1.58,1.58,0,0,1-1.57-1.47A1.42,1.42,0,0,1,2954.18,490.91Z" transform="translate(-2944.14 -451.62)"/><path class="cls-1" d="M2951.83,500.45a1.27,1.27,0,0,1-1.46-1.38,1.4,1.4,0,0,1,1.41-1.42,1.56,1.56,0,0,1,1.54,1.4A1.41,1.41,0,0,1,2951.83,500.45Z" transform="translate(-2944.14 -451.62)"/><path class="cls-1" d="M3012.54,567.42A1.51,1.51,0,0,1,3011,566a1.42,1.42,0,0,1,1.46-1.37A1.38,1.38,0,1,1,3012.54,567.42Z" transform="translate(-2944.14 -451.62)"/><path class="cls-1" d="M2964.65,548a1.54,1.54,0,0,1,1.52,1.43,1.48,1.48,0,0,1-1.41,1.37,1.46,1.46,0,0,1-1.43-1.41A1.3,1.3,0,0,1,2964.65,548Z" transform="translate(-2944.14 -451.62)"/><path class="cls-1" d="M3058.77,519.84a1.34,1.34,0,0,1,1.47,1.33,1.24,1.24,0,0,1-1.27,1.4,1.38,1.38,0,0,1-1.53-1.34A1.35,1.35,0,0,1,3058.77,519.84Z" transform="translate(-2944.14 -451.62)"/><path class="cls-1" d="M3056.21,489.35a1.53,1.53,0,0,1-1.4,1.4,1.65,1.65,0,0,1-1.48-1.42,1.52,1.52,0,0,1,1.4-1.39A1.6,1.6,0,0,1,3056.21,489.35Z" transform="translate(-2944.14 -451.62)"/><path class="cls-1" d="M2956.65,486.89a1.47,1.47,0,0,1-1.44-1.41,1.39,1.39,0,0,1,1.34-1.33,1.53,1.53,0,0,1,1.46,1.4A1.47,1.47,0,0,1,2956.65,486.89Z" transform="translate(-2944.14 -451.62)"/><path class="cls-1" d="M2979.85,464.51a1.42,1.42,0,0,1-1.44-1.4,1.26,1.26,0,0,1,1.26-1.29,1.31,1.31,0,0,1,1.46,1.32A1.35,1.35,0,0,1,2979.85,464.51Z" transform="translate(-2944.14 -451.62)"/><path class="cls-1" d="M3051.67,540.29a1.48,1.48,0,0,1,1.37,1.32,1.44,1.44,0,0,1-1.37,1.31,1.5,1.5,0,0,1-1.37-1.33A1.39,1.39,0,0,1,3051.67,540.29Z" transform="translate(-2944.14 -451.62)"/><path class="cls-1" d="M3039,467.29a1.28,1.28,0,0,1,1.36,1.26,1.19,1.19,0,0,1-1.16,1.28,1.35,1.35,0,0,1-1.43-1.2A1.39,1.39,0,0,1,3039,467.29Z" transform="translate(-2944.14 -451.62)"/><path class="cls-1" d="M3006.37,456.67a1.36,1.36,0,0,1-1.3,1.28,1.45,1.45,0,0,1-1.38-1.3,1.3,1.3,0,0,1,1.35-1.21A1.34,1.34,0,0,1,3006.37,456.67Z" transform="translate(-2944.14 -451.62)"/><path class="cls-1" d="M2950.74,505.93a1.41,1.41,0,0,1-1.33,1.27,1.28,1.28,0,0,1-1.23-1.31,1.22,1.22,0,0,1,1.33-1.2A1.25,1.25,0,0,1,2950.74,505.93Z" transform="translate(-2944.14 -451.62)"/><path class="cls-1" d="M3050.33,481.4a1.28,1.28,0,0,1-1.28-1.19,1.36,1.36,0,0,1,1.29-1.3,1.22,1.22,0,0,1,1.25,1.22A1.21,1.21,0,0,1,3050.33,481.4Z" transform="translate(-2944.14 -451.62)"/><path class="cls-1" d="M2988.39,565.61a1.18,1.18,0,0,1,1.28-1.14,1.24,1.24,0,1,1-.07,2.47A1.26,1.26,0,0,1,2988.39,565.61Z" transform="translate(-2944.14 -451.62)"/><path class="cls-1" d="M2982.8,562.09a1.26,1.26,0,0,1,1.26,1.2,1.2,1.2,0,0,1-1.32,1.19A1.2,1.2,0,1,1,2982.8,562.09Z" transform="translate(-2944.14 -451.62)"/><path class="cls-1" d="M2990.28,458.72A1.29,1.29,0,0,1,2989,460a1.42,1.42,0,0,1-1.34-1.24,1.18,1.18,0,0,1,1.22-1.13A1.17,1.17,0,0,1,2990.28,458.72Z" transform="translate(-2944.14 -451.62)"/><path class="cls-1" d="M2970.62,466.36a1.19,1.19,0,0,1,0,2.37,1.28,1.28,0,0,1-1.25-1.23A1.19,1.19,0,0,1,2970.62,466.36Z" transform="translate(-2944.14 -451.62)"/><path class="cls-1" d="M3059.16,497.34a1.2,1.2,0,0,1,1.3,1.14,1.17,1.17,0,0,1-1.21,1.15,1.22,1.22,0,0,1-1.26-1.12A1.1,1.1,0,0,1,3059.16,497.34Z" transform="translate(-2944.14 -451.62)"/><path class="cls-1" d="M3062.4,514.41a1.11,1.11,0,0,1-1.13,1.14,1,1,0,0,1-1.15-1.07,1,1,0,0,1,1.09-1.16A1.12,1.12,0,0,1,3062.4,514.41Z" transform="translate(-2944.14 -451.62)"/><path class="cls-1" d="M2996.46,569.13a1,1,0,0,1-1.13-1.1,1.07,1.07,0,0,1,1.13-1,1.12,1.12,0,0,1,1.1,1.09A1,1,0,0,1,2996.46,569.13Z" transform="translate(-2944.14 -451.62)"/><path class="cls-1" d="M2959,477.64a1.21,1.21,0,0,1,1.18,1.11,1.1,1.1,0,0,1-1.15,1,1.15,1.15,0,0,1-1.15-1A1.21,1.21,0,0,1,2959,477.64Z" transform="translate(-2944.14 -451.62)"/><path class="cls-1" d="M2976,561.94a1,1,0,0,1-1.11-1,1.17,1.17,0,0,1,1.09-1.12,1.24,1.24,0,0,1,1.13,1.1A1.1,1.1,0,0,1,2976,561.94Z" transform="translate(-2944.14 -451.62)"/><path class="cls-1" d="M3028.48,563a0.89,0.89,0,0,1,1,1,1,1,0,0,1-.9,1,1.22,1.22,0,0,1-1.11-1A1,1,0,0,1,3028.48,563Z" transform="translate(-2944.14 -451.62)"/><path class="cls-1" d="M2953.52,538.75a1,1,0,0,1-1-1,1,1,0,0,1,1-.94A1,1,0,1,1,2953.52,538.75Z" transform="translate(-2944.14 -451.62)"/><path class="cls-1" d="M3050.22,548.37a0.89,0.89,0,0,1-.9,1,1.09,1.09,0,0,1-1.07-1,1,1,0,0,1,1-.93A0.86,0.86,0,0,1,3050.22,548.37Z" transform="translate(-2944.14 -451.62)"/><path class="cls-1" d="M2946.91,511.77a1.08,1.08,0,0,1,1.1.92,1.1,1.1,0,0,1-1,1,1,1,0,0,1-.95-1A0.91,0.91,0,0,1,2946.91,511.77Z" transform="translate(-2944.14 -451.62)"/><path class="cls-1" d="M3038.62,559.59a0.81,0.81,0,0,1-.91.88,0.86,0.86,0,0,1-.91-0.9,0.78,0.78,0,0,1,.88-0.83A0.83,0.83,0,0,1,3038.62,559.59Z" transform="translate(-2944.14 -451.62)"/><path class="cls-1" d="M2949.94,528.66a0.82,0.82,0,0,1-.85.87,0.79,0.79,0,0,1-.84-0.91,1.54,1.54,0,0,1,.79-0.84A0.91,0.91,0,0,1,2949.94,528.66Z" transform="translate(-2944.14 -451.62)"/><path class="cls-1" d="M3046.77,471c-0.05.46-.26,0.95-0.8,0.83a1.36,1.36,0,0,1-.89-0.81,0.73,0.73,0,0,1,.81-0.86A0.77,0.77,0,0,1,3046.77,471Z" transform="translate(-2944.14 -451.62)"/><path class="cls-1" d="M2998.44,455.14c-0.74-.09-1.18-0.37-1.07-0.88a1.15,1.15,0,0,1,.83-0.74,1.26,1.26,0,0,1,.83.83A1.72,1.72,0,0,1,2998.44,455.14Z" transform="translate(-2944.14 -451.62)"/><path class="cls-1" d="M3019.52,569.24c-0.74-.09-1.19-0.36-1.11-0.86a1.25,1.25,0,0,1,.84-0.77,0.72,0.72,0,0,1,.87.8A2.07,2.07,0,0,1,3019.52,569.24Z" transform="translate(-2944.14 -451.62)"/><path class="cls-1" d="M2957.66,546.16c0.78,0,1.18.35,1.12,0.82a1.34,1.34,0,0,1-.81.81,0.85,0.85,0,0,1-.92-0.84A2.9,2.9,0,0,1,2957.66,546.16Z" transform="translate(-2944.14 -451.62)"/><path class="cls-1" d="M2969.11,557.47a3.38,3.38,0,0,1,.88,1.06,0.72,0.72,0,0,1-.82.78,0.75,0.75,0,0,1-.84-0.78A3.29,3.29,0,0,1,2969.11,557.47Z" transform="translate(-2944.14 -451.62)"/><path class="cls-1" d="M3003.43,569.55a2.75,2.75,0,0,1,.58,1,0.61,0.61,0,0,1-.78.69,1.31,1.31,0,0,1-.77-0.82,2,2,0,0,1,.64-0.84h0.33Z" transform="translate(-2944.14 -451.62)"/><path class="cls-1" d="M3063.66,506.6a2.89,2.89,0,0,1,.69,1.1,1,1,0,0,1-.72.66,1.15,1.15,0,0,1-.73-0.77A2.69,2.69,0,0,1,3063.66,506.6Z" transform="translate(-2944.14 -451.62)"/><path class="cls-1" d="M2962.4,471.83a3.6,3.6,0,0,1-1,.83,0.56,0.56,0,0,1-.67-0.7,0.89,0.89,0,0,1,.58-0.62A2.91,2.91,0,0,1,2962.4,471.83Z" transform="translate(-2944.14 -451.62)"/><path class="cls-1" d="M3028.81,457.11a2.81,2.81,0,0,1-1,.48,0.81,0.81,0,0,1-.52-0.52,1,1,0,0,1,.59-0.61A2.5,2.5,0,0,1,3028.81,457.11Z" transform="translate(-2944.14 -451.62)"/><path class="cls-1" d="M3022,454.61a2.43,2.43,0,0,1-.91.64,1.75,1.75,0,0,1-.66-0.6,2,2,0,0,1,.69-0.52A2.28,2.28,0,0,1,3022,454.61Z" transform="translate(-2944.14 -451.62)"/><path class="cls-1" d="M3047.59,555.33a2.58,2.58,0,0,1-.82.34,1.29,1.29,0,0,1-.45-0.51,1.73,1.73,0,0,1,.65-0.49,1.44,1.44,0,0,1,.64.41v0.25Z" transform="translate(-2944.14 -451.62)"/><path class="cls-1" d="M2982.85,456.5a1.78,1.78,0,0,1-.73.33,1.49,1.49,0,0,1-.58-0.48,1.94,1.94,0,0,1,.68-0.48,1.41,1.41,0,0,1,.64.36v0.27Z" transform="translate(-2944.14 -451.62)"/><path class="cls-1" d="M3057.17,481.71a2.18,2.18,0,0,1,.56.85,1.58,1.58,0,0,1-.63.54,1.47,1.47,0,0,1-.42-0.59A2.2,2.2,0,0,1,3057.17,481.71Z" transform="translate(-2944.14 -451.62)"/><path class="cls-1" d="M3061.54,492.46a2.18,2.18,0,0,1-.5-0.71,0.94,0.94,0,0,1,.64-0.48,1.39,1.39,0,0,1,.57.48Z" transform="translate(-2944.14 -451.62)"/><path class="cls-1" d="M2972.93,460a2,2,0,0,1,.6.71,0.8,0.8,0,0,1-.55.5,0.66,0.66,0,0,1-.5-0.42A2.13,2.13,0,0,1,2972.93,460Z" transform="translate(-2944.14 -451.62)"/><path class="cls-1" d="M3015,452.29a2.15,2.15,0,0,1-.77.5,1.35,1.35,0,0,1-.54-0.44,1.81,1.81,0,0,1,.57-0.52A1.94,1.94,0,0,1,3015,452.29Z" transform="translate(-2944.14 -451.62)"/><path class="cls-1" d="M2944.62,518.8a2.21,2.21,0,0,1,.52.56,1,1,0,0,1-.51.53,0.7,0.7,0,0,1-.49-0.35A2.75,2.75,0,0,1,2944.62,518.8Z" transform="translate(-2944.14 -451.62)"/><path class="cls-1" d="M3035.42,459.35a2,2,0,0,1-.71.53,0.69,0.69,0,0,1-.47-0.45,0.62,0.62,0,0,1,.41-0.44A2.1,2.1,0,0,1,3035.42,459.35Z" transform="translate(-2944.14 -451.62)"/><path class="cls-1" d="M3063.91,530.34a1.82,1.82,0,0,1-.59.51,0.93,0.93,0,0,1-.49-0.48,0.6,0.6,0,0,1,.35-0.4A2.29,2.29,0,0,1,3063.91,530.34Z" transform="translate(-2944.14 -451.62)"/><path class="cls-1" d="M2963,556.21a1.5,1.5,0,0,1-.61.34,1.42,1.42,0,0,1-.46-0.42,1.4,1.4,0,0,1,.52-0.34A1.5,1.5,0,0,1,2963,556.21Z" transform="translate(-2944.14 -451.62)"/><path class="cls-1" d="M3061.6,537.14a1.67,1.67,0,0,1-.61.4,1.57,1.57,0,0,1-.55-0.32,1.29,1.29,0,0,1,.46-0.43A1.79,1.79,0,0,1,3061.6,537.14Z" transform="translate(-2944.14 -451.62)"/><path class="cls-1" d="M3010.61,572.84a1.55,1.55,0,0,1-.52.43,0.73,0.73,0,0,1-.43-0.44,0.55,0.55,0,0,1,.35-0.4A1.7,1.7,0,0,1,3010.61,572.84Z" transform="translate(-2944.14 -451.62)"/><path class="cls-1" d="M3053.31,473.39a1.36,1.36,0,0,1-.55.3,0.62,0.62,0,0,1-.34-0.41,0.49,0.49,0,0,1,.35-0.31A1.78,1.78,0,0,1,3053.31,473.39Z" transform="translate(-2944.14 -451.62)"/><path class="cls-1" d="M2992,451.91a1.8,1.8,0,0,1-.59.41A1,1,0,0,1,2991,452a1.22,1.22,0,0,1,.4-0.36A1.46,1.46,0,0,1,2992,451.91Z" transform="translate(-2944.14 -451.62)"/><path class="cls-1" d="M2947.4,489.47a1.32,1.32,0,0,1,.33.51,1,1,0,0,1-.35.36A0.44,0.44,0,0,1,2947.4,489.47Z" transform="translate(-2944.14 -451.62)"/><path class="cls-1" d="M2945.56,496.71a1.48,1.48,0,0,1-.55.32,1,1,0,0,1-.4-0.31,1.26,1.26,0,0,1,.43-0.37A1.36,1.36,0,0,1,2945.56,496.71Z" transform="translate(-2944.14 -451.62)"/></svg>