<svg id="mito_colours" data-name="mito colours" xmlns="http://www.w3.org/2000/svg" viewBox="0 0 338.18 126.84"><defs><style>.cls-1{fill:#fff;}.cls-2{fill:none;stroke:#fff;stroke-miterlimit:10;}</style></defs><title>idc</title><path class="cls-1" d="M3387.27,492.41l0.7,0a38.54,38.54,0,0,1-2.36,12.13c-0.38,1.05-1.41.87-2.1,1.32l-7.2,2c-1.41.28-2.82,0.54-4.23,0.83-3.15.64-6.28,1.38-9.44,1.93s-6.44.95-9.65,1.43c-0.64.1-1.27,0.3-1.91,0.46l-3.57.31c-1.21.06-2.43,0.11-3.64,0.2a1.49,1.49,0,0,0-.53.3l-2.42,0c-2.08.11-4.16,0.26-6.24,0.34q-3.71.14-7.41,0.18-3.94,0-7.88,0a1.23,1.23,0,0,1-.84-0.46,36.23,36.23,0,0,1-5.5-11.07,37.89,37.89,0,0,1-1.59-13.65,38.08,38.08,0,0,1,23.67-32.86,38.43,38.43,0,0,1,39.31,6.16,37.41,37.41,0,0,1,11.6,17.07,64.53,64.53,0,0,1,1.65,7.35,2.12,2.12,0,0,1-.21.84l-7.6,2.8-5.54,1.61-1.6.37c-0.35.06-.71,0.1-1.06,0.17l-7.47,1.44-4.14.76-3,.45a9.49,9.49,0,0,0-1,0l-9.91.82a0.63,0.63,0,0,0-.23.15l0,0a184.31,184.31,0,0,1-22.66-.38c-1.13-.1-2.27-0.22-3.41-0.3-1-.07-1.26.34-0.94,1.3a0.79,0.79,0,0,0,.28.26c2.94,0.44,5.87.91,8.81,1.27,1.86,0.23,3.73.29,5.6,0.43s3.92,0.4,5.88.4c4,0,8-.1,12-0.22,1.52,0,3-.24,4.56-0.37l2.38-.2,5.61-.61,0,0c1.26-.14,2.52-0.24,3.77-0.45,1.74-.28,3.47-0.64,5.21-1l0,0c0.51-.08,1-0.13,1.53-0.25l8-1.93Zm-15.91-23-0.32-.22h0l-0.68.24v0.16h0.79l0.2,0V469.4Zm-20.85-13.26,0.39-.15-0.22-.1h-0.6v0.21l0.45,0h0Zm14.92,13.9h-0.66l0,0.15,0.61-.18,0.31-.25-0.13-.1Zm-19.78-15,0,0.27,3.2-.23,0-.28Zm7.06,0.12v-0.25h-2.92v0.25h2.92Zm-10.29,1.11,0.08,0.3c0.3-.07.61-0.13,0.91-0.23a0.83,0.83,0,0,0,0-.34Zm16.94,12.26,0-.11-0.43.12,0,0.13Z" transform="translate(-3276.43 -453.02)"/><path class="cls-2" d="M3444.1,487.57a16.24,16.24,0,0,0-4-10.89,38.52,38.52,0,0,0-11.42-9.11,78.62,78.62,0,0,0-13.36-5.84,155.55,155.55,0,0,0-19.27-5,8.09,8.09,0,0,1-1.43-.24,3.24,3.24,0,0,1-.84-0.78,2.2,2.2,0,0,1,.92-0.55c1.24,0.07,2.47.22,3.7,0.41q3.47,0.54,6.92,1.15c2.84,0.51,5.7.93,8.49,1.63,4.62,1.15,9.24,2.32,13.77,3.77a74.8,74.8,0,0,1,17.84,8.17,38.63,38.63,0,0,1,7.48,6.14,19.25,19.25,0,0,1,5.4,11,16.71,16.71,0,0,1-1.43,8.61c-2,4.62-5.31,8.19-9,11.44a73.53,73.53,0,0,1-13.67,9.13,125.64,125.64,0,0,1-20.65,8.83c-6.38,2.07-12.81,4-19.32,5.69-5.87,1.49-11.85,2.53-17.8,3.67-3.63.7-7.3,1.25-11,1.78-2.45.35-4.92,0.57-7.39,0.81q-5.37.53-10.74,1-2.89.25-5.78,0.4c-3.05.16-6.11,0.33-9.16,0.39-5.94.11-11.87,0.2-17.81,0.19-3,0-5.91-.2-8.87-0.39-3.3-.21-6.59-0.46-9.88-0.8-3.73-.39-7.44-0.89-11.16-1.38q-3.18-.43-6.34-1a3.5,3.5,0,0,1-1.14-.85,2,2,0,0,1,.76-0.64,10.39,10.39,0,0,1,1.85.17c1.65,0.19,3.3.41,5,.56,3.26,0.29,6.52.56,9.78,0.78,1.81,0.13,3.62.18,5.43,0.21,4.54,0.08,9.09.18,13.63,0.19,2.7,0,5.41-.09,8.11-0.19,2.53-.1,5.05-0.21,7.57-0.4,2.93-.22,5.86-0.52,8.78-0.78,2.28-.2,4.56-0.36,6.84-0.61,2.46-.28,4.91-0.63,7.36-1,2.73-.38,5.47-0.78,8.2-1.21,2.37-.37,4.75-0.74,7.1-1.21,4-.81,8-1.64,12-2.57a196.27,196.27,0,0,0,24.66-7.39c4-1.52,8-3.3,11.9-5.06a77.81,77.81,0,0,0,16.17-9.67c4.1-3.19,7.75-6.84,10.08-11.6A14.5,14.5,0,0,0,3444.1,487.57Z" transform="translate(-3276.43 -453.02)"/><path class="cls-1" d="M3514.58,522.24c-1.42,0-2.85.06-4.27,0q-4.42-.23-8.82-0.62a1.08,1.08,0,0,1-.54-0.89c0.66-3.57,1.4-7.12,2.09-10.69s1.35-7.34,2-11c0.64-3.37,1.32-6.74,2-10.11s1.19-6.51,1.81-9.76c0.84-4.43,1.71-8.85,2.55-13.28,0.24-1.24.37-2.51,0.66-3.74a1.3,1.3,0,0,1,.82-0.85c2.45-.33,4.91-0.63,7.38-0.81a77.86,77.86,0,0,1,8.47-.37c5.55,0.2,11,.92,16,3.72a20.36,20.36,0,0,1,10.36,13.24,32,32,0,0,1,1,8,41.74,41.74,0,0,1-3.52,16.4,34.71,34.71,0,0,1-7.93,11.51,32,32,0,0,1-10.6,6.47,37.08,37.08,0,0,1-10.3,2.38c-3,.24-6.09.39-9.13,0.58v-0.17Zm-4.79-6.79a24.08,24.08,0,0,0,3.14.4c3,0,6,0,9-.19a27.31,27.31,0,0,0,11.75-3.44A24.66,24.66,0,0,0,3543.6,502a33.7,33.7,0,0,0,3.82-13,29.84,29.84,0,0,0-.44-10.15,14.79,14.79,0,0,0-5.87-8.92c-3.53-2.46-7.55-3.27-11.71-3.5-2.56-.14-5.14.07-7.7,0.18a11.61,11.61,0,0,0-2.2.38,0.81,0.81,0,0,0-.51.5c-0.49,2.28-1,4.56-1.4,6.85-0.63,3.35-1.22,6.7-1.85,10-0.89,4.71-1.82,9.42-2.73,14.14-0.69,3.6-1.36,7.2-2.05,10.79C3510.59,511.33,3510.2,513.33,3509.79,515.45Z" transform="translate(-3276.43 -453.02)"/><path class="cls-2" d="M3376.3,507.94l7.2-2c1.52-.42,3.09-0.73,4.56-1.28,3.61-1.35,7.23-2.72,10.76-4.25a58.69,58.69,0,0,0,13.3-7.85,26.74,26.74,0,0,0,5.69-5.91,12.44,12.44,0,0,0,2.4-8.47,12,12,0,0,0-3-6.52c-3.47-4.09-8.06-6.52-12.88-8.56a88.5,88.5,0,0,0-18.73-5.39,0.48,0.48,0,0,1-.19,0c-0.38-.3-1.33,0-1.1-0.9,0.18-.71.75-0.54,1.33-0.47a116.23,116.23,0,0,1,23.26,5,53,53,0,0,1,13.51,6.37,20.56,20.56,0,0,1,7.28,7.78c2,4.07,1.59,8-.61,11.92a29.07,29.07,0,0,1-9,9.28,82.68,82.68,0,0,1-18.73,9.39,168.39,168.39,0,0,1-22.32,6.41,0.4,0.4,0,0,0-.13.13l0,0c-2.76.48-5.52,1-8.28,1.43s-5.55.83-8.32,1.2-5.43.72-8.16,1c-2.32.22-4.65,0.27-7,.43-1.09.08-2.18,0.24-3.27,0.36l0,0-2.21,0-16.56,0c-0.64,0-1.28,0-1.92-.05l0,0c-1-.14-2-0.32-3.07-0.4-2.09-.17-4.19-0.2-6.27-0.43-2.84-.31-5.67-0.76-8.5-1.16-1.32-.19-2.64-0.36-3.94-0.64a2.54,2.54,0,0,1-.85-0.82,3,3,0,0,1,1.16-.5c1.85,0.13,3.69.43,5.54,0.54q5.89,0.36,11.78.58c3.23,0.12,6.46.21,9.69,0.18,3,0,6-.21,9.06-0.39a30.78,30.78,0,0,0,3-.47l2.42,0,4.17-.5,3.57-.31,1-.12c2.61-.34,5.24-0.62,7.84-1,3.07-.51,6.13-1.11,9.18-1.75C3371.48,509.17,3373.89,508.53,3376.3,507.94Z" transform="translate(-3276.43 -453.02)"/><path class="cls-1" d="M3604.81,513.67c0.28,1.71.43,3.4,0.85,5,0.31,1.17-.16,1.47-1.12,1.81a31.92,31.92,0,0,1-8.31,1.92,79,79,0,0,1-8.66.37,23.61,23.61,0,0,1-14-4.9,21.62,21.62,0,0,1-8.05-13.65,37.25,37.25,0,0,1-.77-7.29c0.18-8.37,2.36-16.21,7.34-23a33.92,33.92,0,0,1,14.51-11.53,30.81,30.81,0,0,1,9-2.46,60.52,60.52,0,0,1,9.84,0,38.62,38.62,0,0,1,6.65,1.36,15.08,15.08,0,0,1,2.57,1.18l-2.55,6.22c-0.68-.3-1.32-0.61-2-0.87a28,28,0,0,0-12.75-1.54,24.48,24.48,0,0,0-13.64,5.66,28.66,28.66,0,0,0-9.83,17.28,40.78,40.78,0,0,0-.78,8.28,20.81,20.81,0,0,0,4,12.71,15,15,0,0,0,7.3,5.07,25.14,25.14,0,0,0,9.91,1,28.16,28.16,0,0,0,10.17-2.47A3.27,3.27,0,0,1,3604.81,513.67Z" transform="translate(-3276.43 -453.02)"/><path class="cls-1" d="M3378.9,512.52l3-.47c-6.74,9.88-15.86,15.62-27.43,17.08a37.62,37.62,0,0,1-33.06-12.24h1.91l0,0a0.65,0.65,0,0,0,.24.14c2.5,0.09,5,.24,7.51.24,3.78,0,7.56-.1,11.34-0.18a14.94,14.94,0,0,0,1.61-.2l0,0c1.67-.06,3.34-0.1,5-0.17,1.3-.06,2.59-0.11,3.88-0.23,1.73-.17,3.45-0.4,5.17-0.6,2-.23,4-0.43,5.93-0.7,2.34-.33,4.68-0.67,7-1.1,2.67-.48,5.33-1.06,8-1.59Z" transform="translate(-3276.43 -453.02)"/><path class="cls-1" d="M3491,460.48h7.87c-0.78,4-1.58,7.91-2.32,11.86-0.89,4.72-1.72,9.44-2.61,14.16-0.62,3.28-1.31,6.55-1.93,9.83-0.69,3.63-1.35,7.27-2,10.9-0.63,3.31-1.29,6.62-1.92,9.93-0.25,1.31-.41,2.63-0.69,3.93a1.07,1.07,0,0,1-.67.73c-2.38.05-4.76,0-7.35,0Z" transform="translate(-3276.43 -453.02)"/><path class="cls-2" d="M3358.41,498l-2.38.2a0.66,0.66,0,0,0-.26-0.13c-3.31.18-6.61,0.42-9.91,0.52-2,.06-4-0.06-6-0.17-4.29-.24-8.59-0.43-12.87-0.81-2.69-.24-5.35-0.78-8-1.19-0.32-1,0-1.37.94-1.3,1.14,0.08,2.27.2,3.41,0.3a0.39,0.39,0,0,0,.15.12c3.07,0.21,6.14.55,9.22,0.6,4.25,0.06,8.51-.09,12.77-0.16a1.91,1.91,0,0,0,.53-0.17l0,0a1.92,1.92,0,0,0,.56.14c1.52-.11,3-0.22,4.57-0.38,2-.21,4-0.47,6-0.71l3-.45c1.12-.14,2.24-0.22,3.34-0.43,3.11-.61,6.22-1.29,9.32-1.94l1.6-.37,5.54-1.61,7.6-2.8a1.45,1.45,0,0,0,.49,0c4-1.91,7.9-3.88,11.06-7.06a9.9,9.9,0,0,0,3.1-5.82,7.13,7.13,0,0,0-1.73-5.24,19.46,19.46,0,0,0-8.32-5.8c-3.29-1.34-6.74-2.29-10.14-3.31-1.42-.43-2.92-0.6-4.36-1a2.62,2.62,0,0,1-.82-0.68,2.24,2.24,0,0,1,.92-0.65,19.47,19.47,0,0,1,3.2.38c3.65,0.76,7.32,1.44,10.92,2.39a37.81,37.81,0,0,1,12.92,5.72c2.28,1.66,4.24,3.58,5,6.41s-0.09,5.54-1.87,7.89a24.79,24.79,0,0,1-7.67,6.28,57.32,57.32,0,0,1-11.78,5.1,8.55,8.55,0,0,0-1.12.53l-4.82,1.43-1.89.42-7.63,1.76,0,0c-1.61.22-3.21,0.42-4.82,0.67-1.39.22-2.77,0.49-4.16,0.73l0,0Z" transform="translate(-3276.43 -453.02)"/><path class="cls-1" d="M3371.38,575.27l2.83-14.84a20,20,0,0,1,7.45.14,5.71,5.71,0,0,1,4.05,5.53c0,2.83-.75,5.28-2.9,7.18a7.93,7.93,0,0,1-4.65,2c-1.14.1-2.29,0.19-3.43,0.19S3372.51,575.34,3371.38,575.27Zm5.4-12.81c-0.66,3.38-1.34,6.77-2,10.16a0.78,0.78,0,0,0,.35.66c1.49,0.54,4.92-.75,5.94-2.07a7.5,7.5,0,0,0,1.55-4.21c0.12-2.08-.48-4-2.78-4.51A14.57,14.57,0,0,0,3376.77,562.45Z" transform="translate(-3276.43 -453.02)"/><path class="cls-1" d="M3451.42,575.27h-2.84l1.95-10.85H3453l-0.14,1.22c3.09-2.17,5.65-2,6.16.36a5,5,0,0,1,3.5-1.86c2.94-.16,3.44,2.07,3.12,4-0.35,2.11-.77,4.21-1.12,6.32a0.79,0.79,0,0,1-1,.82c-0.65,0-1.31,0-2.08,0,0.32-1.72.65-3.33,0.92-4.94a20.18,20.18,0,0,0,.3-2.82,1.16,1.16,0,0,0-1.86-1,4.94,4.94,0,0,0-2.07,3.48c-0.34,1.55-.53,3.13-0.84,4.69a0.89,0.89,0,0,1-.63.54c-0.75.07-1.51,0-2.31,0,0.46-2.36,1-4.66,1.32-7a2.24,2.24,0,0,0-.62-1.81c-0.61-.46-1.34,0-1.9.54-1.21,1.24-1.47,2.86-1.79,4.44C3451.79,572.7,3451.63,574,3451.42,575.27Z" transform="translate(-3276.43 -453.02)"/><path class="cls-1" d="M3538.68,564.36l-0.17,1.43a4.87,4.87,0,0,1,3.57-1.67,3.54,3.54,0,0,1,3.5,3.17,7.59,7.59,0,0,1-4.2,7.91c-1,.43-1.76.78-4.31,0.13-0.2.86-.42,1.72-0.59,2.59-0.39,1.94-.38,1.95-2.33,1.93h-0.92c0.32-1.71.63-3.32,0.92-4.93q0.76-4.16,1.51-8.32a10.21,10.21,0,0,1,.23-1.54,1.15,1.15,0,0,1,.72-0.68A13.74,13.74,0,0,1,3538.68,564.36Zm0.46,9.14a5.79,5.79,0,0,0,.72-0.21c2.07-.82,2.89-3.81,2.75-5.28-0.13-1.27-1-2-2-1.61a3.89,3.89,0,0,0-1.51,1.14,8.61,8.61,0,0,0-1.42,4.47C3537.51,573.14,3537.81,573.49,3539.14,573.51Z" transform="translate(-3276.43 -453.02)"/><path class="cls-1" d="M3439.19,575.29l-0.94,4.54h-2.86l2.86-15.42h2.49v1.12a5,5,0,0,1,4.45-1.31,3,3,0,0,1,2.41,2.75c0.37,3.15-.33,5.74-3.26,7.76A5.39,5.39,0,0,1,3439.19,575.29Zm0.3-2.35a2.42,2.42,0,0,0,2.61.35c2-1,2.88-3.76,2.53-5.71a1.55,1.55,0,0,0-2.54-.9,4.28,4.28,0,0,0-1.35,1.65C3440.22,569.84,3439.89,571.42,3439.49,572.94Z" transform="translate(-3276.43 -453.02)"/><path class="cls-1" d="M3304,564.27l1-4.82h2.84l-2.91,15.84h-2.55l0.16-1a25,25,0,0,1-2.9,1.3,3.36,3.36,0,0,1-4-2.61,7.6,7.6,0,0,1,2.87-7.53A6.64,6.64,0,0,1,3304,564.27Zm-5.41,6.72q0,0.15,0,.3c0,1.23.38,2,1.26,2.12a2.19,2.19,0,0,0,2.07-1.12c1.06-1.43,1.13-3.12,1.45-4.76,0.21-1.05-.16-1.41-1.23-1.3C3300,566.46,3298.5,569,3298.64,571Z" transform="translate(-3276.43 -453.02)"/><path class="cls-1" d="M3576,575.25h-2.6V574a19.45,19.45,0,0,1-2.9,1.51,3.14,3.14,0,0,1-4-2.71c-0.49-4.22,1.9-7.8,6.08-8.56a16.78,16.78,0,0,1,4.48.21,1,1,0,0,1,.52.8c-0.39,2.19-.9,4.37-1.29,6.56C3576.08,572.93,3576.08,574,3576,575.25Zm-6.53-3.9a6.6,6.6,0,0,0,0,.79,1.36,1.36,0,0,0,2.15,1,3.34,3.34,0,0,0,1.21-1.39c0.6-1.69,1.07-3.43,1.54-5.16a0.79,0.79,0,0,0-.54-0.47,4.41,4.41,0,0,0-1.67.43A5.12,5.12,0,0,0,3569.46,571.36Z" transform="translate(-3276.43 -453.02)"/><path class="cls-1" d="M3359.31,575.26h-2.62l-0.08-1.59-1,.93a3.62,3.62,0,0,1-4,.81,3.34,3.34,0,0,1-2-3.26,7.31,7.31,0,0,1,6-7.84,21.55,21.55,0,0,1,4.68.16,1.08,1.08,0,0,1,.43.89c-0.4,2.3-.91,4.58-1.3,6.89A26.63,26.63,0,0,0,3359.31,575.26Zm-1.59-9.09a4.2,4.2,0,0,0-3,.86,5.48,5.48,0,0,0-2,4.47c0,0.85.13,1.68,1,1.9a2,2,0,0,0,2-1C3357.2,570.61,3357.13,568.37,3357.72,566.17Z" transform="translate(-3276.43 -453.02)"/><path class="cls-1" d="M3512.52,572.73c0.68,2,.58,2.41-1.41,2.68s-3.95.43-5.8-.59a5.6,5.6,0,0,1-3-5,9.19,9.19,0,0,1,1.54-5.94,9,9,0,0,1,9.34-3.72c0.6,0.11,1.19.24,1.88,0.38-0.1.27-.16,0.41-0.21,0.55-0.56,1.71-.55,1.62-2.28,1.34a5.82,5.82,0,0,0-7.07,5.25,7.94,7.94,0,0,0,.07,2.78c0.55,2.39,2.86,3,4.72,2.78A18.93,18.93,0,0,0,3512.52,572.73Z" transform="translate(-3276.43 -453.02)"/><path class="cls-1" d="M3430.91,564.11c2.9-.36,5.11,2.72,4.49,5.63a7.16,7.16,0,0,1-2.89,4.87c-2.19,1.45-5.45,1.75-7.32-.88a5.1,5.1,0,0,1-.54-4.49,6.46,6.46,0,0,1,4.71-5A10.84,10.84,0,0,1,3430.91,564.11Zm-3.52,6.59a5,5,0,0,0,0,.6c0.28,1.69,1.44,2.89,3.23,1.79,1.41-.87,2.41-4.29,1.63-5.73a1.85,1.85,0,0,0-3.06-.53A5.9,5.9,0,0,0,3427.39,570.7Z" transform="translate(-3276.43 -453.02)"/><path class="cls-1" d="M3514.57,570.95a6.58,6.58,0,0,1,4.77-6.62,5.1,5.1,0,0,1,4.65.76,4.73,4.73,0,0,1,1.47,4.92,6.43,6.43,0,0,1-4.42,5.36c-2.8.93-5.63-.26-6.32-2.86A9.51,9.51,0,0,1,3514.57,570.95Zm3-.08a7.13,7.13,0,0,0,0,.79,1.92,1.92,0,0,0,1.31,1.75,2.23,2.23,0,0,0,1.72-.33,5.22,5.22,0,0,0,1.86-5.15,2.36,2.36,0,0,0-1.17-1.52,1.9,1.9,0,0,0-2.2.49A5.44,5.44,0,0,0,3517.6,570.87Z" transform="translate(-3276.43 -453.02)"/><path class="cls-1" d="M3602.7,568.85a6.62,6.62,0,0,1-6.57,6.82,4.25,4.25,0,0,1-4.43-4.51c0-3,1.17-5.36,4-6.56s5.92-.51,6.83,2.7A10.45,10.45,0,0,1,3602.7,568.85Zm-3,0c0-.1,0-0.2,0-0.3a2.16,2.16,0,0,0-1.16-2.21,2.28,2.28,0,0,0-2.56.84,6.22,6.22,0,0,0-1.27,4.05,2.21,2.21,0,0,0,1.36,2.16,2,2,0,0,0,2.26-.81A5.4,5.4,0,0,0,3599.66,568.89Z" transform="translate(-3276.43 -453.02)"/><path class="cls-1" d="M3557.73,568.76a6.53,6.53,0,0,1-6.45,6.92c-3.45-.16-4.88-2.79-4.38-5.78a6.52,6.52,0,0,1,3.69-5.2c1.87-.86,3.86-1.05,5.64.41A3.94,3.94,0,0,1,3557.73,568.76Zm-7.95,2.19a2.37,2.37,0,0,0,1.55,2.53,2.29,2.29,0,0,0,2.46-1.35,14.6,14.6,0,0,0,1.1-3.37,2.1,2.1,0,0,0-3.81-1.6A6.58,6.58,0,0,0,3549.78,570.95Z" transform="translate(-3276.43 -453.02)"/><path class="cls-1" d="M3309.4,564.4h3c-0.25,1.29-.5,2.51-0.74,3.74s-0.51,2.42-.63,3.65a1.68,1.68,0,0,0,.55,1.35,1.83,1.83,0,0,0,1.46,0,3.48,3.48,0,0,0,2-2.6c0.46-2,.81-4,1.22-6.08h2.87l-0.68,3.8c-0.37,2.08-.76,4.15-1.11,6.23a0.79,0.79,0,0,1-.92.84c-0.59,0-1.19,0-1.84,0l0.16-1.1a23,23,0,0,1-3,1.38,2.89,2.89,0,0,1-3.63-3.42C3308.55,569.6,3309,567,3309.4,564.4Z" transform="translate(-3276.43 -453.02)"/><path class="cls-1" d="M3484.48,575.29c0.45-2.33.91-4.55,1.3-6.78a1.81,1.81,0,0,0-.68-2.1c-0.56-.32-1.72.25-2.28,1a9.68,9.68,0,0,0-1.58,4.53c-0.21,1.11-.41,2.22-0.62,3.37h-2.9l2-10.85h2.47l0.07,1.13a6.49,6.49,0,0,0,.75-0.48,4.51,4.51,0,0,1,3.81-.84,2.42,2.42,0,0,1,1.93,2.6c-0.11,1.62-.39,3.22-0.63,4.82-0.14,1-.39,1.9-0.53,2.86a0.78,0.78,0,0,1-1,.81C3486,575.26,3485.26,575.29,3484.48,575.29Z" transform="translate(-3276.43 -453.02)"/><path class="cls-1" d="M3283,575.29l2-10.88h2.49v1.44a4.59,4.59,0,0,1,4.11-1.69,2.46,2.46,0,0,1,2.42,2.45c-0.19,2.1-.55,4.18-0.85,6.27A5.94,5.94,0,0,0,3293,574c0.09,1.33-.72,1.39-1.69,1.29-0.42,0-.85,0-1.44,0,0.26-1.45.53-2.8,0.75-4.16a28.92,28.92,0,0,0,.47-3.37,1.55,1.55,0,0,0-.61-1.27,2.07,2.07,0,0,0-1.61.29c-1.45,1-1.88,2.65-2.12,4.33-0.17,1.22-.38,2.43-0.64,3.63a0.91,0.91,0,0,1-.66.52C3284.62,575.33,3283.82,575.29,3283,575.29Z" transform="translate(-3276.43 -453.02)"/><path class="cls-1" d="M3605.56,564.39H3608v1.42a4.64,4.64,0,0,1,4.18-1.65,2.38,2.38,0,0,1,2.31,2.32c-0.14,1.88-.41,3.75-0.67,5.62-0.14,1-.37,2-0.57,3.14h-2.92c0.23-1.31.48-2.59,0.69-3.89a35,35,0,0,0,.48-3.57,1.52,1.52,0,0,0-.58-1.25,2.08,2.08,0,0,0-1.61.24,5.09,5.09,0,0,0-1.94,3.39c-0.3,1.53-.52,3.07-0.83,4.59a0.89,0.89,0,0,1-.64.52c-0.72.07-1.45,0-2.37,0Z" transform="translate(-3276.43 -453.02)"/><path class="cls-1" d="M3470,570.92c0.3,2.59,1.5,3,5.54,1.79l0.22,2.06a13.2,13.2,0,0,1-1.92.62c-1.66.28-3.33,0.47-4.88-.5a4.26,4.26,0,0,1-1.81-4.24,9,9,0,0,1,1-3.12,6,6,0,0,1,6.39-3.35,3.43,3.43,0,0,1,2.53,2.18c0.39,2-.4,3.14-1.43,3.55a23.46,23.46,0,0,1-3.82,1A9.16,9.16,0,0,1,3470,570.92Zm0.12-2.3,0.27,0.33a11.33,11.33,0,0,0,2.5-.29,3.72,3.72,0,0,0,1.49-1.26,1.14,1.14,0,0,0-.39-0.95,2.87,2.87,0,0,0-1.89.05A12.45,12.45,0,0,0,3470.15,568.63Z" transform="translate(-3276.43 -453.02)"/><path class="cls-1" d="M3389.48,571.23c0,1.71,1.22,3,5.39,1.52a0.36,0.36,0,0,1,.11.14c0,0.63.28,1.6,0,1.81a4.7,4.7,0,0,1-2.36.76,8.28,8.28,0,0,1-3.32-.21c-2.16-.78-3-2.46-2.6-5.1a6.71,6.71,0,0,1,4-5.55,4.81,4.81,0,0,1,4.69.18,2.8,2.8,0,0,1,1.25,2.95,2.57,2.57,0,0,1-1.87,2.38C3393,570.55,3391.3,570.84,3389.48,571.23Zm0.19-2.18c1.14-.19,2.16-0.3,3.17-0.54a1.17,1.17,0,0,0,.93-1.57,1.22,1.22,0,0,0-1.7-.71C3390.76,566.64,3390.16,567.67,3389.67,569Z" transform="translate(-3276.43 -453.02)"/><path class="cls-1" d="M3410.95,571.22c0.06,2.19,1.32,2.59,5.38,1.51a0.71,0.71,0,0,1,.12.23c0.21,1.94.22,2-1.76,2.43-1.8.37-3.66,0.51-5.18-.81-1.79-1.55-1.67-3.61-1.08-5.61,0.84-2.86,3.18-5.1,6.5-4.81a3.45,3.45,0,0,1,3.13,2.47,3,3,0,0,1-2,3.5C3414.45,570.6,3412.74,570.85,3410.95,571.22Zm0.18-2.19c1.13-.18,2.16-0.3,3.15-0.52a1.23,1.23,0,0,0,1-1.56,1.39,1.39,0,0,0-1.72-.72C3412.22,566.63,3411.63,567.67,3411.12,569Z" transform="translate(-3276.43 -453.02)"/><path class="cls-1" d="M3408.61,564.36l-4.49,8.08c-0.27.48-.55,1-0.77,1.47a2,2,0,0,1-2.41,1.4,7.26,7.26,0,0,0-1.36,0l-1.86-10.89h3l0.92,7.67c1.13-2.3,2.34-4.8,3.59-7.28a0.91,0.91,0,0,1,.65-0.41C3406.73,564.33,3407.59,564.36,3408.61,564.36Z" transform="translate(-3276.43 -453.02)"/><path class="cls-1" d="M3334.49,561.65l-0.49,2.7h2.42l-0.46,2.11a1.25,1.25,0,0,1-.23.07c-0.71.05-1.61-.13-2.09,0.23s-0.36,1.24-.48,1.9c-0.19,1-.41,2-0.53,3-0.18,1.62,0,1.78,1.73,1.6-0.06.64-.08,1.28-0.2,1.9a0.67,0.67,0,0,1-.52.34,11.29,11.29,0,0,1-2.57,0,1.62,1.62,0,0,1-1.42-1.74c0.1-1.46.28-2.92,0.48-4.37,0.12-.89.34-1.77,0.53-2.71l-1.45-.15,0.45-2.06,1.46-.09C3331.39,562.33,3332.29,561.63,3334.49,561.65Z" transform="translate(-3276.43 -453.02)"/><path class="cls-1" d="M3492.06,566.53h-1.46l0.44-2.16h1.34c0.22-.73.22-1.67,0.67-2a10.73,10.73,0,0,1,2.82-.94l-0.54,2.9h2.42a8.2,8.2,0,0,1-.36,1.77,1.11,1.11,0,0,1-.93.4c-1.11-.12-1.75.14-1.85,1.42s-0.53,2.55-.64,3.84c-0.13,1.49.14,1.66,1.76,1.41-0.07.66-.13,1.3-0.23,1.92a0.48,0.48,0,0,1-.32.33,14.07,14.07,0,0,1-2.92-.15c-1.51-.35-1.45-1.91-1.22-3.51S3491.7,568.35,3492.06,566.53Z" transform="translate(-3276.43 -453.02)"/><path class="cls-1" d="M3583.65,564.37H3586c-0.26,2.05-.26,2.05-2.79,2.24-0.35,1.75-.73,3.51-1,5.29-0.2,1.14.11,1.37,1.83,1.44l-0.27,2.15a25.19,25.19,0,0,1-2.72,0c-1.27-.14-2.14-1.34-1.78-3.26s0.75-3.79,1.12-5.71H3579l0.27-2.09h1.56c-0.21-2.51,1.66-2.45,3.36-2.87Z" transform="translate(-3276.43 -453.02)"/><path class="cls-1" d="M3328,564.63l-0.2.65c-0.43,1.35-.42,1.31-1.82,1a2.51,2.51,0,0,0-1.43.07,1.42,1.42,0,0,0-.86.89,1.84,1.84,0,0,0,.65,1.15,6.13,6.13,0,0,0,1.37.93,3,3,0,0,1,1.47,3.42,3.28,3.28,0,0,1-2.27,2.49c-1.17.48-4.49,0.52-5.65-.45l0.71-1.87c0.29,0.07.58,0.16,0.89,0.23a16.56,16.56,0,0,0,1.89.38,1.19,1.19,0,0,0,1.44-.89,1.5,1.5,0,0,0-.83-1.71,6.55,6.55,0,0,1-2.08-1.55,3.1,3.1,0,0,1,1-4.48A6.56,6.56,0,0,1,3328,564.63Z" transform="translate(-3276.43 -453.02)"/><path class="cls-1" d="M3424.52,559.4c-0.53,2.81-1,5.57-1.57,8.32-0.44,2.29-.86,4.58-1.35,6.86a1.05,1.05,0,0,1-.68.68,18.35,18.35,0,0,1-2.31,0c0.25-1.37.48-2.66,0.72-3.95q0.85-4.58,1.7-9.17a19.94,19.94,0,0,1,.44-2.19,1,1,0,0,1,.73-0.57A23.2,23.2,0,0,1,3424.52,559.4Z" transform="translate(-3276.43 -453.02)"/><path class="cls-1" d="M3364.5,575.24h-2.92l3-15.8h2.91Z" transform="translate(-3276.43 -453.02)"/><path class="cls-1" d="M3280.17,560.21h2.92c-0.77,4-1.54,7.89-2.3,11.82-0.17.86-.25,1.73-0.46,2.58a1,1,0,0,1-.62.64,22.41,22.41,0,0,1-2.39,0Z" transform="translate(-3276.43 -453.02)"/><path class="cls-1" d="M3561.63,575.24h-2.9l1.9-10.82h2.47l-0.21,1.72c1.08-1.33,2.15-2.38,4-1.88l-0.46,2.42c-2.88,0-3.52,2.18-4.05,4.38C3562,572.42,3561.87,573.81,3561.63,575.24Z" transform="translate(-3276.43 -453.02)"/><path class="cls-1" d="M3338.05,564.4h2.43l-0.13,1.41a10.91,10.91,0,0,1,1.8-1.31,10.45,10.45,0,0,1,2.16-.47c-0.08.51-.11,0.82-0.18,1.11-0.2.8-.11,1.59-1.45,1.72s-2.15,1.44-2.49,2.75c-0.43,1.62-.73,3.28-1,4.94a0.68,0.68,0,0,1-.79.75c-0.69,0-1.38,0-2.24,0Z" transform="translate(-3276.43 -453.02)"/><path class="cls-1" d="M3530.76,565.81c1.19-1.31,2.32-1.89,3.78-1.6a7.11,7.11,0,0,1-.07.83c-0.17.89-.2,1.75-1.56,1.84a2.73,2.73,0,0,0-2.19,2.21c-0.49,1.67-.82,3.38-1.21,5.08l-0.25,1.07h-2.82c0.46-2.46.93-4.92,1.37-7.39a17.64,17.64,0,0,0,.3-2.52c0-.69.19-1.06,1-1,0.56,0,1.12,0,1.69,0v1.45Z" transform="translate(-3276.43 -453.02)"/><path class="cls-1" d="M3346.84,575.26h-2.94l2.07-10.86h2.92Z" transform="translate(-3276.43 -453.02)"/><path class="cls-1" d="M3590.79,564.36l-2.07,10.9h-2.91c0.64-3.45,1.27-6.91,1.95-10.35a0.89,0.89,0,0,1,.65-0.52C3589.13,564.32,3589.85,564.36,3590.79,564.36Z" transform="translate(-3276.43 -453.02)"/><path class="cls-1" d="M3347.91,563a1.52,1.52,0,0,1-1.59-1.51,1.85,1.85,0,0,1,1.83-1.67,1.52,1.52,0,0,1,1.54,1.46A1.85,1.85,0,0,1,3347.91,563Z" transform="translate(-3276.43 -453.02)"/><path class="cls-1" d="M3591.51,561.28a1.83,1.83,0,0,1-1.68,1.69,1.5,1.5,0,0,1-1.5-1.47,1.6,1.6,0,0,1,1.71-1.71A1.51,1.51,0,0,1,3591.51,561.28Z" transform="translate(-3276.43 -453.02)"/><path class="cls-1" d="M3318.94,496.43c2.67,0.41,5.34,1,8,1.19,4.28,0.38,8.58.58,12.87,0.81,2,0.11,4,.23,6,0.17,3.31-.1,6.61-0.35,9.91-0.52a0.66,0.66,0,0,1,.26.13c-1.52.13-3,.32-4.56,0.37-4,.12-8,0.22-12,0.22-2,0-3.92-.26-5.88-0.4s-3.74-.2-5.6-0.43c-2.95-.36-5.88-0.84-8.81-1.27A0.79,0.79,0,0,1,3318.94,496.43Z" transform="translate(-3276.43 -453.02)"/><path class="cls-1" d="M3376.3,507.94c-2.42.58-4.82,1.23-7.25,1.74-3,.64-6.11,1.24-9.18,1.75-2.6.43-5.23,0.7-7.84,1l-1,.12c0.63-.16,1.26-0.36,1.91-0.46,3.22-.49,6.45-0.87,9.65-1.43s6.29-1.29,9.44-1.93C3373.48,508.49,3374.89,508.22,3376.3,507.94Z" transform="translate(-3276.43 -453.02)"/><path class="cls-1" d="M3345.95,495.8a1.91,1.91,0,0,1-.53.17c-4.26.07-8.51,0.23-12.77,0.16-3.08,0-6.15-.39-9.22-0.6a0.39,0.39,0,0,1-.15-0.12A184.31,184.31,0,0,0,3345.95,495.8Z" transform="translate(-3276.43 -453.02)"/><path class="cls-1" d="M3372.73,492c-3.11.65-6.21,1.32-9.32,1.94-1.1.22-2.23,0.29-3.34,0.43l4.14-.76,7.47-1.44C3372,492.15,3372.38,492.1,3372.73,492Z" transform="translate(-3276.43 -453.02)"/><path class="cls-1" d="M3357,494.87c-2,.24-4,0.5-6,0.71-1.52.16-3,.27-4.57,0.38a1.92,1.92,0,0,1-.56-0.14,0.63,0.63,0,0,1,.23-0.15l9.91-.82A9.49,9.49,0,0,1,3357,494.87Z" transform="translate(-3276.43 -453.02)"/><path class="cls-1" d="M3372.93,496l7.63-1.76,1.89-.42-8,1.93C3374,495.89,3373.44,495.94,3372.93,496Z" transform="translate(-3276.43 -453.02)"/><path class="cls-1" d="M3364,497.41c1.39-.25,2.77-0.52,4.16-0.73,1.6-.25,3.21-0.45,4.82-0.67-1.73.32-3.46,0.68-5.21,1C3366.51,497.17,3365.25,497.27,3364,497.41Z" transform="translate(-3276.43 -453.02)"/><path class="cls-1" d="M3379.87,490.07l-5.54,1.61Z" transform="translate(-3276.43 -453.02)"/><path class="cls-1" d="M3358.41,498l5.61-.61Z" transform="translate(-3276.43 -453.02)"/><path class="cls-1" d="M3345.64,455.05l3.2-.24,0,0.28-3.2.23Z" transform="translate(-3276.43 -453.02)"/><path class="cls-1" d="M3352.7,455.17h-2.92v-0.25h2.92v0.25Z" transform="translate(-3276.43 -453.02)"/><path class="cls-1" d="M3347.5,512.91l-4.17.5a1.49,1.49,0,0,1,.53-0.3C3345.07,513,3346.29,513,3347.5,512.91Z" transform="translate(-3276.43 -453.02)"/><path class="cls-1" d="M3342.41,456.29l1-.27a0.83,0.83,0,0,1,0,.34c-0.3.1-.6,0.16-0.91,0.23Z" transform="translate(-3276.43 -453.02)"/><path class="cls-1" d="M3371.16,469.58h-0.79v-0.16l0.68-.24,0.15,0.22,0,0v0.2Z" transform="translate(-3276.43 -453.02)"/><path class="cls-1" d="M3359.35,468.54l-0.42.15,0-.13,0.43-.12Z" transform="translate(-3276.43 -453.02)"/><path class="cls-1" d="M3350.53,456.14l-0.45,0v-0.21h0.6l0,0Z" transform="translate(-3276.43 -453.02)"/><path class="cls-1" d="M3365.4,470l-0.61.17,0-.15h0.66Z" transform="translate(-3276.43 -453.02)"/><path class="cls-1" d="M3365.43,470l0.16-.37,0.13,0.1-0.31.25Z" transform="translate(-3276.43 -453.02)"/><path class="cls-1" d="M3350.68,455.88l0.22,0.1-0.39.15,0.2-.28Z" transform="translate(-3276.43 -453.02)"/><path d="M3371.18,469.4l-0.15-.22h0Z" transform="translate(-3276.43 -453.02)"/><path class="cls-1" d="M3371.35,469.6l-0.2,0v0h0.21Z" transform="translate(-3276.43 -453.02)"/><path class="cls-1" d="M3371.36,469.4v0.2h0v-0.2Z" transform="translate(-3276.43 -453.02)"/><path class="cls-1" d="M3371.18,469.4l-0.13-.23,0.32,0.22v0h-0.23Z" transform="translate(-3276.43 -453.02)"/><path class="cls-1" d="M3350.71,455.86l-0.2.28h0Z" transform="translate(-3276.43 -453.02)"/><path class="cls-1" d="M3378.93,512.49c-2.67.54-5.32,1.11-8,1.59-2.33.42-4.67,0.77-7,1.1-2,.27-4,0.47-5.93.7-1.72.2-3.44,0.43-5.17,0.6-1.29.12-2.59,0.18-3.88,0.23-1.67.07-3.34,0.12-5,.17,1.09-.12,2.18-0.29,3.27-0.36,2.32-.16,4.66-0.22,7-0.43,2.73-.26,5.44-0.61,8.16-1s5.56-.76,8.32-1.2S3376.17,513,3378.93,512.49Z" transform="translate(-3276.43 -453.02)"/><path class="cls-1" d="M3344,516.87a14.94,14.94,0,0,1-1.61.2c-3.78.08-7.56,0.17-11.34,0.18-2.5,0-5-.15-7.51-0.24a0.65,0.65,0,0,1-.24-0.14c0.64,0,1.28.05,1.92,0.05l16.56,0Z" transform="translate(-3276.43 -453.02)"/><path d="M3371.14,469.37h0.23v0.23h-0.23v-0.23Z" transform="translate(-3276.43 -453.02)"/></svg>