<svg xmlns="http://www.w3.org/2000/svg" viewBox="0 0 301.68 301.72"><defs><style>.cls-1{fill:#fff;}.cls-2{fill:#fdfdfd;}</style></defs><title>mito emblem white</title><g id="Layer_2" data-name="Layer 2"><g id="mito_emblem" data-name="mito emblem"><path class="cls-1" d="M148.54,0h6.32c.06.15.19.12.31.12,1.35.06,2.71.09,4.06.16A147,147,0,0,1,182.5,3.36a150.75,150.75,0,0,1,118.39,132,153.77,153.77,0,0,1-1.37,41.17A150.75,150.75,0,0,1,146,301.65a150.14,150.14,0,0,1-26.06-3.08,148.63,148.63,0,0,1-37.83-13.38A150.72,150.72,0,0,1,0,147.76a154.77,154.77,0,0,1,1.21-16.39,146.76,146.76,0,0,1,6.68-28.9A150.68,150.68,0,0,1,131.09,1.32c4.75-.62,9.51-1,14.29-1.2Zm138,150c0-2.12,0-4.25,0-6.38a108.48,108.48,0,0,0-1.67-17.25c-.74-4.08-1.36-8.2-2.46-12.21-1.45-5.28-3.52-10.35-5.44-15.47-.86-2.33-2.62-4.06-4.34-5.78a1.67,1.67,0,0,0-1.91-.21c-.46.17-.87.44-.89,1a11.2,11.2,0,0,0,.63,4.8c1.25,3,2.14,6,3.09,9.07A71.59,71.59,0,0,1,276.74,124c.18,2.7.32,5.4.51,8.1a95.22,95.22,0,0,1,.47,11.7A141.71,141.71,0,0,1,275,165.57a134.71,134.71,0,0,1-3.37,14.15,211.06,211.06,0,0,1-11.15,26.9,91.82,91.82,0,0,1-9.21,15.7c-5.51,7.27-11.31,14.26-18.24,20.3-3.95,3.44-7.91,6.85-12.11,10a133.76,133.76,0,0,1-30.65,17.49,89.17,89.17,0,0,1-17.79,5.29c-3.92.68-7.86,1.23-11.79,1.89-2.69.45-5.37.95-8.09,1.19a84.62,84.62,0,0,1-11.26.18c-4.65-.17-9.3-.39-13.94-.82a152.45,152.45,0,0,1-21.21-3.67A124.71,124.71,0,0,1,78.74,264,107,107,0,0,1,60,252.29c-1.13-.91-2.28-1.8-3.47-2.63a6.91,6.91,0,0,0-5.71-1.12c-1,.23-1.24.63-1,1.6a6,6,0,0,0,.88,2,39.24,39.24,0,0,0,6.92,7.58A135.25,135.25,0,0,0,74,270.91c5.23,3,10.32,6.32,16,8.6,7.77,3.13,15.74,5.68,23.64,8.42a70.33,70.33,0,0,0,12.07,2.67c3.78.6,7.56,1.29,11.38,1.59,2.67.21,5.34.41,8,.67a73.64,73.64,0,0,0,7.57.37c3.66,0,7.3-.4,10.94-.66s7.24-.51,10.85-1c4.12-.52,8.17-1.46,12.23-2.33A114,114,0,0,0,226,272.77c4.12-2.72,7.81-6,11.69-9.07,4.17-3.25,7.7-7.16,11.33-11a110.28,110.28,0,0,0,12.24-15.19A124.66,124.66,0,0,0,271,219.4c2.29-5.15,4.86-10.18,6.57-15.59,1.53-4.81,3.47-9.49,4.48-14.45.92-4.49,1.68-9,2.5-13.51.67-3.69,1.3-7.39,1.64-11.14A95,95,0,0,0,286.51,150Zm-15.93-11.76c0-.85-.07-1.7-.12-2.55-.15-2.5-.17-5-.51-7.49-.48-3.49-1.16-7-1.83-10.42-.95-4.86-1.8-9.75-3-14.54-.86-3.31-2.16-6.5-3.11-9.78a82.37,82.37,0,0,0-6.25-15c-2.88-5.51-6.25-10.76-9.65-16A122.09,122.09,0,0,0,237.88,51a9.08,9.08,0,0,0-3.71-3.07,2.77,2.77,0,0,0-2-.13,1.12,1.12,0,0,0-.7,1.72,12.77,12.77,0,0,0,.79,1.18A156.8,156.8,0,0,1,244,69.9a121.35,121.35,0,0,1,5.78,13.89c1.37,3.75,3,7.39,4,11.29a209.79,209.79,0,0,1,5.59,31,97.8,97.8,0,0,1-.17,20.24,181.84,181.84,0,0,1-3.15,19.56,121.42,121.42,0,0,1-3.9,14.55,82.65,82.65,0,0,1-4,8.73,122.62,122.62,0,0,1-14.06,22.12,155.53,155.53,0,0,1-12.94,14.11,122.93,122.93,0,0,1-34.12,23.28c-3.82,1.81-7.85,3.08-11.81,4.54-2.88,1.06-5.61,2.51-8.61,3.24a119.61,119.61,0,0,1-14.88,3.15c-3.07.34-6.14.54-9.2.76-3.23.24-6.44.6-9.66.76-7.06.35-14.06-.49-21-1.38-3.48-.45-6.89-1.25-10.33-1.89a65.25,65.25,0,0,1-19.71-6.72c-2.11-1.15-4.23-2.28-6.24-3.59a4,4,0,0,0-4.39-.3,1.34,1.34,0,0,0-.66,2.1,7.93,7.93,0,0,0,2.29,2.75,103.59,103.59,0,0,0,10.45,7.32c10.21,5.95,21.44,8.82,32.92,10.91,3.15.58,6.36.8,9.54,1.16,3.89.43,7.76,1,11.67,1.12,2.83.11,5.65.3,8.51.15,3.19-.16,6.41-.05,9.59-.46,4.24-.55,8.49-1.06,12.7-1.89a110.63,110.63,0,0,0,13.37-3.67,148.3,148.3,0,0,0,20.92-8.93c5.91-3,11.29-6.94,16.83-10.57a67.86,67.86,0,0,0,10.24-8.68c2.5-2.47,5.12-4.84,7.37-7.51a173.34,173.34,0,0,0,12.31-16.94c7.17-11,12.93-22.61,16.33-35.38a127.42,127.42,0,0,0,3.92-20.9c.26-2.77.43-5.55.69-8.31A72.93,72.93,0,0,0,270.58,138.24Zm-28.45-5.42a27.28,27.28,0,0,1,0,4.13c0,2.82-.15,5.65-.47,8.47-.38,3.3-1.11,6.56-1.68,9.83a82.43,82.43,0,0,1-10.27,28.39c-4.18,7-8.24,14.1-13.61,20.38a121.49,121.49,0,0,1-17,16.71,128,128,0,0,1-22.39,14.47c-5.2,2.58-10.66,4.53-16.05,6.67a78,78,0,0,1-26.32,5.78,111.5,111.5,0,0,1-14.85-.06c-6.86-.67-13.67-1.67-20.49-2.63a5.8,5.8,0,0,0-3.32.23c-.52.25-.91.59-.68,1.23a2.56,2.56,0,0,0,1,1.44,18.27,18.27,0,0,0,4.11,2c3.62,1,7.22,2,10.88,2.86a133.51,133.51,0,0,0,14.09,2.18,75.16,75.16,0,0,0,15.51.18,142,142,0,0,0,15.61-2.11,100.82,100.82,0,0,0,16.24-4.46c5-1.91,9.88-3.91,14.7-6.19,3.84-1.82,7.66-3.65,11.33-5.79a110.17,110.17,0,0,0,23.32-18.56,86.51,86.51,0,0,0,11.62-14.22c5.41-8.61,10.61-17.28,13.87-27a139.36,139.36,0,0,0,5.25-18.52,111.26,111.26,0,0,0,1.53-23.34c-.07-2.88-.29-5.75-.47-8.63a67.85,67.85,0,0,0-1-9.85c-.63-2.9-1.45-5.77-2.09-8.67-2.05-9.32-4.87-18.38-9.63-26.69-4.44-7.78-8.28-15.9-14.05-22.91a142.25,142.25,0,0,0-13.64-14.86,126.1,126.1,0,0,0-13.21-10,88.34,88.34,0,0,0-12.53-7.5,5.61,5.61,0,0,0-3.79-.47.86.86,0,0,0-.67,1.34A3.06,3.06,0,0,0,184.39,28a31.35,31.35,0,0,1,3.39,2.22,95.16,95.16,0,0,1,13.9,11.43q3.15,3.24,6.39,6.38a67.78,67.78,0,0,1,5.75,6.23,129.35,129.35,0,0,1,8.92,13.44,184.24,184.24,0,0,1,10.6,19.48,87,87,0,0,1,5.56,17.7A122.45,122.45,0,0,1,242.13,132.82Zm-3.94-1.6c0-1.05,0-2.1,0-3.15a83.57,83.57,0,0,0-1.87-16.77,92.06,92.06,0,0,0-3-9.67,130.28,130.28,0,0,0-5.12-14.48c-1.68-3.72-3.92-7.14-5.81-10.74A92.75,92.75,0,0,0,214,63.31a99.05,99.05,0,0,0-10.56-11.6,89.45,89.45,0,0,0-9.13-7.93A125.59,125.59,0,0,0,168,29.51a119.18,119.18,0,0,0-18.81-5.58,54.54,54.54,0,0,0-11.46-1.43,10.3,10.3,0,0,0-3.49.39,1.22,1.22,0,0,0-.94,1c-.05.5.39.8.8,1a15.06,15.06,0,0,0,2,.71c3.46.9,7,1.67,10.38,2.69a127,127,0,0,1,22.67,9.2,92.92,92.92,0,0,1,13.89,8.45,105.92,105.92,0,0,1,15,14.51,121.4,121.4,0,0,1,17.27,24.47,98.68,98.68,0,0,1,6.83,16.36,67.32,67.32,0,0,1,1.83,9c.6,3.73,1.22,7.46,1.59,11.22a98.06,98.06,0,0,1,.31,12.24c-.1,3.75-.24,7.51-.68,11.24a134.7,134.7,0,0,1-4.09,19.14,80.54,80.54,0,0,1-5,12.36A78.56,78.56,0,0,1,204,195.17a122.81,122.81,0,0,1-13.84,14.28A138.44,138.44,0,0,1,170.33,223c-6.42,3.73-12.88,7.35-20,9.66a97.3,97.3,0,0,1-17.17,4.18,132.54,132.54,0,0,1-15.42,1.06,14.09,14.09,0,0,0-4.83.51,1,1,0,0,0-.74.91c0,.5.3.7.69.86a24.69,24.69,0,0,0,8.05,2c7.1.5,14.2.74,21.27-.56,3.86-.71,7.77-1.15,11.57-2.2a103,103,0,0,0,22.95-9.63,179.45,179.45,0,0,0,17.88-11.7A91.08,91.08,0,0,0,206.65,208a109,109,0,0,0,18.1-24.5,113.68,113.68,0,0,0,6.67-13.9A103.55,103.55,0,0,0,238.19,131.22Zm-119.1-99c-.85,0-1.7,0-2.55,0a90.08,90.08,0,0,0-13.34.59,32.55,32.55,0,0,0-9,2.11A12,12,0,0,0,90,37.6c-.2.21-.54.41-.37.74a1,1,0,0,0,.87.5,6.17,6.17,0,0,0,2-.24A26,26,0,0,1,98,37.47a97.8,97.8,0,0,1,19,.37c2,.19,3.94.71,5.93.91a14.28,14.28,0,0,1,2.84.25c2.9.86,5.79,1.73,8.71,2.51a82.78,82.78,0,0,1,17.17,6.16Q158,51,164.24,54.35a72.81,72.81,0,0,1,13.48,10.13,52.81,52.81,0,0,1,6.35,6.07q3.19,4,6.35,8a83.56,83.56,0,0,1,10.47,16.5,85.72,85.72,0,0,1,6.61,21,62.51,62.51,0,0,1,1.34,7.53c.21,4,.35,8.11.37,12.16a79.42,79.42,0,0,1-1.55,15.37,112.51,112.51,0,0,1-8,25.46c-2.24,4.94-5.38,9.36-8.33,13.88a60.86,60.86,0,0,1-8.71,10.12c-2.15,2.09-4.37,4.13-6.58,6.16-3.27,3-7.14,5.14-10.88,7.46a67.5,67.5,0,0,1-10.22,5.5c-5.22,2.07-10.49,4-15.74,6a4.79,4.79,0,0,0-1.46.74c-.38.32-.85.63-.59,1.24s.6,1.23,1.44,1.22a15.74,15.74,0,0,0,3-.24A105.85,105.85,0,0,0,162.64,222a90.76,90.76,0,0,0,16.48-9,126,126,0,0,0,16.12-14.4c3.69-3.79,7.3-7.7,10-12.37,1.79-3.12,3.8-6.11,5.41-9.34A117,117,0,0,0,217.55,159a63.94,63.94,0,0,0,2.94-14.15c.15-2.07.08-4.16.31-6.22a52.7,52.7,0,0,0-.12-11q-.8-8.16-2-16.25a68.72,68.72,0,0,0-4.4-16.63A86.21,86.21,0,0,0,195.78,67.1c-4.12-4.1-8.54-7.88-12.77-11.86a51.31,51.31,0,0,0-9.09-7c-3-1.74-5.76-3.83-8.91-5.24a127,127,0,0,0-19.65-7.3,89.12,89.12,0,0,0-15.54-2.94C126.25,32.47,122.68,32.36,119.09,32.22Zm-3.7,15a65.41,65.41,0,0,0-21.33,3,43.45,43.45,0,0,0-16.85,9.31,22.89,22.89,0,0,0-6,8.12,2.43,2.43,0,0,0-.28,1c0,.31-.07.66.27.88s.63-.06.86-.25a14.86,14.86,0,0,0,1.52-1.34,30,30,0,0,1,9.59-6.86c7.28-3.08,14.75-5.43,22.78-5.6,4.53-.1,9-.8,13.57-.13,3,.44,6.13.66,9.16,1.15a63.69,63.69,0,0,1,13.9,4.41,91.17,91.17,0,0,1,24.62,15c2.05,1.75,3.69,3.88,5.57,5.79A79.59,79.59,0,0,1,183,94.28a78.8,78.8,0,0,1,7.94,17.58,74.9,74.9,0,0,1,3.82,18.31,135.72,135.72,0,0,1,.28,15.09,74.23,74.23,0,0,1-2.53,17.64,83.24,83.24,0,0,1-9.06,21.55c-2,3.26-3.79,6.67-6.34,9.56a83.31,83.31,0,0,1-13,11.63c-1.75,1.29-3.57,2.49-5.36,3.72a2.7,2.7,0,0,0-1.18,1.59c-.23.84-.11,1,.73,1.15a5.23,5.23,0,0,0,2.75-.57,38.76,38.76,0,0,0,7.8-3.45,68.21,68.21,0,0,0,15.86-14.26A74.12,74.12,0,0,0,195.45,176a116.64,116.64,0,0,0,5.8-15.65,55.39,55.39,0,0,0,1.89-11.54c.28-4.72,1-9.41.77-14.16-.08-2.14.05-4.3-.11-6.45a107.32,107.32,0,0,0-1.56-11.3,86.31,86.31,0,0,0-8.45-24.65c-3.83-7.3-9-13.56-14.78-19.42A74.17,74.17,0,0,0,165.31,62,98.3,98.3,0,0,0,148,52.91a88.43,88.43,0,0,0-16.9-4.32C126,47.73,120.89,46.86,115.39,47.17Zm.51,15.33h-2.83a42.45,42.45,0,0,0-13.88,2.56,34.84,34.84,0,0,0-14.7,10.31A26.74,26.74,0,0,0,82.35,78a25.84,25.84,0,0,0-2.95,7c-1.32,4.07-1.93,8.19-.24,12.33.13.33.12.81.62.83s.67-.39.88-.73a1.61,1.61,0,0,0,.19-.72c.1-1.27.23-2.54.31-3.81a17,17,0,0,1,4.58-10.76,34.18,34.18,0,0,1,16-9.56,44.21,44.21,0,0,1,7.86-1.14,44,44,0,0,1,12.34.46,113.21,113.21,0,0,1,13.94,3.86,61.63,61.63,0,0,1,24.73,15.17c7.83,7.7,13.4,17,17.75,27,4,9.26,5.6,19.06,6.15,29.07a63.63,63.63,0,0,1-2.33,19.23,108.93,108.93,0,0,1-5.33,16.3c-.58,1.32-1.21,2.63-1.81,3.94-.15.34-.21.76.08,1s.72.06,1-.2a14.84,14.84,0,0,0,3-3.14c1.06-1.7,2.08-3.42,3.16-5.11a40.66,40.66,0,0,0,4.34-9.51,98.69,98.69,0,0,0,3.86-17.11c.67-5.19,1.5-10.37.81-15.63-.41-3.11-.42-6.26-1-9.34a97.41,97.41,0,0,0-4.55-16.13,71.67,71.67,0,0,0-15.89-25.27,92.24,92.24,0,0,0-26.34-18.37c-2.75-1.32-5.75-1.83-8.65-2.68A53.17,53.17,0,0,0,115.9,62.5Z"/><path class="cls-2" d="M145.38.12V0h3.16Z"/></g></g></svg>