<svg id="Layer_1" data-name="Layer 1" xmlns="http://www.w3.org/2000/svg" xmlns:xlink="http://www.w3.org/1999/xlink" viewBox="0 0 638.36 668.79"><defs><style>.cls-1{fill:none;}.cls-2{font-size:8.5px;fill:#009260;font-style:italic;}.cls-13,.cls-14,.cls-2{font-family:Futura;}.cls-3{fill:#ffdf00;}.cls-4{fill:#34ceb7;}.cls-5{fill:#ff7226;}.cls-6{fill:#484747;}.cls-7{clip-path:url(#clip-path);}.cls-8{clip-path:url(#clip-path-2);}.cls-9{fill:#6f3;}.cls-10{fill:#1b99c8;}.cls-11{clip-path:url(#clip-path-3);}.cls-12,.cls-14{fill:#f5f5f5;}.cls-13{font-size:21px;fill:#fff;stroke-width:0.69px;letter-spacing:1px;}.cls-13,.cls-14{stroke:#fff;stroke-miterlimit:10;}.cls-14{font-size:14.1px;stroke-width:0.49px;}.cls-15{fill:#ed0606;}.cls-16{fill:#810786;}.cls-17{white-space:pre;}.cls-18{fill:#ff823e;}.cls-19{fill:#5d5c5c;}.cls-20{fill:#4bd4bf;}.cls-21{fill:#ef2222;}.cls-22{fill:#8f2394;}.cls-23{fill:#ffe31d;}.cls-24{fill:#e3ca37;}.cls-25{fill:#e0c31d;}.cls-26{fill:#cf6631;}.cls-27{fill:#c95217;}</style><clipPath id="clip-path" transform="translate(-31.8 -16.44)"><polyline class="cls-1" points="221.23 275.58 221.23 240.46 471.21 240.46 471.21 448.99 221.23 448.99 221.23 275.58"/></clipPath><clipPath id="clip-path-2" transform="translate(-31.8 -16.44)"><rect class="cls-1" x="221.23" y="240.46" width="249.98" height="208.53"/></clipPath><clipPath id="clip-path-3" transform="translate(-31.8 -16.44)"><rect class="cls-1" x="272.19" y="314.17" width="148.06" height="61.79"/></clipPath></defs><title>mito organogram</title><text class="cls-2" transform="translate(430.54 665.29)">*people <tspan x="35.13" y="0">v</tspan><tspan x="39.19" y="0">ec</tspan><tspan x="47.85" y="0">t</tspan><tspan x="50.5" y="0">or icons </tspan><tspan x="83.43" y="0">b</tspan><tspan x="88.48" y="0">y </tspan><tspan x="95.58" y="0">F</tspan><tspan x="99.75" y="0">r</tspan><tspan x="102.95" y="0">eepik f</tspan><tspan x="129.51" y="0">r</tspan><tspan x="132.7" y="0">om </tspan><tspan x="147.18" y="0">f</tspan><tspan x="149.87" y="0">laticon.com</tspan></text><path class="cls-3" d="M173.24,554.11v-0.33a72.29,72.29,0,0,0-.67-10.34c-0.23-1.62-.25-3.11-0.5-4.67s-0.59-3.15-.83-4.67c-0.51-3.24-1.41-6.23-2.17-9.34-0.37-1.52-1-3-1.5-4.5a23.43,23.43,0,0,0-.83-2.5c-0.35-.74-0.83-1.42-1.17-2.17-0.18-.4-0.14-0.93-0.33-1.33s-0.49-.73-0.67-1.17a11.42,11.42,0,0,0-1-2.17c-0.51-.77-0.86-1.54-1.33-2.33a4.52,4.52,0,0,1-1-2.17H160.9a54.44,54.44,0,0,0-4-5.67,26.41,26.41,0,0,1-2.67-3,5.35,5.35,0,0,1-.33-2.67V474.24a2.82,2.82,0,0,1,.67-2.33,18.92,18.92,0,0,0,2.33-4.67,10.94,10.94,0,0,0,.33-2.17c0.09-.68.56-1.46,0.67-2.17a33.54,33.54,0,0,0,0-4.67,6.69,6.69,0,0,0-.33-2.33,9.67,9.67,0,0,1-.67-2.17h-0.33V453.4h-0.33c0.13-1-1.89-2-2.67-2.39s-0.85-.25-1-1.11a9.32,9.32,0,0,1,0-1.5c0-2-.33-3.63-0.33-5.67v-1.33H151.9v-0.67a34.82,34.82,0,0,0-3.17-10,41,41,0,0,0-3.17-5.17c-1.3-1.57-3.32-3-4.34-4.84h-0.33c-1.87-1.24-3.38-2.7-5.34-3.84-0.87-.51-1.74-1-2.67-1.5a10.21,10.21,0,0,1-2.67-1.33h-1a2.92,2.92,0,0,1-1.67-1.17,6.64,6.64,0,0,1,0-1.83v-3.67H107.88v3.84a5.72,5.72,0,0,1,0,2,10.15,10.15,0,0,1-2,.83h-1c-1.38,1.2-3.57,1.85-5.17,2.75a22.6,22.6,0,0,0-2.5,1.75c-0.72.54-1.92,1-2.33,1.83H94.54c-1.07,1.94-3.29,3.51-4.67,5.17a25.68,25.68,0,0,0-3,5,22.64,22.64,0,0,0-1.33,2.67l-0.33,1c-0.15.45-.55,0.9-0.67,1.33-0.26,1-.37,1.77-0.67,2.67a7.52,7.52,0,0,0-.33,2.5H83.2v2H82.86c0,1.3.6,4.71-.33,5.67a8.63,8.63,0,0,1,0,1.67c-0.17.78-.36,0.68-1,1.06-0.85.5-2.77,1.43-2.67,2.61H78.53a10.84,10.84,0,0,0-1.33,4.5v3.34a6,6,0,0,0,.33,1.33,13.72,13.72,0,0,0,.33,2.33c0.24,0.72.47,1.47,0.67,2.17a12.15,12.15,0,0,0,1,2.17c0.19,0.38.1,1,.33,1.33s0.76,0.61,1,1c0.7,1.12.33,3.28,0.33,4.67v18.18c0,0.89.22,2.24-.17,3-0.5,1-1.86,2-2.5,2.83a48.86,48.86,0,0,0-4.34,5.84c-1.94,3.42-4.12,6.69-5.34,10.34-1,3.1-2.39,6.12-3.17,9.34-0.37,1.55-.71,3.15-1.17,4.67a19.08,19.08,0,0,0-.5,2.33c-0.12.71-.4,1.68-0.5,2.33a119.89,119.89,0,0,0-1.67,18.34v0.33a13.37,13.37,0,0,0,1.83,5c1.18,2,3.12,2.84,4.84,4.34h0.67v0.33h2v0.33h6v0.33h5c0.79,1.44,2.53,2.46,3.84,3.34A23.46,23.46,0,0,0,90,570c2.69,1.14,5.43,2.06,8.17,3.08h1.67v0.33h1.33v0.33h2v0.33h2.33v0.33h3v0.33h6v0.33h6.34v-0.33h5.67v-0.33h3.34v-0.33h2v-0.33h2v-0.33h1.67v-0.33h1.33c2.75-1,5.51-1.81,8.17-3.08a31.49,31.49,0,0,0,4.17-2.42c1.28-.86,2.87-1.75,3.67-3.17h5v-0.33h6v-0.33h2l0.67-.67h1c0.44-.89,1.67-1.13,2.33-1.83a20.42,20.42,0,0,0,1.67-2.33,8.48,8.48,0,0,0,1-2.33C172.81,555.91,173.43,555,173.24,554.11Zm-30-53.36c-0.08,1.05-.33,1.85-0.33,3,0,1-.46,1.82-0.33,2.67,0,4.65-1,9-1,13.67h-0.67c-0.93-.78-2.06-1.23-3-2h-0.67a23.65,23.65,0,0,0-5-2.83c-1.62-.81-3.25-1.69-4.84-2.58s-3.25-1.67-4.84-2.58a7.47,7.47,0,0,1-1.33-.83c-0.48-.48-0.82,0-0.33-0.67,0.35-.51,1.94-1.15,2.5-1.5,6.45-4.11,13.13-7.79,19.51-12h0.67C143.56,497.07,143.38,498.76,143.23,500.75ZM120.55,414v14h-6V414h6Zm-13.67,28.35v-0.33h-4v-0.33H99.2v-0.33H95.87v-0.33H93.2v-0.33H90.87c-0.93-.44-0.57-0.8-0.33-1.5,0.17-.5.17-1,0.33-1.5a26.57,26.57,0,0,1,1.33-2.83,28.88,28.88,0,0,1,3.5-5.84,28.5,28.5,0,0,1,6-5.42c1.78-1.25,4.2-1.86,5.84-3.25h0.33v14.67h19.68V420.71h0.67c4.23,2.12,8.65,4.64,11.34,8.5a32.66,32.66,0,0,1,3.67,5.84,20.28,20.28,0,0,1,1,3c0.2,0.8,1.15,1.83.33,2.67h-2.67v0.33h-2.67v0.33h-3v0.33h-4v0.33h-4v0.33h-10v0.33h-1.33v-0.33h-10Zm-6,6v0.33h3.67v0.33h6v0.33h14v-0.33h6v-0.33h3.67v-0.33h3c-3.15,2.64-7.41,3.2-11,5h-1.67v0.33h-1.67v0.33h-2.33v0.33h-6v-0.33h-2.33v-0.33h-1.67c-4.15-1.56-9.15-2.44-12.67-5.34h3Zm12,41.69c-1.71-.85-3.49-1.38-5.17-2.33a23.39,23.39,0,0,1-5-4,33.36,33.36,0,0,1-3.84-5,42.41,42.41,0,0,1-2.5-5,32.72,32.72,0,0,1-2.83-10.17,36.39,36.39,0,0,1-.67-5v-4.84H93.2v0.33h0.67v0.33h0.67c2,1.7,4.91,2.83,7.34,3.84s4.91,1.59,7.34,2.5h1.67v0.33h2.33v0.33h8.34v-0.33h2.33v-0.33h2c2.48-.93,5-1.59,7.5-2.56,1.3-.51,2.58-1.1,3.84-1.72,0.91-.45,2.86-1.08,3.34-2.06h0.67v-0.33h0.67v-0.33h0.33a70,70,0,0,1-.67,9.84v0.67a0.53,0.53,0,0,1-.33.67v0.67a0.53,0.53,0,0,1-.33.67,13.55,13.55,0,0,1-.33,2.33c-0.29.88-.71,1.79-1,2.67a18.59,18.59,0,0,1-.67,2.33c-1.72,3.47-3.39,7.05-6.34,10a24.49,24.49,0,0,1-5,4.17c-1.6.93-3.36,1.51-5,2.33h-1.67v0.33h-6.34v-0.33h-1.67Zm-21,4.67v0.33H92.2c6.38,4.22,13.07,7.9,19.51,12,0.56,0.36,2.15,1,2.5,1.5,0.49,0.73.1,0.23-.33,0.67a7.47,7.47,0,0,1-1.33.83c-1.64.94-3.33,1.83-5,2.67s-3.07,1.7-4.67,2.5a24.15,24.15,0,0,0-5,2.83H97.2c-0.45,1-2.18,1.32-3,2H93.87a3.67,3.67,0,0,0-.33-1.67,12.29,12.29,0,0,1,0-1.83c0-1.16-.33-2.08-0.33-3.34,0-2.26-.67-4.56-0.67-6.84,0-1.15-.25-2-0.33-3s0.15-1.92,0-2.83c0-.2-0.28-0.53-0.33-0.83a4.48,4.48,0,0,1,0-.67,11.1,11.1,0,0,0,0-1.5,18,18,0,0,1-.33-2.83h0.33Zm14.34,69.37v-0.33h-2v-0.33h-1.67c-2.71-1-5.53-1.56-8.17-2.78a15.25,15.25,0,0,1-4.17-2.89c-0.63-.62-3.07-2.65-3-3.67v-6.17a23,23,0,0,0,0-3.17,6.61,6.61,0,0,0-.33-1.5c-0.25-.53-0.68-0.94-1-1.5H83.2c-1.94,1.3-1.33,4-1.33,6.17v6.17H77.53v-0.33h-5c-1.11-1.15,0-3.93,0-5.17v-1.33a6.4,6.4,0,0,1,.33-1.33c0.13-.81-0.12-1.69,0-2.5A108.25,108.25,0,0,1,77,524.77a90.62,90.62,0,0,1,3.84-9.17,35.48,35.48,0,0,1,3-4.67c0.52-.79,1-1.51,1.67-2.33,0.33-.42,1.41-1.56,1.33-2.17H87.2c0,1.33.33,2.22,0.33,3.5s0.33,2.18.33,3.34a26.13,26.13,0,0,0,.33,3.5c0.07,0.6-.08,1.23,0,1.83a6,6,0,0,1,.33,1.5,34,34,0,0,0,.33,4.34c0.09,0.71-.11,1.46,0,2.17a12.28,12.28,0,0,1,.33,2.17h0.33a19.85,19.85,0,0,1,4-2.33c1.32-.66,2.59-1.34,3.84-2.08,2.49-1.49,5.61-2.38,7.84-4.25h0.33c1-.86,2.32-1.17,3.34-2h0.33c-0.75.84-.12,1.7,0,2.5a7,7,0,0,0,.67,2.67,9.84,9.84,0,0,0,2.17,2.42c0.89,0.71,1.89.78,1.83,2.08,0,0.39-.29.82-0.33,1.33,0,0.33,0,.67,0,1a12.3,12.3,0,0,1-.33,2.17c-0.12.82,0.09,1.68,0,2.5a15.74,15.74,0,0,0-.33,2.17c0,1.71-.33,3-0.33,4.67a14.59,14.59,0,0,1-.33,2.33c-0.1.71,0.1,1.46,0,2.17a15,15,0,0,0-.33,2.5,14.11,14.11,0,0,1-.33,2.17,18.08,18.08,0,0,0,0,2.33c0,0.94-.27,1.44-0.33,2.33-0.23,3.06-.67,5.94-0.67,9h-1.33v-0.33h-3Zm26.35-1-1.33.67h-2.33v0.33h-2.67v0.33h-1.67V562c0-1-.33-1.63-0.33-2.67a14.78,14.78,0,0,0-.33-2.5c-0.13-.87.09-1.79,0-2.67-0.32-3-.58-6.2-1-9.17-0.11-.76.11-1.57,0-2.33a13.49,13.49,0,0,1-.33-2.33c0-1.63-.33-2.86-0.33-4.5,0-1-.33-1.53-0.33-2.5a16.77,16.77,0,0,0,0-2.17,15.61,15.61,0,0,1-.33-2.33c0-.39,0-0.78,0-1.17,0-.78-0.42-0.36.17-1.08s1.72-1,2.33-1.75a11.78,11.78,0,0,0,1.5-2.17,11.1,11.1,0,0,0,.67-2.5,14.42,14.42,0,0,0,0-2h0.33c0.45,1,2.18,1.32,3,2h0.67a68.56,68.56,0,0,0,7.67,4.34c2.47,1.24,5.57,2.53,7.67,4.34h0.33c0.16-1.3.31-3,.5-4.34a15.71,15.71,0,0,0,.17-2.17,21.4,21.4,0,0,1,.33-2.17c0-4.69,1-9,1-13.67h0.33c1.06,1.87,2.6,3.39,3.67,5.17s2.11,3.38,3,5.17a59.65,59.65,0,0,1,3.67,9.34c0.47,1.55.85,3.11,1.33,4.67s0.61,3.1,1,4.67c0.18,0.7.38,1.58,0.5,2.33s0.06,1.47.17,2.17c0,0.2.28,0.53,0.33,0.83s0,0.34,0,.5c0.07,0.47.27,0.77,0.33,1.17,0.11,0.71-.11,1.46,0,2.17a6.4,6.4,0,0,1,.33,1.33v1.17a12.78,12.78,0,0,0,.33,2.17c0.15,1,.38,3.76-0.33,4.5H157.9v0.33h-4.34v-6.17c0-1,.08-2.13,0-3.17-0.1-1.36-.67-1.83-1.33-3h-2.67c-1.94,1.3-1.33,4-1.33,6.17v6.17a16.47,16.47,0,0,1-3,3.5,19.34,19.34,0,0,1-3.67,2.67c-2.26,1.3-4.9,1.92-7.34,2.83h-1.67Z" transform="translate(-31.8 -16.44)"/><path class="cls-4" d="M631.24,289.08v-0.33a77.08,77.08,0,0,0-.67-10.84c-0.06-.44.06-0.9,0-1.33s-0.29-.72-0.33-1,0-.79,0-1.17a9.14,9.14,0,0,0-.33-1.17c-0.28-1.71-.28-3.24-0.67-4.84s-0.48-3.29-1-4.84c-0.26-.79-0.47-1.72-0.67-2.5s-0.43-1.54-.67-2.33c-0.49-1.64-.8-3.22-1.33-4.84a37.55,37.55,0,0,0-2-4.67c-0.19-.38-0.15-0.94-0.33-1.33s-0.47-.79-0.67-1.17c-0.4-.76-0.72-1.59-1.17-2.33-0.91-1.51-1.54-3.1-2.5-4.67a54,54,0,0,0-4.5-6.34c-1.6-2.07-4.51-4-5.84-6.34h-0.33c-0.85-.92-0.33-3.77-0.33-5V210.87c0-1.21-.53-3.94,0-5,0.33-.66,2-1.14,2.5-1.83a25.22,25.22,0,0,0,1.67-2.33,13,13,0,0,0,1.17-2.5,17.43,17.43,0,0,0,1-2.33c0.14-.9.36-1.65,0.5-2.5s0.4-1.67.5-2.33c0.54-3.54-.13-7.37-2.33-9.84a6.8,6.8,0,0,0-2.5-1.75c-0.6-.26-1.91-0.35-2.33-0.83s-0.05-1.72-.17-2.42a8.4,8.4,0,0,1-.33-1.17c0-.33,0-0.67,0-1-0.73-5.88-2.19-12-5.17-17a25.24,25.24,0,0,0-7.5-8c-2.74-1.75-5.79-2.56-8.67-4h-1.67v-0.33h-1.67v-0.33h-2.33V145h-2.67v-0.33H567.54V145h-2.67v0.33h-2.33v0.33H561.2V146h-1.67c-2.88,1.44-6,2.2-8.67,4a22.59,22.59,0,0,0-7.34,7.84c-0.42.77-.92,1.44-1.33,2.17a12.3,12.3,0,0,0-1,2.17c-0.23.7-.54,1.49-0.83,2.17-0.15.35-.39,0.83-0.5,1.17s-0.32.9-.33,1c-0.24,1.52-.79,2.88-1,4.34-0.11.75-.23,1.27-0.33,2-0.05.38,0.06,0.79,0,1.17a2.85,2.85,0,0,0-.33,1,15.12,15.12,0,0,1-.33,2.5c-0.12.81,0.27,1.63-.33,2.17s-1.68.53-2.33,0.83a6.29,6.29,0,0,0-2.5,1.83c-2.21,2.86-2.17,5.9-2.17,9.67v0.33h0.33v0.33a12.13,12.13,0,0,0,.67,3.84,13.61,13.61,0,0,0,.33,1.67,16.61,16.61,0,0,1,1,2,10.72,10.72,0,0,0,2.33,3.67c0.56,0.55,1.24,1,1.83,1.5s0.83,0.46.83,1.5V222c0,1.23.53,4.08-.33,5h-0.33c-1.35,2.38-4.22,4.24-5.84,6.34-0.83,1.07-1.64,2.07-2.5,3.17a7.53,7.53,0,0,0-1.67,3.17h-0.33c-1.12,1.72-1.81,3.63-2.83,5.34a16.93,16.93,0,0,0-1.17,2.67c-0.38,1-1,1.85-1.33,2.83-2.07,6.22-4.29,12.53-5.34,19.18a119.66,119.66,0,0,0-1.67,19v0.33a4.38,4.38,0,0,0,.33,1.5,15.09,15.09,0,0,0,.67,1.67,11.05,11.05,0,0,0,.67,1.67,16.81,16.81,0,0,0,1,1.5c1.69,2.11,3.8,3.05,6.34,4h4.34v0.33h6.34v0.33h1.67c0.82,1.48,2.57,2.42,3.84,3.42a22.66,22.66,0,0,0,4,2.5,82.63,82.63,0,0,0,8.17,3.08h1.67v0.33h1.67v0.33h1.67v0.33h2.67v0.33h3v0.33h21v-0.33h3v-0.33h2.67v-0.33h1.67v-0.33h1.67v-0.33h1.67a81,81,0,0,0,8-3c2.6-1.3,6.19-3.37,7.67-6h2v-0.33h6.34v-0.33h4.34c2.53-.95,4.65-1.9,6.34-4a15.9,15.9,0,0,0,1.17-1.67,12.4,12.4,0,0,0,.5-1.5C630.63,291.38,631.46,290.15,631.24,289.08Zm-63.37-67.37c-2.93-1.47-5.76-2.42-8.34-4.5a27.44,27.44,0,0,1-6.67-8.17,53.4,53.4,0,0,1-3.67-8.17A27,27,0,0,1,548,196.7c-0.21-1.34-.68-2.67-0.83-4h3v-0.33h1.67V192h1.67c4.54-1.7,9-3.13,13-5.84,2.26-1.52,4.37-3.22,6.5-4.92a24.66,24.66,0,0,0,5.84-6.25h0.67c0.37,2.4,3.2,4.54,5,6.17a25.68,25.68,0,0,0,6.34,4,45.48,45.48,0,0,0,5.67,2.11c1.23,0.39,2,.19,2,1.56a17.66,17.66,0,0,1,0,2.67c0,0.27-.28.61-0.33,1,0,0.22,0,.45,0,0.67-0.07.51-.26,0.78-0.33,1.33,0,0.22,0,.45,0,0.67a6.2,6.2,0,0,1-.33.67,4.69,4.69,0,0,1,0,.67c0,0.1-.32.59-0.33,0.67a34.15,34.15,0,0,1-1.67,5.67,29.2,29.2,0,0,1-6.84,11.51,28.28,28.28,0,0,1-5.84,4.84c-1.82,1-3.81,1.57-5.67,2.5h-2V222h-5.67v-0.33h-1.67ZM556.53,227a44.68,44.68,0,0,0,9.34,4.67h1.33v0.33h2.33v0.33h6.67v-0.33h2v-0.33h1.67c1.51-.75,3.15-1.12,4.67-1.83a36.55,36.55,0,0,0,4.67-2.83h0.67c3,2,6.07,3.89,8.84,6.09,0.74,0.59,1.47,1.11,2.17,1.75,0.33,0.3,2.38,2,2.33,2.33-0.13.82-3.65,1.91-4.34,2.5h-1c-1.33,1.15-3.36,1.51-5,2.06s-3.35,1-5,1.61h-1.67v0.33h-1.67v0.33h-2v0.33h-2.67v0.33h-4.67v0.33h-5.34v-0.33h-4.34v-0.33h-2.67v-0.33h-2v-0.33H559.2v-0.33h-1.67c-3.46-1.3-7-2-10.34-3.67h-0.67a9.41,9.41,0,0,0-2.33-1.17,4.08,4.08,0,0,1-1.17-.75c-0.55-.62-0.55-0.08-0.17-0.92,0.67-1.48,3.11-3,4.34-4s2.94-1.9,4.34-2.83c0.77-.51,1.56-1,2.33-1.5,0.61-.41,1.67-0.83,2-1.5h0.67Zm-31,61.7c-0.77-.8-0.51-4.23-0.33-5.34a15.31,15.31,0,0,0,.33-2.67c0-1.09.33-1.79,0.33-2.83,0-1.57.67-3.11,0.67-4.67s0.76-3.25,1-4.84a28.7,28.7,0,0,1,1-4.84c0.53-1.59.92-3.27,1.5-4.84,1.2-3.2,2.41-6.4,3.84-9.5a28.1,28.1,0,0,1,1.5-2.5c0.46-.76.89-1.59,1.33-2.33s1.26-1.68,1.83-2.5c0.41-.59,1.44-1.38,1.33-2.17h0.33c2,1.71,5,2,7,3.67h1v0.33h1v0.33h1v0.33h1v0.33h1v0.33h1c1.32,0.5,2.68.84,4,1.33h1.67v0.33h2v0.33h2v0.33h3v0.33h4.34v15.34h5.34V247.72h4.34v-0.33h2.67v-0.33h2.33v-0.33h1.67v-0.33h1.67c1.32-.5,2.68-0.84,4-1.33h1v-0.33h1v-0.33h1v-0.33h1v-0.33h0.67v-0.33h1c2.33-1.17,5.34-2,7.34-3.67h0.33c2.36,3.64,4.93,7,6.67,10.84,0.18,0.4.15,0.93,0.33,1.33s0.5,0.63.67,1c0.36,0.78.61,1.55,1,2.33s0.37,1.73.67,2.5a20.09,20.09,0,0,1,1,2.33c0.41,1.65.8,3.25,1.33,4.84s0.53,3.28,1,4.84a36,36,0,0,1,.67,4.84,5.78,5.78,0,0,1,.33,1.33,6.66,6.66,0,0,0,0,1c0.05,0.34.28,0.7,0.33,1.17s-0.06.79,0,1.17a15.18,15.18,0,0,1,.33,2.5,14.57,14.57,0,0,0,.17,2.33,15.66,15.66,0,0,1,.17,2.5c0,0.85-.35,1.45-0.33,2.17h-6.34v0.33h-3v-9.17a11.05,11.05,0,0,0,0-1.5,7.14,7.14,0,0,1-.33-1.33h-0.33a3,3,0,0,0-2-1.33h-0.33a3.06,3.06,0,0,0-2,1.33h-0.33a1.1,1.1,0,0,1-.33-1h-0.33a17.4,17.4,0,0,0-4.67-5c-1.67-1.25-4.13-1.64-5.67-3h-1.67v-0.33h-2.33V267.4h-3.34v0.33h-2.33v0.33h-1.33c-1.85.93-4.06,1.51-5.67,2.83a21.77,21.77,0,0,0-4.67,5.17h-0.67a18.16,18.16,0,0,0-5.34-5.5,29.47,29.47,0,0,0-6.34-2.83H558.2V267.4h-3.34v0.33h-2.33a28.11,28.11,0,0,0-6.34,2.83,21.61,21.61,0,0,0-3.17,2.5c-0.58.58-2.28,2.18-2.17,3h-0.33a1.1,1.1,0,0,0-.33,1h-0.33a2.4,2.4,0,0,0-1-1h-2.33a2.48,2.48,0,0,0-1,1c-1.06,1.64-.67,4-0.67,6v6h-4.67v-0.33h-4.67Z" transform="translate(-31.8 -16.44)"/><path class="cls-5" d="M177.91,284.24a15.39,15.39,0,0,1,0-2.17,77.8,77.8,0,0,0-1-9.67c-0.11-.89-0.2-1.58-0.33-2.5-0.06-.43-0.27-0.58-0.33-1v-0.67a0.53,0.53,0,0,0-.33-0.67c-0.13-.82-0.23-1.62-0.33-2.33-0.13-.9-0.38-1.65-0.5-2.5a58.35,58.35,0,0,0-2.83-9.84,73.62,73.62,0,0,0-4-9.5v-0.33H167.9v-0.67h-0.33a5.5,5.5,0,0,0-1-2.17c-0.5-.75-0.85-1.6-1.33-2.33s-1.1-1.48-1.67-2.33c-0.41-.61-1.44-1.44-0.67-2.17h1.67c1.21-.45,2.5-0.86,3.67-1.39a7.68,7.68,0,0,0,1.83-1c0.68-.71.14-0.59-0.67-0.88a18.33,18.33,0,0,1-3.5-1.71c-1-.59-2.87-1.61-3.34-2.67h-0.33c0.06-.78-1.27-1.91-1.67-2.5a22.34,22.34,0,0,1-1.67-2.5v-0.33h-0.33a3.78,3.78,0,0,0-.67-1.67h1.33V219h5v-0.33h1.67c1-.49,2-0.84,3-1.33,0.38-.19,1.39-0.54,1.5-1s-0.6-.65-1.17-0.83a16.22,16.22,0,0,1-5.67-3.67,60,60,0,0,1-5-5,18.55,18.55,0,0,1-2-2.67c-0.48-.92-0.74-0.41,0-1.33,0.31-.39.73-0.82,1-1.17a17,17,0,0,0,2.67-5.17,31.28,31.28,0,0,0,1.33-5.17c0.46-3.15.33-7.65-1.67-10.17a8.48,8.48,0,0,0-2.67-2c-0.67-.37-2-0.46-2.5-0.94s-0.44-1.74-.5-2.56-0.33-1.43-.33-2.33a17,17,0,0,0-.67-4.34c-0.41-1.42-.6-2.92-1-4.34a30.68,30.68,0,0,0-3.67-8.67,26.4,26.4,0,0,0-8-8,56.64,56.64,0,0,0-8.67-3.67h-1.33V144h-1.67v-0.33h-2.67v-0.33h-4.67V143h-5v0.33h-4.67v0.33h-2.33V144h-1.67v0.33h-1.67c-2.91,1.46-6.08,2.07-8.84,3.92a28.15,28.15,0,0,0-7.5,7.75c-1.87,2.71-2.65,5.78-3.67,8.84a25.14,25.14,0,0,0-1,4.34,28.26,28.26,0,0,0-.67,4.17,10.24,10.24,0,0,1-.33,2c-0.09.6,0.09,1.24,0,1.83-0.23,1.45-2.1,1.33-3.34,2-3,1.62-4,4.4-4,7.5V187c-0.85.93,0,2.54,0,3.67v0.67a13.72,13.72,0,0,0,.33,2,14.54,14.54,0,0,0,.67,2,19.37,19.37,0,0,0,1.5,4c0.41,0.68.92,1.3,1.33,2,0.27,0.44,1.43,1.51,1.5,2s-0.86,1.61-1.17,2c-0.58.74-1.13,1.31-1.67,2a34.55,34.55,0,0,1-8.17,7.17,8,8,0,0,1-2,1c-1,.33-1.7.44-0.67,1.33a14.13,14.13,0,0,0,4,1.83h1.67V219h5v-0.33h1.33a3.32,3.32,0,0,0-.67,1.67H79.53v0.33a17.48,17.48,0,0,1-1.67,2.5c-0.4.6-1.74,1.7-1.67,2.5H75.86c-1.33.89-2.28,2-3.67,2.83a20.84,20.84,0,0,1-3.34,1.56c-1,.38-1.1.43-0.17,1a12.28,12.28,0,0,0,1.67.92c1.13,0.5,2.34.9,3.5,1.33h1.67c1.23,0.48-.21,1.51-0.67,2.17s-0.87,1.5-1.33,2.17a50.05,50.05,0,0,0-2.67,4.34v0.33H70.52v0.67H70.19v0.33a68.88,68.88,0,0,0-4,9.67c-0.91,3.18-2.36,6.33-2.83,9.67a15.06,15.06,0,0,1-.5,2.5,5.29,5.29,0,0,0-.33,1v0.67a0.53,0.53,0,0,1-.33.67c-0.27,1.7-.43,3.36-0.67,5s-0.45,3.2-.67,4.67c-0.11.76,0.11,1.57,0,2.33a15.25,15.25,0,0,0-.33,2.5,15.33,15.33,0,0,1,0,2.17,6.92,6.92,0,0,0-.33,2.33,37.46,37.46,0,0,0,.67,4.34,10,10,0,0,0,1.33,2.33,23.63,23.63,0,0,0,1.33,2,11.13,11.13,0,0,0,2.33,2c0.76,0.49,1.67.52,2.33,1.17h1.67v0.33h5.34v0.33h6.67c0.88,1.59,2.75,2.76,4.17,3.75a23,23,0,0,0,4.34,2.36c2.91,1.24,5.88,2.11,8.84,3.22h1.67v0.33h1.33v0.33h2.33v0.33h2.33v0.33h3.34v0.33h6v0.33h6.34v-0.33h6v-0.33h3.34v-0.33h2v-0.33h2v-0.33h2v-0.33h1.33c3-1.11,6-1.83,8.84-3.25a41,41,0,0,0,4.5-2.58c1.38-.92,3.16-2,4-3.5h6.67v-0.33h5.34v-0.33h1.67c0.66-.64,1.57-0.7,2.33-1.17a10.49,10.49,0,0,0,2.33-2,13,13,0,0,0,2.33-4.34,26.08,26.08,0,0,0,1-4.34A6.65,6.65,0,0,0,177.91,284.24Zm-67-97.22c1.15,1,3,1.68,3,3.34,0.9,0.91,0,2.37-.33,3.17a5.74,5.74,0,0,1-3,2.5h-4a6.28,6.28,0,0,1-3-2.33c-0.4-.73-1.12-2.18-0.33-3-0.33-2,4.07-2.63,5.34-3.67h2.33Zm21.34,0c0.85,0.74,2,1.15,2.67,2.17a6.86,6.86,0,0,1,.67,2.5,5.89,5.89,0,0,1-1,2.5,7.4,7.4,0,0,1-2.67,1.83h-4.34c-1.06-.92-2.24-1.39-2.83-2.67-0.34-.74-0.93-2.21-0.17-3,0.23-1.47,1.62-2.64,3-3.34h4.67Zm-18,33.35c-1.21-.6-2.46-1.06-3.67-1.67h-0.67c-2.58-1.74-5.4-3.63-7.34-6.17A40.46,40.46,0,0,1,100,209a38.26,38.26,0,0,1-2.17-3.5,50.65,50.65,0,0,1-2.67-7.17c-0.33-1.14-.62-2.37-1-3.5-0.21-.62-0.15-1.2-0.33-1.83a5.25,5.25,0,0,1-.33-1.67h2V191h2.33V190.7H99.2a9.12,9.12,0,0,0,1.33,5.34c1.09,2,3.14,2.74,5,3.67h6c1.87-.93,3.91-1.7,5-3.67a11.72,11.72,0,0,0,.67-1.5,12.3,12.3,0,0,0,.67-1.33,18.6,18.6,0,0,0,0-2.83h2.67c0,2.21.13,3.92,1.33,5.67,1,1.85,3.11,3,5,3.67h6c1.85-.92,3.94-1.76,5-3.67a9.88,9.88,0,0,0,1.33-4.5,9.32,9.32,0,0,0-1.33-4.5v-0.33h-0.33c-0.93-1.69-2.57-2.45-4.34-3.34h-6.67c-1.8.9-3.37,1.59-4.34,3.34h-6a6.91,6.91,0,0,0-1.5-1.75,4.74,4.74,0,0,1-.83-0.58c-0.3-.55-0.15-0.07.33-0.5,1.23-1.09,2.72-2,4-3,0.73-.59,1.27-1.41,2-2a12.15,12.15,0,0,0,2-1.67c0.66-.81,3.07-2.78,3-3.84h0.33c1.88,4.22,6.44,7.72,10.67,9.84a30.26,30.26,0,0,0,5.34,2.25,28.65,28.65,0,0,1,2.83.81c1.25,0.49.66,0.8,0.5,1.95-0.26,1.87-.09,3.62-0.67,5.34-0.29.88-.46,2-0.67,2.83s-0.38,1.65-.67,2.5-0.7,1.89-1,2.83-0.71,1.63-1,2.5a28.3,28.3,0,0,1-3,5.34,29.71,29.71,0,0,1-4.67,5.34c-1.61,1.61-3.65,2.38-5.34,3.84h-0.67c-1,.87-2.52,1.09-3.67,1.67h-2v0.33h-5.34v-0.33h-2Zm-2.67,23v-0.33h-2.67v-0.33h-2v-0.33h-1.67v-0.33h-1.67c-2.78-1.39-6.11-1.85-9-3.06-1.46-.61-2.92-1.24-4.34-1.95a4.74,4.74,0,0,1-1.33-.67c-0.33-.47-0.16-0.24.33-0.83a15.67,15.67,0,0,0,2-2.17h0.33c1-1.68,3.61-2.83,5.17-3.92,1.82-1.27,3.66-2.49,5.5-3.75h0.67c0.6,1.22,3.29,2.17,4.5,2.75,1.57,0.75,3.21,1.31,4.84,1.92h1.33v0.33h2V231h7v-0.33h2v-0.33h1.67c1.55-.78,3.26-1.17,4.84-1.92,1.2-.57,3.9-1.53,4.5-2.75h0.67c1.84,1.24,3.67,2.44,5.5,3.67,1,0.64,1.93,1.28,2.83,2a8.3,8.3,0,0,1,2.33,2h0.33c0.32,0.58,2.35,2,2.33,2.5s-1.45,1.06-2,1.33a43.59,43.59,0,0,1-4.84,2.06c-3.24,1.15-6.63,1.91-9.84,3.11h-1.67v0.33h-2.33v0.33h-2.33v0.33h-1.67v38.69H113.54V243.39h-2Z" transform="translate(-31.8 -16.44)"/><rect class="cls-4" x="462.02" y="244.76" width="166.82" height="46.69" rx="9.8" ry="9.8"/><rect class="cls-5" y="244.76" width="166.82" height="46.69" rx="9.8" ry="9.8"/><rect class="cls-3" x="4.18" y="509.23" width="166.82" height="46.69" rx="9.8" ry="9.8"/><path class="cls-6" d="M406.16,153.68c0-2.25-.67-4.32-0.67-6.5s-1-4.37-1-6.67a11.58,11.58,0,0,0-.5-2,17,17,0,0,0-.5-2,15.46,15.46,0,0,1-.33-2.17c0-.14-0.27-0.82-0.33-1a1.5,1.5,0,0,0-.33-0.83,26.14,26.14,0,0,0-1.33-4.84,51.94,51.94,0,0,0-2-5c-0.17-.38-0.2-0.94-0.33-1.33s-0.52-.91-0.67-1.33a19.84,19.84,0,0,0-1-2.33c-0.83-1.7-1.84-3.31-2.67-5a46.54,46.54,0,0,0-3.34-5c-1.14-1.71-2.7-3.43-4-5a18.54,18.54,0,0,0-2.33-2.33c-0.9-.73-1.76-1.59-2.67-2.33-1.56-1.28-3.47-2.17-5-3.5h-0.67c-1.53,3.36-3.74,6.23-5.34,9.5s-3.32,6.42-5.17,9.5c-0.93,1.54-1.64,3.28-2.5,4.84-0.16.3-.51,0.76-0.67,1a9.88,9.88,0,0,0-.67,1.33A21.56,21.56,0,0,1,360.8,123a41.36,41.36,0,0,0-2.67,4.67c-0.81,1.67-1.73,3.15-2.67,4.84h-0.33a8.25,8.25,0,0,0-.67-3c-0.16-.5-0.16-1-0.33-1.5-0.09-.26-0.24-0.54-0.33-0.83,0,0.08-.28-1.25-0.33-0.83,0.08-.68.75-1,1.17-1.5a6.55,6.55,0,0,0,.83-1.5,6.46,6.46,0,0,0,1-3c0-2.18.11-4.53-1.17-6.17a15.26,15.26,0,0,0-5.84-4.34h-4c-2.32.87-5,2.21-6,4.5a10.68,10.68,0,0,0-1,3,22.35,22.35,0,0,0,0,3,6.51,6.51,0,0,0,1,3.17,6.77,6.77,0,0,0,1,1.5c0.57,0.64.88,0.77,0.83,1.5a6.77,6.77,0,0,1-.5,1.5c-0.19.56-.15,1.11-0.33,1.67a16.36,16.36,0,0,0-.67,1.5,2,2,0,0,1-.33,1.33h-0.33c0.06-.82-1-1.79-1.33-2.5-0.14-.3-0.19-0.71-0.33-1-0.24-.5-0.75-0.83-1-1.33-0.76-1.54-1.58-3.12-2.33-4.67a23.36,23.36,0,0,0-1.33-2.33c-0.51-.78-0.82-1.56-1.33-2.33-1-1.5-1.77-3.26-2.67-4.84-1.77-3.1-3.43-6.32-5-9.5-0.25-.51-0.76-0.83-1-1.33-0.14-.3-0.19-0.71-0.33-1-0.39-.8-1-1.55-1.33-2.33-0.81-1.66-1.82-3.14-2.67-4.84h-1c-0.38.76-1.64,1.37-2.33,1.83s-1.59,1.06-2.33,1.67a64,64,0,0,0-5,4.67c-3,3-5.11,6.66-7.34,10-2.11,3.16-3.35,6.66-5,10a18.76,18.76,0,0,0-.67,2.33c-0.29.88-.7,1.77-1,2.67s-0.41,1.55-.67,2.33-0.86,1.66-.67,2.5H292.1a29.11,29.11,0,0,1-.67,4c-0.17,1.3-.84,2.65-1,4,0,2.3-1,4.31-1,6.67a4,4,0,0,1-.33,1.67c-0.08.54,0.08,1.12,0,1.67-0.15,1-.21,2.16-0.33,3.34a64.15,64.15,0,0,0-.33,6.67,11.78,11.78,0,0,0,2,6.84c1.63,2.44,3.73,3.53,6.34,4.84h2.67v0.33h6.34v0.33h4.34c1.69,3.06,5.7,4.77,8.67,6.17s6,2,9,3.17h1.67v0.33h1.67v0.33h2v0.33h2.33v0.33h3.67v0.33H355.8v-0.33h3.67v-0.33h2.33v-0.33h2v-0.33h2v-0.33h1.33c3-1.12,6.14-1.74,9-3.17a39.87,39.87,0,0,0,4.34-2.33c1.45-1,3.45-2.25,4.34-3.84h4.34v-0.33h6.34v-0.33h2.67c2.61-1.3,5-2.46,6.5-5a12.38,12.38,0,0,0,1.83-6.67V157C406.49,155.76,406.16,154.91,406.16,153.68ZM364.8,140.5h16v6.67h-16V140.5Z" transform="translate(-31.8 -16.44)"/><path class="cls-6" d="M304.77,64.13V64.8a5.37,5.37,0,0,0,.33,2c0.18,0.74.43,1.46,0.67,2.17l0.67,2a19.47,19.47,0,0,0,1,2,10.69,10.69,0,0,0,7,5.92A2.1,2.1,0,0,1,316.11,80c0.08,0.15.27,0.81,0.33,1a9.87,9.87,0,0,0,.33,1,41.73,41.73,0,0,0,2.17,4.17,38.49,38.49,0,0,0,2.33,4,33.79,33.79,0,0,1,3.17,4h0.33v0.33h0.33c1.36,2.43,4.54,4.54,6.84,5.92s4.78,2.22,7.17,3.42h1.67l1.33,0.67h2.67v0.33h5.34v-0.33h2.67l1.33-.67h1.33c2.45-1.22,5-2.1,7.34-3.5s5.59-3.31,7-5.84h0.33V94.15h0.33V93.81h0.33a26.77,26.77,0,0,1,3-3.84A18.2,18.2,0,0,0,375,88.14c0.35-.58.86-1.21,1.17-1.83,0.62-1.26,1.19-2.57,1.83-3.84,0.3-.59.53-1.22,0.83-1.83s0.17-1.5,1-1.83h1.67c1-.82,2.22-1.15,3.17-2a11.89,11.89,0,0,0,2.5-2.83,25.08,25.08,0,0,0,2.33-5.84c0.48-1.91.69-4,1-6a8.64,8.64,0,0,0-.33-2.83c-0.14-.93,0-2.11-0.67-2.83a1.1,1.1,0,0,1-.33-1h-0.33c0.12-.88-1.64-2.27-2.33-2.67s-1.85-.5-2.67-0.94a1.13,1.13,0,0,1-.83-1.06,4.92,4.92,0,0,1-.17-1.33c0-1-.33-1.65-0.33-2.67a33.39,33.39,0,0,0-.67-4.5,24.89,24.89,0,0,0-1-4.34A43.5,43.5,0,0,0,377,29.11a25.23,25.23,0,0,0-7.84-7.84c-2.74-1.83-5.93-2.68-9-3.84h-1.67V17.11H356.8V16.77h-3V16.44h-13v0.33h-2.67v0.33h-1.67v0.33h-1.67c-3.09,1.16-6.25,2-9,3.84a25.05,25.05,0,0,0-7.84,7.84A42.93,42.93,0,0,0,314.11,38c-0.46,1.39-.53,2.93-1,4.34a14.81,14.81,0,0,0-.67,4.5,3.67,3.67,0,0,1-.33,1.67c-0.09.6,0.1,1.24,0,1.83a3.29,3.29,0,0,1-.67,1.42,7.84,7.84,0,0,1-1.67.47,8,8,0,0,0-3.5,2.61,6.45,6.45,0,0,0-.83,1.83,4.53,4.53,0,0,1-.67,1.5v1c-0.57.61-.33,1.72-0.33,2.5S305,63.33,304.77,64.13Zm63.37-6c1.14,0.45,2.32.87,3.5,1.21a5.39,5.39,0,0,1,1.83.51c0.44,0.41.1,0.73,0,1.45-0.17,1.2-.24,2.39-0.33,3.5a14.9,14.9,0,0,1-.67,3.5c-0.21.62-.15,1.2-0.33,1.83s-0.58,1.32-.67,1.83a19.13,19.13,0,0,1-1,3.34c-0.21.63-.42,1.23-0.67,1.83a3.46,3.46,0,0,0-.67,1.67H368.8c-0.21,1.67-1.65,3.26-2.5,4.67a25.33,25.33,0,0,1-4,4.67,23.56,23.56,0,0,1-4.84,3.67c-1.46.85-3.16,1.25-4.67,2h-1.67v0.33h-2.67v0.33h-2V94.15h-3A37.82,37.82,0,0,1,334.79,90a26.37,26.37,0,0,1-7.17-8.17,43.69,43.69,0,0,1-3.84-8.5,26.93,26.93,0,0,1-1-4.34c-0.1-.6-0.57-1.35-0.67-2-0.06-.38.06-0.79,0-1.17a2.84,2.84,0,0,1-.33-1h2.33V64.47h2V64.13h1.33a3.7,3.7,0,0,1,.5,1.67,6.76,6.76,0,0,0,.83,1.67c1.08,2,2.71,2.25,4.34,3.67h2v0.33h3.34V71.14h2c1.6-1.4,3.35-1.69,4.34-3.67h0.33a7.11,7.11,0,0,1,.33-1.5,12.3,12.3,0,0,0,.67-1.33,18.6,18.6,0,0,0,0-2.83h2.67a18.84,18.84,0,0,0,0,2.83c0.14,0.89,1.09,1.92,1,2.83h0.33c0.78,1.7,2.64,2.82,4.34,3.67h2v0.33h3.34V71.14h1.67c2-1,3.62-1.77,4.67-3.67a8.65,8.65,0,0,0,1.33-4.5,9.32,9.32,0,0,0-1.33-4.5V58.13H365.8c-0.36-.64-1-1-1.33-1.67h0.33C365.22,57.37,367.23,57.78,368.14,58.13Zm-24.68-1.5c0.08-.42,1.34-1.11,1.67-1.33,1.07-.74,2-1.68,3-2.5a42.19,42.19,0,0,0,3.17-3,15.86,15.86,0,0,0,2.5-3h0.33c1.57,3.45,5,6.49,8.34,8.67h-0.33l-1-.67h-5.67l-1.33.67h-0.67a2.48,2.48,0,0,0-1,1h-0.67c-0.36.64-1,1-1.33,1.67h-6C344.19,57.65,343.35,57.19,343.46,56.63Zm16.68,1.83a7.07,7.07,0,0,1,2.67,1.83,4.62,4.62,0,0,1,.33,1,9.68,9.68,0,0,1,.67,1.33,6,6,0,0,1-3,4.84h-5.34c-1.34-.9-4.42-3.84-2.67-5.67,0-1.15,1.12-1.7,1.67-2.67h0.67l1-.67h4Zm-20,.67a5.12,5.12,0,0,1,1.5,1.33,4.64,4.64,0,0,0,.5,1.33c0.11,1.05.48,1.77,0,2.83a8.08,8.08,0,0,1-2.67,2.83h-5.34c-1-.65-2.79-2.13-2.67-3.34-0.92-1,0-1.26.83-1.56s1.57-.56,2.33-0.89a19.19,19.19,0,0,0,4.84-2.56h0.67Z" transform="translate(-31.8 -16.44)"/><g class="cls-7"><g class="cls-8"><path class="cls-9" d="M463.36,310.48H337.27v70.24H463.36a7.85,7.85,0,0,1,7.84,7.85V406a7.84,7.84,0,0,1-7.84,7.84H229.07a7.84,7.84,0,0,1-7.84-7.84V388.56a7.85,7.85,0,0,1,7.84-7.85h76.79V310.48H229.07" transform="translate(-31.8 -16.44)"/><path class="cls-10" d="M471.21,312.62v65.95a2.14,2.14,0,0,1-2.14,2.14H223.37a2.14,2.14,0,0,1-2.14-2.14V312.62a2.14,2.14,0,0,1,2.14-2.14H469.06a2.14,2.14,0,0,1,2.14,2.14" transform="translate(-31.8 -16.44)"/><path class="cls-9" d="M337.27,413.87v28.68a6.43,6.43,0,0,1-6.43,6.43H312.3a6.43,6.43,0,0,1-6.43-6.43V413.87h31.41Z" transform="translate(-31.8 -16.44)"/></g></g><g class="cls-11"><g class="cls-11"><path class="cls-12" d="M295.6,319.16h-0.78a1.56,1.56,0,0,0-1.56,1.56v6.47H278a3.9,3.9,0,0,0-3.9,3.9v15.6h-2V374.6a1.37,1.37,0,0,0,1.37,1.37h5.07A1.37,1.37,0,0,0,280,374.6V348.07a1.37,1.37,0,0,0-1.37-1.37H278V332.47a1.37,1.37,0,0,1,1.37-1.37h13.85v6.47a1.56,1.56,0,0,0,1.56,1.56h0.78a1.56,1.56,0,0,0,1.56-1.56V320.72a1.56,1.56,0,0,0-1.56-1.56" transform="translate(-31.8 -16.44)"/><path class="cls-12" d="M326.19,346.7h-0.59V331.1a3.9,3.9,0,0,0-3.9-3.9h-15V315.73a1.56,1.56,0,0,0-1.56-1.56h-0.78a1.56,1.56,0,0,0-1.56,1.56v26.83a1.56,1.56,0,0,0,1.56,1.56h0.78a1.56,1.56,0,0,0,1.56-1.56V331.1h15v15.6h-0.59a1.37,1.37,0,0,0-1.37,1.37V374.6a1.37,1.37,0,0,0,1.37,1.37h5.07a1.37,1.37,0,0,0,1.37-1.37V348.07a1.37,1.37,0,0,0-1.37-1.37" transform="translate(-31.8 -16.44)"/><path class="cls-9" d="M314.2,332.33a6.81,6.81,0,1,0,6.81,6.81,6.81,6.81,0,0,0-6.81-6.81" transform="translate(-31.8 -16.44)"/><path class="cls-12" d="M342,338.25h-4.15a1.36,1.36,0,0,1-1.36-1.36v-4.15h15a1.36,1.36,0,0,1,1.36,1.36v2.79a1.36,1.36,0,0,1-1.36,1.36h-3.77v32.13h4.15a1.36,1.36,0,0,1,1.36,1.36v2.87a1.36,1.36,0,0,1-1.36,1.36H338.34a1.36,1.36,0,0,1-1.36-1.36v-2.87a1.36,1.36,0,0,1,1.36-1.36H342V338.25Z" transform="translate(-31.8 -16.44)"/><path class="cls-12" d="M375.34,376h-3a1.36,1.36,0,0,1-1.36-1.36V338.25h-8a1.36,1.36,0,0,1-1.36-1.36V334.1a1.36,1.36,0,0,1,1.36-1.36h22.63v4.15a1.36,1.36,0,0,1-1.36,1.36h-7.54v36.36a1.36,1.36,0,0,1-1.36,1.36" transform="translate(-31.8 -16.44)"/><path class="cls-12" d="M396.34,371.44V337.27a4.52,4.52,0,0,1,4.52-4.52h14.87a4.52,4.52,0,0,1,4.52,4.52v34.18a4.52,4.52,0,0,1-4.52,4.52H400.86a4.52,4.52,0,0,1-4.52-4.52m10.25-1.36h3.1a4.52,4.52,0,0,0,4.52-4.52V342.7a4.52,4.52,0,0,0-4.52-4.52h-3.1a4.52,4.52,0,0,0-4.52,4.52v22.86a4.52,4.52,0,0,0,4.52,4.52" transform="translate(-31.8 -16.44)"/><rect class="cls-12" x="369.15" y="320.12" width="16.09" height="35.22"/><path class="cls-9" d="M414.22,336.14A2.83,2.83,0,1,0,417,339a2.83,2.83,0,0,0-2.83-2.83" transform="translate(-31.8 -16.44)"/></g></g><text class="cls-13" transform="translate(260.6 389.94)">Cus<tspan x="39.72" y="0">t</tspan><tspan x="47.28" y="0">omer </tspan></text><text class="cls-14" transform="translate(22.17 264.52)">P<tspan x="7.24" y="0">a</tspan><tspan x="15.69" y="0">r</tspan><tspan x="21.48" y="0">tner </tspan><tspan x="50.49" y="0">R</tspan><tspan x="58.75" y="0">elations &amp;</tspan><tspan x="-8.77" y="16.92">Business D</tspan><tspan x="58.05" y="16.92">ev</tspan><tspan x="72.46" y="16.92">elopment</tspan></text><text class="cls-14" transform="translate(495.43 265.01)">Energy Se<tspan x="63.99" y="0">r</tspan><tspan x="69.73" y="0">vices</tspan><tspan x="21.97" y="16.92">Solutions </tspan></text><text class="cls-14" transform="translate(52.34 530.3)">Ope<tspan x="28.43" y="0">r</tspan><tspan x="33.47" y="0">ations</tspan><tspan x="-12.96" y="16.92">&amp; Main</tspan><tspan x="34.1" y="16.92">t</tspan><tspan x="37.94" y="16.92">enance</tspan></text><path class="cls-15" d="M586.55,541.11h15.34v-5.34H586.55v5.34Z" transform="translate(-31.8 -16.44)"/><path class="cls-15" d="M632.57,548.61a6.4,6.4,0,0,1-.33-1.33v-1.33c0-1-.26-1.58-0.33-2.5s-0.21-1.69-.33-2.5c0-.33,0-0.67,0-1s-0.28-.77-0.33-1.17a29,29,0,0,0-.67-4.67c-0.47-1.53-.53-3.16-1-4.67-0.23-.75-0.48-1.59-0.67-2.33s-0.47-1.56-.67-2.33c-0.39-1.58-.83-3-1.33-4.5-0.29-.87-0.67-1.66-1-2.5-0.27-.69-0.36-1.5-0.67-2.17-0.39-.87-1-1.63-1.33-2.5a11.3,11.3,0,0,0-1-2.17c-0.51-.77-0.86-1.54-1.33-2.33a4.79,4.79,0,0,1-1-2.17h-0.33c-1.34-2.06-2.65-4-4.17-6a32,32,0,0,0-2.83-3.17c-0.74-.74-2.25-1.61-2.67-2.5v-7.17c0-1.37-.65-1.57-1.67-2.33-0.77-.58-1.57-1.09-2.33-1.67-0.47-.35-0.85-0.68-1.33-1a1.32,1.32,0,0,0-.67-0.5q-0.68-.14,0-0.5c0-.91.94-1.87,1.33-2.67,0.1-.2.26-0.78,0.33-1a3.23,3.23,0,0,1,.67-1.33,1.62,1.62,0,0,1,1-.67c0.44-.13.91-0.18,1.33-0.33a8,8,0,0,0,2.5-1.5,16.72,16.72,0,0,0,5.17-10.17,33.59,33.59,0,0,0,.33-5,7.85,7.85,0,0,0-.33-2.67,11.35,11.35,0,0,1-.67-2.5h-0.33V453.4h-0.33c0.06-1.12-2.19-2.33-3.17-2.67a7.58,7.58,0,0,1-1.83-.5,4,4,0,0,1-.33-1.83c-0.13-.78.25-0.95,0.67-1.5a2.17,2.17,0,0,0,.67-1.5,29.48,29.48,0,0,0,0-3v-0.67h-0.33v-1a16.31,16.31,0,0,0-1.33-5.17c-0.26-.79-0.41-1.56-0.67-2.33a22.64,22.64,0,0,0-1.33-2.67,25.54,25.54,0,0,0-3-5c-1.38-1.67-3.59-3.22-4.67-5.17h-0.33c-1.79-1.19-3.33-2.63-5.17-3.75-1.63-1-3.47-1.73-5.17-2.58h-0.67a8.72,8.72,0,0,1-2.33-.83,5.74,5.74,0,0,1,0-2V407H567.2v4a7,7,0,0,1,0,2.17,10.63,10.63,0,0,1-2,.83h-1c-1.7.85-3.54,1.6-5.17,2.58-1.84,1.12-3.37,2.56-5.17,3.75h-0.33c-1.06,1.92-3.33,3.53-4.67,5.17a26,26,0,0,0-3,5,22.1,22.1,0,0,0-1.33,2.67,18.14,18.14,0,0,0-1,2.33c-0.28,1.77-1,3.32-1,5.17v0.67h-0.33v1c0,1-.08,2,0,3s0.22,0.86.83,1.67a1.38,1.38,0,0,1,.5,1.33,3.75,3.75,0,0,1-.33,1.83,7.43,7.43,0,0,1-1.83.5c-1,.34-3.3,1.45-3.17,2.67h-0.33v0.33h-0.33a13.81,13.81,0,0,1-.67,2.5,7.88,7.88,0,0,0-.33,2.67,16.57,16.57,0,0,0,.33,5c0.29,0.88.38,1.8,0.67,2.67a17.62,17.62,0,0,0,1,2.33c0.19,0.38.14,0.95,0.33,1.33a13.54,13.54,0,0,0,1,1.33,13.36,13.36,0,0,0,2.17,2.5,8,8,0,0,0,2.5,1.5c0.43,0.16.9,0.21,1.33,0.33a1.62,1.62,0,0,1,1,.67c0.64,0.68.62,1.56,1,2.33s1.42,1.86,1.33,2.67c-0.12,1-1.59,1.42-2.33,2s-1.53,1.24-2.33,1.83c-1.09.81-1.33,0.77-1.33,2.17v7.17c-0.41.89-2.09,1.92-2.83,2.67-1,1-1.66,2-2.67,3a22.76,22.76,0,0,0-2.5,3.17c-0.45.64-1.78,2-1.67,2.83h-0.33c0.12,0.75-1.13,2-1.5,2.67a25.31,25.31,0,0,0-1.17,2.5c-0.8,1.74-1.6,3.41-2.33,5.17a94.82,94.82,0,0,0-3.34,9.34c-0.46,1.54-.63,3.1-1,4.67s-0.78,3.16-1,4.67a125.15,125.15,0,0,0-1.67,18.34v0.33a12.58,12.58,0,0,0,6,9h0.67v0.33h1v0.33h2.33v0.33h6.67v0.33h3.67c0.76,1.35,2.29,2.24,3.5,3.08a28.39,28.39,0,0,0,3.67,2.17c2.44,1.22,5.08,1.87,7.5,3.08h1.67l1.33,0.67h1.67v0.33h2.33v0.33h2v0.33h3.67v0.33h7.34v0.33h1.67v-0.33h7.34v-0.33h3.34v-0.33h2.33v-0.33h2v-0.33h1.67l1.33-.67h1.33a78.38,78.38,0,0,0,7.67-3,32.16,32.16,0,0,0,3.84-2.33,16.63,16.63,0,0,0,1.83-1.5,6.27,6.27,0,0,0,1.67-1.5h3.67v-0.33h6.67v-0.33h2.33v-0.33h1v-0.33h0.67c3.2-2.12,5.72-5.4,6-9v-0.33A34.7,34.7,0,0,0,632.57,548.61Zm-30-48a41.2,41.2,0,0,0-.67,5.84c0,1.33-.33,2.22-0.33,3.5s-0.33,2.18-.33,3.34a26.13,26.13,0,0,1-.33,3.5c-0.12,1,.41,2.59-0.33,3.34h-0.33c-1-.66-2.09-1.25-3-2h-0.67c-2.79-2.43-6.81-3.64-10-5.5-1.63-.95-3.37-1.89-5-2.83-0.93-.54-2.09-0.54-1-1.5a22.89,22.89,0,0,1,2.5-1.42c3.18-2.12,6.52-4,9.84-5.92,1.7-1,3.3-2.18,5-3.17l2.33-1.33c0.69-.4,2-0.92,2.33-1.67h0.33a19.12,19.12,0,0,1-.33,3C602.42,498.68,602.69,499.66,602.55,500.59ZM579.88,414v14h-6V414h6Zm-17,28v-0.33H559.2v-0.33h-3.34v-0.33H553.2v-0.33h-2.67a5.17,5.17,0,0,1-1-.5c-0.17-.37.33-0.43,0.33-0.67a5.77,5.77,0,0,1,.33-1.5,21.43,21.43,0,0,1,1-3,25.44,25.44,0,0,1,3.84-6c3.09-4,7.27-6.39,11.84-8.67h0.33v14.67h19.34V420.38h0.33a50.16,50.16,0,0,1,6.17,3.34c2,1.4,4.43,3.27,5.67,5.34s3.07,3.86,3.84,6.17l1,3a4.27,4.27,0,0,1,.5,1.5c-0.06.66,0,.56-0.83,1h-2.67v0.33h-2.67v0.33h-3.34v0.33h-4v0.33h-4.34v0.33H567.54v-0.33h-4.67Zm-5.67,6.34h3.67v0.33h4v0.33h7v0.33h10v-0.33h7v-0.33h4v-0.33h3.67c-3.21,2.69-7.72,3.19-11.34,5h-1.67v0.33h-1.67v0.33h-3v0.33h-4v-0.33h-3v-0.33h-1.67V453.4h-1.67C564.92,451.59,560.42,451.05,557.2,448.39Zm35,15c-0.23,1.79-1.69,2.85-3.34,3.67h-3.67a6.28,6.28,0,0,1-3-2.33,4.32,4.32,0,0,1-.5-1.67,4.59,4.59,0,0,0,.17-1.33c-0.11-.82.72-1,1.33-1.33h1.67v-0.33h1.67a23.87,23.87,0,0,0,2.33-1h1.33A4.33,4.33,0,0,1,592.22,463.4Zm-20.34-1.67a4.39,4.39,0,0,1-3.34,5.34h-3.67c-1.68-.84-3.1-1.82-3.34-3.67a4.31,4.31,0,0,1,2-4.34h1.33a23.87,23.87,0,0,0,2.33,1h1.67v0.33h1.67C571.11,460.68,572,460.93,571.87,461.73Zm0.33,28.35c-1.71-.85-3.51-1.39-5.17-2.33a23.39,23.39,0,0,1-5-4,31,31,0,0,1-6.5-10,42.26,42.26,0,0,1-2.67-10.17,34,34,0,0,1-.67-5v-4.84h0.67v0.33h0.33v0.33h0.67a19.07,19.07,0,0,0,3.84,2.08,6.67,6.67,0,0,1,1.83.92c0.45,0.65-.77.7-0.67,1.67h-0.33a4.49,4.49,0,0,1-.5,2,8.48,8.48,0,0,0-.17,2,7.71,7.71,0,0,0,1.33,4c0.93,1.69,2.7,2.52,4.34,3.34h2v0.33h2.67V470.4h2a8.62,8.62,0,0,0,4-3.34h0.33c0-.95.86-1.76,1-2.67a18.3,18.3,0,0,0,0-2.67h2.67a18.43,18.43,0,0,0,0,2.67c0.14,0.9,1.05,1.72,1,2.67h0.33c0.72,1.57,2.43,2.55,4,3.34h2v0.33h2.67V470.4h2c1.63-.82,3.4-1.65,4.34-3.34a7.53,7.53,0,0,0,1.33-4,8.15,8.15,0,0,0-1-4c-0.11-.26-0.22-0.62-0.33-0.83-0.37-.69-0.71-0.29-0.33-0.83a6.41,6.41,0,0,1,1.83-.92,18.35,18.35,0,0,0,3.84-2.08h0.67v-0.33h0.33v-0.33h0.67a50.49,50.49,0,0,1-3.67,20,30.59,30.59,0,0,1-6.34,10.17,25,25,0,0,1-5,4c-1.58.91-3.38,1.35-5,2.17h-2v0.33h-5.34v-0.33h-2Zm-21,4.67c0.36,0.73,1.65,1.27,2.33,1.67s1.54,1,2.33,1.5c1.68,1,3.33,2,5,3,3.32,1.93,6.55,3.94,9.84,5.92a13.76,13.76,0,0,1,2.5,1.58c0.67,0.67.72,0.24,0,.83a5.45,5.45,0,0,1-1,.5c-1.7.85-3.29,1.81-5,2.67a96.61,96.61,0,0,0-10,5.67h-0.67c-0.84.72-2.52,1-3,2H553.2c-0.76-.83-0.18-2.46-0.33-3.5a8.71,8.71,0,0,1-.33-1.67,12.45,12.45,0,0,0,0-1.67,50.61,50.61,0,0,1-.67-6.84,41.74,41.74,0,0,0-.67-5.84c-0.14-1,.15-2,0-3,0-.24-0.28-0.49-0.33-0.83a4.84,4.84,0,0,1,0-.67v-1.33h0.33Zm15,69.37v-0.33h-2.33v-0.33H562.2v-0.33h-1.67c-2.43-.91-5-1.48-7.34-2.67a14.55,14.55,0,0,1-3.67-2.83c-1.07-1.07-2.59-2.17-3.34-3.5v-9.84c0-1.58-.59-2.13-2-2.83h-1a3.71,3.71,0,0,0-2.33,3,24.54,24.54,0,0,0,0,3.17v6.5h-3v-0.33h-6c-1-1.06-.16-4.06,0-5.17,0.13-.87-0.12-1.8,0-2.67a15.84,15.84,0,0,0,.33-2.5,30.21,30.21,0,0,1,.67-4.67,37,37,0,0,1,1-4.67c0.46-1.54.53-3.16,1-4.67s1.12-3.1,1.5-4.67a10.67,10.67,0,0,1,.67-2.33,8,8,0,0,0,.5-1.17c0.08-.23.22-0.76,0.33-1a45.13,45.13,0,0,1,2.33-4.67c0.92-1.53,1.67-3.18,2.67-4.67s2.39-2.85,3.34-4.5h0.33a47.68,47.68,0,0,0,.67,6.84,13.09,13.09,0,0,1,0,1.83,9.53,9.53,0,0,0,.33,1.67,25.89,25.89,0,0,1,0,3.34h0.33v2.17a11.31,11.31,0,0,0,.33,2,15.43,15.43,0,0,1,0,2.17c0,0.79.38,1.34,0.33,2h0.67c2.09-1.76,5.1-2.78,7.5-4.09s5.43-2.47,7.5-4.25h0.67c0.93-.78,2.06-1.23,3-2h0.33a16.59,16.59,0,0,0,0,2.5,12.29,12.29,0,0,0,.67,1.33,6.17,6.17,0,0,0,.33,1.33,9.84,9.84,0,0,0,2.17,2.42,8.75,8.75,0,0,1,1.33.83c0.5,0.62.23,0.45,0.17,1.25s0.06,1.56,0,2.33-0.33,1.31-.33,2.17c0,1.7-.33,3-0.33,4.67a14.21,14.21,0,0,1-.33,2.33c-0.11.76,0.11,1.57,0,2.33-0.19,1.39-.26,3.08-0.5,4.5s-0.32,3.22-.5,4.67c-0.09.77,0.11,1.57,0,2.33a13.75,13.75,0,0,0-.33,2.33c0,3-.67,5.88-0.67,9h-1v-0.33H566.2Zm49.69-10.34v0.33h-3.34v-9.84c0-1.58-.59-2.13-2-2.83h-1c-1.53.76-2,1.33-2,3v9.67c-0.74,1.32-2.27,2.43-3.34,3.5a13.38,13.38,0,0,1-3.67,2.67,73.74,73.74,0,0,1-7.34,2.83h-1.67v0.33h-1.67v0.33h-2v0.33h-3v0.33h-1c0-1.88-.33-3.34-0.33-5.17,0-1-.26-1.58-0.33-2.5s0.12-1.8,0-2.67a15.43,15.43,0,0,1-.33-2.33,12.3,12.3,0,0,0-.33-2.17c-0.12-.82.09-1.68,0-2.5a15.74,15.74,0,0,1-.33-2.17c0-1.71-.33-3-0.33-4.67a14.59,14.59,0,0,0-.33-2.33c-0.1-.71.1-1.46,0-2.17-0.2-1.41-.29-3.2-0.5-4.67-0.17-1.18-.68-3.94,0-4.67a11.72,11.72,0,0,1,1.17-.83,7.46,7.46,0,0,0,.83-0.83,6.8,6.8,0,0,0,1.5-2.17,9.84,9.84,0,0,0,1-2.5,13.77,13.77,0,0,0,0-2h0.33c1,0.66,2.09,1.25,3,2h0.67c2.08,1.76,5.07,3,7.5,4.25,1.32,0.66,2.53,1.43,3.84,2.08,1,0.48,2.85,1,3.34,2h1c-0.18-.73.33-1.37,0.33-2.17a14.06,14.06,0,0,1,0-2,12,12,0,0,0,.33-2.17v-2h0.33a25,25,0,0,1,0-3.5,8.71,8.71,0,0,0,.33-1.67,12.44,12.44,0,0,1,0-1.67,49.51,49.51,0,0,0,.67-6.84h0.33c1.06,1.87,2.6,3.39,3.67,5.17s1.9,3.48,3,5.17a31.14,31.14,0,0,1,2,4.67,45.77,45.77,0,0,1,1.67,4.67c0.93,3.06,1.56,6.19,2.33,9.34,0.36,1.49.42,2.93,0.67,4.5a6,6,0,0,1,.33,1.33,6.82,6.82,0,0,0,.17,1.17c0.1,0.64.07,1.46,0.17,2.17a15.24,15.24,0,0,1,.33,2.5,14.35,14.35,0,0,0,0,2.17,5.85,5.85,0,0,1,.33,1.33v1c0,0.7.19,1.62-.33,2.17h-6Z" transform="translate(-31.8 -16.44)"/><rect class="cls-15" x="457.66" y="509.23" width="166.82" height="46.69" rx="9.8" ry="9.8"/><text class="cls-14" transform="translate(503.7 528.47)">Enginee<tspan x="50" y="0">r</tspan><tspan x="55.35" y="0">ing</tspan><tspan x="-27.66" y="16.92">P</tspan><tspan x="-20.18" y="16.92">r</tspan><tspan x="-15.17" y="16.92">oject Management</tspan></text><text x="-31.8" y="-16.44"/><rect class="cls-6" x="220.61" y="112.12" width="195.42" height="70.64" rx="13.04" ry="13.04"/><text class="cls-14" transform="translate(283.34 127.39)">A<tspan x="10.23" y="0">ccounting</tspan><tspan x="-54.09" y="16.92">Co</tspan><tspan x="-36.02" y="16.92">r</tspan><tspan x="-30.67" y="16.92">po</tspan><tspan x="-14.02" y="16.92">r</tspan><tspan x="-8.98" y="16.92">a</tspan><tspan x="-0.67" y="16.92">t</tspan><tspan x="3.17" y="16.92">e &amp; P</tspan><tspan x="36.89" y="16.92">r</tspan><tspan x="41.9" y="16.92">oject </tspan><tspan x="75.77" y="16.92">F</tspan><tspan x="82.82" y="16.92">inance</tspan><tspan x="-30.19" y="33.84">Comme</tspan><tspan x="17.57" y="33.84">r</tspan><tspan x="22.57" y="33.84">cial Se</tspan><tspan x="64.16" y="33.84">r</tspan><tspan x="69.9" y="33.84">vices</tspan><tspan x="6.96" y="50.76">Solutions</tspan></text><path class="cls-16" d="M407.4,643c-0.05-.39-0.27-0.69-0.33-1.17a10,10,0,0,1,0-1.33v-1a6,6,0,0,0-.33-1.33c-0.12-.76.12-1.58,0-2.33,0-.27-0.27-0.62-0.33-1a7.88,7.88,0,0,1,0-1.17,2.92,2.92,0,0,0-.33-1.33c-0.07-.43.07-0.9,0-1.33-0.12-.79-0.55-1.88-0.67-2.67-0.16-1-.19-1.83-0.33-2.83-0.12-.8-0.71-1.67-0.67-2.5s-0.38-1.61-.5-2.33c-0.06-.38-0.24-1-0.33-1.33s-0.45-.88-0.5-1.17a29.75,29.75,0,0,0-1.33-4.84,84,84,0,0,0-3.34-8.5,89,89,0,0,0-4.84-8.5c-3.62-6-9.41-11.49-15.51-15.67h-1a1.57,1.57,0,0,1-.33,1.17,11.91,11.91,0,0,1-.33,1.33c-0.45.91-.88,1.76-1.33,2.67a11.89,11.89,0,0,0-.33,1.33c-0.14.43-.52,0.91-0.67,1.33-0.3.9-.7,1.76-1,2.67a43.25,43.25,0,0,1-2.33,5.34,11.91,11.91,0,0,0-.33,1.33c-0.14.43-.52,0.91-0.67,1.33-0.3.91-.7,1.76-1,2.67a43.15,43.15,0,0,1-2.33,5.34,11.9,11.9,0,0,0-.33,1.33c-0.14.43-.52,0.91-0.67,1.33-0.3.91-.7,1.76-1,2.67A42.67,42.67,0,0,1,362,617.8a11.9,11.9,0,0,0-.33,1.33c-0.14.43-.52,0.91-0.67,1.33a17.9,17.9,0,0,1-1,2.5c0,0.87-.73,1.86-1,2.67s-0.64,1.81-1,2.67-1,1.85-1.33,2.83a10,10,0,0,1-1,2.5,7.94,7.94,0,0,1-.83,2.33c-0.39.76-.61,1.57-1,2.33-0.75,1.45-1.2,3.16-1.83,4.67s-1.45,3.18-2,4.84c-0.48,1.44-1.55,2.95-1.67,4.5H348a9.06,9.06,0,0,0-.67-1.83,9.62,9.62,0,0,0-.67-1.33c-0.09-.18.09-0.49,0-0.67a16.75,16.75,0,0,1-1-2,7.86,7.86,0,0,0-.5-1.17c-0.15-.28,0-0.56-0.17-0.83-1.17-2.59-2.24-5.21-3.34-7.84-1-2.32-1.68-4.76-2.83-7-0.59-1.14-1-2.48-1.5-3.67s-0.95-2.34-1.33-3.5a56.68,56.68,0,0,0-3-7c-0.1-.21-0.27-0.82-0.33-1s-0.21-.54-0.33-0.83c-0.23-.55-0.44-1.12-0.67-1.67-0.47-1.13-.95-2.34-1.33-3.5a56.66,56.66,0,0,0-3-7c-0.1-.21-0.27-0.82-0.33-1s-0.21-.54-0.33-0.83c-0.23-.55-0.44-1.12-0.67-1.67-0.47-1.13-.95-2.35-1.33-3.5a25.89,25.89,0,0,0-1.5-3.5c-0.58-1.12-.94-2.36-1.5-3.5-0.1-.21-0.27-0.82-0.33-1s-0.21-.54-0.33-0.83c-0.23-.55-0.44-1.12-0.67-1.67-0.47-1.13-.76-2.19-1.33-3.34h-0.67a56.84,56.84,0,0,0-15,14.67A57.56,57.56,0,0,0,296,609.47c-0.41,1.23-.92,2.43-1.33,3.67-0.2.61-.49,1.23-0.67,1.83s-0.58,1.31-.67,1.83a11.55,11.55,0,0,1-.33,2,13.88,13.88,0,0,0-.67,1.67,20.43,20.43,0,0,1-.67,3.34c-0.76,2.28-.67,4.85-1.33,7.17a28.52,28.52,0,0,0-.5,3.67c-0.16,1.09-.35,2.47-0.5,3.5a14.16,14.16,0,0,0,0,2,9.06,9.06,0,0,1-.33,1.67,23.6,23.6,0,0,0,0,3.34,24.82,24.82,0,0,0,0,3.67s0.29,0.87.33,1c0.09,0.28.07,0.57,0.17,0.83a2.64,2.64,0,0,1,.5,1.67h0.33c-0.05,1,1.71,3,2.5,3.67,1.15,0.94,2.78,1.33,3.84,2.33h1.67v0.33H303V659h6.67c1.73,0.87,3.07,2.43,4.67,3.5a39.58,39.58,0,0,0,4.34,2.5c2.92,1.46,6,2.2,9,3.34H329v0.33h1.67V669h2v0.33H335v0.33h2.67V670h4v0.33H355V670h3.67v-0.33h3v-0.33h2V669h2v-0.33H367v-0.33h1.67c3-1.13,6.06-2,9-3.34a45.45,45.45,0,0,0,4.34-2.5c1.76-1,2.71-2.77,4.67-3.5h6.34v-0.33h5v-0.33h1.67c1.18-1,2.55-1.38,3.67-2.5a21.67,21.67,0,0,0,2.67-3.5A17.39,17.39,0,0,0,407.4,643ZM370,628.14c0.59-1,1.24-1.85,1.83-2.83a11.38,11.38,0,0,1,.83-1.5,3.1,3.1,0,0,0,1-.83h2c0.56,1,1.29,1.77,1.83,2.67s1.13,1.76,1.67,2.67c1.12,1.86,3.07,3.57.5,5.34H369.38C366.78,631.88,368.94,630,370,628.14Z" transform="translate(-31.8 -16.44)"/><path class="cls-16" d="M362,610v-0.33h0.67V609.3H363v-1h0.33V600a3.17,3.17,0,0,0-1.67-3h-1.33c-3,1.14-6.45,1.56-9.34,3h-0.67l-0.67-.67h-3l-1,.67h-0.33c-3.07-1.15-6.27-1.85-9.34-3H334.7c-1.36.68-1.67,1.49-1.67,3v8.67h0.33v0.67h0.33v0.33H334V610h3v-0.33h1.67V609.3h1.67V609h2v-0.33H344V608.3h0.67a17.62,17.62,0,0,0,2,1.33h2.67c0.66-.33,1.68-0.61,2-1.33h1v0.33H354V609h1.67v0.33h1.67v0.33h2V610H362Z" transform="translate(-31.8 -16.44)"/><path class="cls-16" d="M349,563.61c-0.39,1.77,1.3,2.65,2.67,3.34h2.67v0.33h3v-0.33h2c1.06-.53,6.21-1.88,5.5-3.34-0.32-.66-2.49-1.35-3.17-1.61-1-.38-2-0.68-3-1.06h-6.34C350.81,561.53,349.4,562,349,563.61Z" transform="translate(-31.8 -16.44)"/><path class="cls-16" d="M344,560.94h-6.67c-1,.52-2.12.8-3.17,1.25-0.63.27-2.82,1-3,1.75-0.24,1,4.85,2.51,5.84,3h2v0.33h2.67v-0.33h2.67c1.43-.71,3.06-1.22,3-3S345.51,561.49,344,560.94Z" transform="translate(-31.8 -16.44)"/><path class="cls-16" d="M305.35,550.27v0.33a5.35,5.35,0,0,0,.33,2c0.15,0.6.35,1.37,0.5,2a17.65,17.65,0,0,0,1.5,4,19.29,19.29,0,0,0,3,4,14.59,14.59,0,0,0,4,2.33h1.67c-0.2.81,0.37,1.23,0.67,1.83s0.37,1.4.67,2a33.15,33.15,0,0,0,2,3.67c0.83,1.24,1.72,2.53,2.5,3.84a17.37,17.37,0,0,0,1.17,1.83c0.49,0.59,1.43,1,1.33,1.83H325v0.33h0.33c0.81,1.45,2.44,2.48,3.67,3.5a41.7,41.7,0,0,0,3.67,2.67c2.38,1.59,5.13,2.23,7.67,3.5H342v0.33h1.67v0.33h8.67v-0.33H354V590h1.67c2.54-1.27,5.29-1.92,7.67-3.5s5.83-3.47,7.34-6.17h0.33V580h0.33c1.21-2.15,3.18-3.72,4.34-5.84,1-1.85,2.12-3.75,3-5.67,0.39-.85.54-1.85,1-2.67s1.12-.83,2.17-1.13a9.34,9.34,0,0,0,4.84-3.54,20.26,20.26,0,0,0,4-10.34c0.51-3.59.59-7.48-1.67-10.34a8.2,8.2,0,0,0-2.67-2c-0.62-.32-2.06-0.4-2.5-0.92a6.66,6.66,0,0,1-.5-2.58c-0.07-.88-0.28-1.55-0.33-2.33a27.28,27.28,0,0,0-1.67-8.5c-1-3.11-1.81-5.87-3.67-8.67-0.45-.67-0.81-1.51-1.33-2.17s-1.4-1.41-2-2.17a18.38,18.38,0,0,0-4-3.5c-2.68-1.84-5.8-2.57-8.67-4H360v-0.33h-1.67v-0.33h-2v-0.33h-3v-0.33H342.7v0.33H340v0.33H337.7v0.33H336v0.33H334.7c-3,1.12-6,2.07-8.67,3.84a25.91,25.91,0,0,0-7.67,8,42.07,42.07,0,0,0-3.67,8.67c-0.47,1.41-.53,2.93-1,4.34a6.14,6.14,0,0,0-.33,2c0,0.82-.48,1.39-0.33,2.17a15.51,15.51,0,0,1-.33,2.5c-0.13.9,0.19,1.8-.5,2.42a12.19,12.19,0,0,1-2.5,1.08,9.08,9.08,0,0,0-2.33,1.67,7.56,7.56,0,0,0-2,5.17c0,0.9-.46,1.44-0.33,2.33A15.69,15.69,0,0,1,305.35,550.27Zm49.36-17.68c2,4.57,6.72,8,11.34,10.34a42.07,42.07,0,0,0,5.84,2.22c1,0.33,2.32.31,2.5,1.45a3.8,3.8,0,0,1-.33,1.5c-0.06.44,0.06,0.9,0,1.33a33.66,33.66,0,0,1-1,5.67c-0.65,1.94-.9,4-1.83,5.84-0.49,1-.62,2-1.17,3s-0.9,1.89-1.33,2.83a33.46,33.46,0,0,1-4,5.67c-3,4-7.43,5.38-11.67,7.5h-2v0.33h-6V580h-1.67c-3.64-1.36-6.9-2.73-9.67-5.5a35.28,35.28,0,0,1-7-9.5,6.12,6.12,0,0,1-.67-1.83,14.54,14.54,0,0,1-.67-1.67c-0.41-1.22-.92-2.44-1.33-3.67a23.34,23.34,0,0,1-1-3.67,13,13,0,0,0-.33-1.83c-0.2-.69-0.42-1.36.33-1.67h3v-0.33h1.67c4.82-1.81,9.57-3.08,13.84-6a46.09,46.09,0,0,0,6.84-5.17c1.12-1.12,2.51-1.9,3.5-3.17,0.47-.6,2.65-2.5,2.5-3.34h0.33Z" transform="translate(-31.8 -16.44)"/><rect class="cls-16" x="220.63" y="598.14" width="195.42" height="70.64" rx="13.04" ry="13.04"/><text class="cls-14" transform="translate(271.37 622.44)">A<tspan x="10.29" y="0">dminist</tspan><tspan x="53.24" y="0">r</tspan><tspan x="58.28" y="0">ation,</tspan><tspan class="cls-17" x="3.78" y="16.92"> Coo</tspan><tspan x="34.4" y="16.92">r</tspan><tspan x="39.44" y="16.92">dination</tspan><tspan x="1.1" y="33.84">&amp; G</tspan><tspan x="27.22" y="33.84">o</tspan><tspan x="35.27" y="33.84">v</tspan><tspan x="41.97" y="33.84">e</tspan><tspan x="49.63" y="33.84">r</tspan><tspan x="54.98" y="33.84">nance</tspan></text><rect class="cls-1" x="205.57" y="171.08" width="6.25" height="6.82" transform="translate(-91.09 111.28) rotate(-30)"/><ellipse class="cls-18" cx="208.69" cy="174.49" rx="3.13" ry="3.41" transform="translate(-91.09 111.28) rotate(-30)"/><rect class="cls-1" x="215.88" y="165.12" width="6.25" height="6.82" transform="translate(-86.73 115.64) rotate(-30)"/><ellipse class="cls-18" cx="219.01" cy="168.53" rx="3.13" ry="3.41" transform="translate(-86.73 115.64) rotate(-30)"/><path class="cls-5" d="M224,165.26a3.36,3.36,0,0,0,2.75,1.41c7.79,9.41,14.57-10.26,14.57-10.26s-20.49-5.78-16.87,5.92a3.54,3.54,0,0,0-.45,2.93" transform="translate(-31.8 -16.44)"/><rect class="cls-1" x="194.98" y="178.18" width="6.25" height="5.58" transform="translate(-95.75 106.86) rotate(-30)"/><ellipse class="cls-19" cx="198.1" cy="180.98" rx="3.13" ry="2.79" transform="translate(-95.75 106.86) rotate(-30)"/><rect class="cls-1" x="184.66" y="184.14" width="6.25" height="5.58" transform="translate(-100.11 102.5) rotate(-30)"/><ellipse class="cls-19" cx="187.79" cy="186.93" rx="3.13" ry="2.79" transform="translate(-100.11 102.5) rotate(-30)"/><path class="cls-6" d="M182.77,190.15c-0.68-1.17-2.52-1-2.52-1-6.69-7.52-14.71,10-14.71,10s19.1,3.38,16.57-6.44c0,0,1.12-1.45.66-2.57" transform="translate(-31.8 -16.44)"/><rect class="cls-1" x="481.85" y="172.62" width="6.82" height="6.25" transform="translate(58.62 491.68) rotate(-60)"/><ellipse class="cls-20" cx="485.26" cy="175.75" rx="3.41" ry="3.13" transform="translate(58.62 491.68) rotate(-60)"/><rect class="cls-1" x="471.53" y="166.67" width="6.82" height="6.25" transform="translate(58.62 479.77) rotate(-60)"/><ellipse class="cls-20" cx="474.94" cy="169.8" rx="3.41" ry="3.13" transform="translate(58.62 479.77) rotate(-60)"/><path class="cls-4" d="M469.61,167.11a3.36,3.36,0,0,0-.16-3.09c4.26-11.45-16.17-7.48-16.17-7.48s5.24,20.63,13.56,11.65a3.54,3.54,0,0,0,2.77-1.07" transform="translate(-31.8 -16.44)"/><rect class="cls-1" x="493.38" y="178.55" width="5.58" height="6.25" transform="translate(58.95 504.09) rotate(-60)"/><ellipse class="cls-19" cx="496.17" cy="181.68" rx="2.79" ry="3.13" transform="translate(58.95 504.09) rotate(-60)"/><rect class="cls-1" x="503.69" y="184.51" width="5.58" height="6.25" transform="translate(58.95 516.01) rotate(-60)"/><ellipse class="cls-19" cx="506.49" cy="187.63" rx="2.79" ry="3.13" transform="translate(58.95 516) rotate(-60)"/><path class="cls-6" d="M511.78,190.37c-0.68,1.17.39,2.68,0.39,2.68-3.16,9.55,16,7.74,16,7.74s-6.62-18.23-13.86-11.13c0,0-1.81-.24-2.56.71" transform="translate(-31.8 -16.44)"/><rect class="cls-1" x="434.38" y="572.77" width="6.25" height="6.82" transform="translate(-261.28 279.5) rotate(-30)"/><ellipse class="cls-21" cx="437.51" cy="576.18" rx="3.13" ry="3.41" transform="translate(-261.28 279.51) rotate(-30)"/><rect class="cls-1" x="424.07" y="578.73" width="6.25" height="6.82" transform="translate(-265.64 275.15) rotate(-30)"/><ellipse class="cls-21" cx="427.19" cy="582.14" rx="3.13" ry="3.41" transform="translate(-265.64 275.14) rotate(-30)"/><path class="cls-15" d="M422.2,585.41a3.36,3.36,0,0,0-2.75-1.41c-7.79-9.41-14.57,10.26-14.57,10.26s20.49,5.78,16.87-5.92a3.54,3.54,0,0,0,.45-2.93" transform="translate(-31.8 -16.44)"/><rect class="cls-1" x="444.97" y="566.29" width="6.25" height="6.82" transform="translate(-256.62 283.94) rotate(-30)"/><ellipse class="cls-22" cx="448.09" cy="569.7" rx="3.13" ry="3.41" transform="translate(-256.62 283.93) rotate(-30)"/><rect class="cls-1" x="455.29" y="560.33" width="6.25" height="6.82" transform="translate(-252.26 288.29) rotate(-30)"/><ellipse class="cls-22" cx="458.41" cy="563.74" rx="3.13" ry="3.41" transform="translate(-252.26 288.29) rotate(-30)"/><path class="cls-16" d="M463.4,560.47a3.36,3.36,0,0,0,2.75,1.41c7.79,9.41,14.57-10.26,14.57-10.26s-20.49-5.78-16.87,5.92a3.54,3.54,0,0,0-.45,2.93" transform="translate(-31.8 -16.44)"/><rect class="cls-1" x="252.79" y="573.76" width="6.82" height="6.25" transform="translate(-403.3 493.87) rotate(-60)"/><ellipse class="cls-23" cx="256.2" cy="576.89" rx="3.41" ry="3.13" transform="translate(-403.3 493.88) rotate(-60)"/><rect class="cls-1" x="263.1" y="579.72" width="6.82" height="6.25" transform="translate(-403.3 505.78) rotate(-60)"/><ellipse class="cls-23" cx="266.51" cy="582.84" rx="3.41" ry="3.13" transform="translate(-403.3 505.79) rotate(-60)"/><path class="cls-3" d="M271.84,585.52a3.36,3.36,0,0,0,.16,3.09c-4.26,11.45,16.17,7.48,16.17,7.48s-5.24-20.63-13.56-11.65a3.54,3.54,0,0,0-2.77,1.07" transform="translate(-31.8 -16.44)"/><rect class="cls-1" x="241.87" y="567.83" width="6.82" height="6.25" transform="translate(-403.62 481.46) rotate(-60)"/><ellipse class="cls-22" cx="245.28" cy="570.96" rx="3.41" ry="3.13" transform="translate(-403.63 481.46) rotate(-60)"/><rect class="cls-1" x="231.56" y="561.88" width="6.82" height="6.25" transform="translate(-403.62 469.55) rotate(-60)"/><ellipse class="cls-22" cx="234.97" cy="565" rx="3.41" ry="3.13" transform="translate(-403.62 469.55) rotate(-60)"/><path class="cls-16" d="M229.64,562.32a3.36,3.36,0,0,0-.16-3.09c4.26-11.45-16.17-7.48-16.17-7.48s5.24,20.63,13.56,11.65a3.54,3.54,0,0,0,2.77-1.07" transform="translate(-31.8 -16.44)"/><rect class="cls-1" x="80.46" y="333.63" width="5.58" height="6.25"/><ellipse class="cls-24" cx="83.25" cy="336.76" rx="2.79" ry="3.13"/><rect class="cls-1" x="80.46" y="321.72" width="5.58" height="6.25"/><ellipse class="cls-24" cx="83.25" cy="324.85" rx="2.79" ry="3.13"/><path class="cls-25" d="M114.77,335.33c1.35,0,2.13-1.68,2.13-1.68,9.86-2-1.31-17.75-1.31-17.75s-12.48,14.85-2.7,17.57c0,0,.7,1.69,1.89,1.86" transform="translate(-31.8 -16.44)"/><rect class="cls-1" x="80.78" y="346.05" width="5.58" height="6.25"/><ellipse class="cls-26" cx="83.57" cy="349.17" rx="2.79" ry="3.13"/><rect class="cls-1" x="80.78" y="357.96" width="5.58" height="6.25"/><ellipse class="cls-26" cx="83.57" cy="361.08" rx="2.79" ry="3.13"/><path class="cls-27" d="M115.65,383.48c-1.35,0-2.13,1.68-2.13,1.68-9.86,2,1.31,17.75,1.31,17.75s12.48-14.85,2.7-17.57c0,0-.7-1.69-1.89-1.86" transform="translate(-31.8 -16.44)"/><rect class="cls-1" x="79.84" y="333.63" width="6.82" height="6.25"/><ellipse class="cls-23" cx="83.25" cy="336.76" rx="3.41" ry="3.13"/><rect class="cls-1" x="79.84" y="321.72" width="6.82" height="6.25"/><ellipse class="cls-23" cx="83.25" cy="324.85" rx="3.41" ry="3.13"/><path class="cls-3" d="M114.71,335.33a3.36,3.36,0,0,0,2.6-1.68c12-2-1.6-17.75-1.6-17.75s-15.25,14.85-3.3,17.57a3.54,3.54,0,0,0,2.31,1.86" transform="translate(-31.8 -16.44)"/><rect class="cls-1" x="80.16" y="346.05" width="6.82" height="6.25"/><ellipse class="cls-18" cx="83.57" cy="349.17" rx="3.41" ry="3.13"/><rect class="cls-1" x="80.16" y="357.96" width="6.82" height="6.25"/><ellipse class="cls-18" cx="83.57" cy="361.08" rx="3.41" ry="3.13"/><path class="cls-5" d="M115.71,383.48a3.36,3.36,0,0,0-2.6,1.68c-12,2,1.6,17.75,1.6,17.75S130,388.06,118,385.34a3.54,3.54,0,0,0-2.31-1.86" transform="translate(-31.8 -16.44)"/><rect class="cls-1" x="541.85" y="333.88" width="6.82" height="6.25"/><ellipse class="cls-21" cx="545.26" cy="337.01" rx="3.41" ry="3.13"/><rect class="cls-1" x="541.85" y="321.97" width="6.82" height="6.25"/><ellipse class="cls-21" cx="545.26" cy="325.1" rx="3.41" ry="3.13"/><path class="cls-15" d="M576.72,335.58a3.36,3.36,0,0,0,2.6-1.68c12-2-1.6-17.75-1.6-17.75s-15.25,14.85-3.3,17.57a3.54,3.54,0,0,0,2.31,1.86" transform="translate(-31.8 -16.44)"/><rect class="cls-1" x="542.17" y="346.3" width="6.82" height="6.25"/><ellipse class="cls-20" cx="545.59" cy="349.42" rx="3.41" ry="3.13"/><rect class="cls-1" x="542.17" y="358.21" width="6.82" height="6.25"/><ellipse class="cls-20" cx="545.59" cy="361.33" rx="3.41" ry="3.13"/><path class="cls-4" d="M577.73,383.73a3.36,3.36,0,0,0-2.6,1.68c-12,2,1.6,17.75,1.6,17.75S592,388.31,580,385.59a3.54,3.54,0,0,0-2.31-1.86" transform="translate(-31.8 -16.44)"/><rect class="cls-1" x="308.83" y="472.61" width="6.82" height="6.25"/><ellipse class="cls-22" cx="312.24" cy="475.74" rx="3.41" ry="3.13"/><rect class="cls-1" x="308.83" y="460.7" width="6.82" height="6.25"/><ellipse class="cls-22" cx="312.24" cy="463.82" rx="3.41" ry="3.13"/><path class="cls-16" d="M343.7,474.31a3.36,3.36,0,0,0,2.6-1.68c12-2-1.6-17.75-1.6-17.75s-15.25,14.85-3.3,17.57a3.54,3.54,0,0,0,2.31,1.86" transform="translate(-31.8 -16.44)"/><rect class="cls-1" x="158" y="421.21" width="6.25" height="6.82" transform="matrix(0.87, -0.5, 0.5, 0.87, -222.53, 121.01)"/><ellipse class="cls-23" cx="161.13" cy="424.62" rx="3.13" ry="3.41" transform="translate(-222.52 121.01) rotate(-30)"/><rect class="cls-1" x="168.32" y="415.25" width="6.25" height="6.82" transform="translate(-218.16 125.37) rotate(-30)"/><ellipse class="cls-23" cx="171.44" cy="418.66" rx="3.13" ry="3.41" transform="matrix(0.87, -0.5, 0.5, 0.87, -218.17, 125.37)"/><path class="cls-3" d="M176.43,415.39a3.36,3.36,0,0,0,2.75,1.41c7.79,9.41,14.57-10.26,14.57-10.26s-20.49-5.78-16.87,5.92a3.54,3.54,0,0,0-.45,2.93" transform="translate(-31.8 -16.44)"/><rect class="cls-1" x="530.58" y="421.49" width="6.82" height="6.25" transform="translate(-132.54 658.32) rotate(-60)"/><ellipse class="cls-21" cx="533.99" cy="424.62" rx="3.41" ry="3.13" transform="translate(-132.54 658.32) rotate(-60)"/><rect class="cls-1" x="520.26" y="415.54" width="6.82" height="6.25" transform="translate(-132.54 646.41) rotate(-60)"/><ellipse class="cls-21" cx="523.67" cy="418.66" rx="3.41" ry="3.13" transform="translate(-132.54 646.41) rotate(-60)"/><path class="cls-15" d="M518.35,416a3.36,3.36,0,0,0-.16-3.09c4.26-11.45-16.17-7.48-16.17-7.48s5.24,20.63,13.56,11.65a3.54,3.54,0,0,0,2.77-1.07" transform="translate(-31.8 -16.44)"/><rect class="cls-1" x="309.45" y="191.48" width="5.58" height="6.25"/><ellipse class="cls-19" cx="312.24" cy="194.6" rx="2.79" ry="3.13"/><rect class="cls-1" x="309.45" y="203.39" width="5.58" height="6.25"/><ellipse class="cls-19" cx="312.24" cy="206.52" rx="2.79" ry="3.13"/><path class="cls-6" d="M344.32,228.91c-1.35,0-2.13,1.68-2.13,1.68-9.86,2,1.31,17.75,1.31,17.75s12.48-14.85,2.7-17.57c0,0-.7-1.69-1.89-1.86" transform="translate(-31.8 -16.44)"/><rect class="cls-1" x="482.13" y="253.3" width="6.25" height="6.82" transform="translate(-95.14 260.58) rotate(-30)"/><ellipse class="cls-20" cx="485.26" cy="256.71" rx="3.13" ry="3.41" transform="translate(-95.14 260.58) rotate(-30)"/><rect class="cls-1" x="471.82" y="259.25" width="6.25" height="6.82" transform="translate(-99.5 256.22) rotate(-30)"/><ellipse class="cls-20" cx="474.94" cy="262.67" rx="3.13" ry="3.41" transform="matrix(0.87, -0.5, 0.5, 0.87, -99.5, 256.22)"/><path class="cls-4" d="M470,265.94a3.36,3.36,0,0,0-2.75-1.41c-7.79-9.41-14.57,10.26-14.57,10.26s20.49,5.78,16.87-5.92a3.54,3.54,0,0,0,.45-2.93" transform="translate(-31.8 -16.44)"/><rect class="cls-1" x="198.35" y="253.58" width="6.82" height="6.25" transform="translate(-153.24 286.64) rotate(-60)"/><ellipse class="cls-18" cx="201.76" cy="256.71" rx="3.41" ry="3.13" transform="translate(-153.24 286.64) rotate(-60)"/><rect class="cls-1" x="208.66" y="259.54" width="6.82" height="6.25" transform="translate(-153.24 298.55) rotate(-60)"/><ellipse class="cls-18" cx="212.07" cy="262.67" rx="3.41" ry="3.13" transform="translate(-153.24 298.55) rotate(-60)"/><path class="cls-5" d="M217.4,265.35a3.36,3.36,0,0,0,.16,3.09c-4.26,11.45,16.17,7.48,16.17,7.48s-5.24-20.63-13.56-11.65a3.54,3.54,0,0,0-2.77,1.07" transform="translate(-31.8 -16.44)"/></svg>