<svg id="mito_pty_ltd" data-name="mito (pty) ltd" xmlns="http://www.w3.org/2000/svg" viewBox="0 0 1737.91 70.55"><defs><style>.cls-1{fill:#fff;}</style></defs><title>mito tag line</title><path class="cls-1" d="M2194.87,235.08h13.54l-1.72,9.76h-13.34Zm16.79,15.83,3.56-21.9h-25.8l-5.94,37h26.11l0.9-5.91H2191l1.44-9.19h19.26Zm-34.26-40.36L2168.62,266h-6.15l8.7-55.45h6.23Zm-43.27,24.36h13.3l-4,24.94-13.22.08Zm3.81-24.36h-6.23L2123,266h25.93l5.9-37h-19.79Zm-32.48,49.38h-13.31l1.58-9.76H2107Zm-16.84-15.75L2085.11,266H2111l5.89-37h-26l-1,5.91h19.52l-1.48,9.27h-19.34ZM2065,266l4.92-31.09h-13.29L2051.73,266h-6.23l5.91-37h26l-5.82,37H2065Zm-25.59-55.45-1.72,10.91h-6.15l1.64-10.91h6.23Zm-3,18.46-5.82,37h-6.15l5.74-36.91Zm-29.53,30.93h-13.31l1.58-9.76h13.28Zm-16.84-15.75L1986.59,266h25.86l5.89-37h-26l-1,5.91h19.52l-1.48,9.27H1990.1Zm-17,15.91h-8.93l4-25.18h8.9l1-5.91h-8.94l1.72-10.91h-6.23L1962.89,229h-7.48l-1.06,5.91H1962l-4.9,31.09h15.09Zm-41.75-.25,1.07-7-18.79-4.51,3.12-19.36h26l-2.05,13.45h-6.23l1.07-7.3h-13.29l-1.07,7.3,18.54,4.51-3,18.95-25.84.08,1.56-9.27h6.15l-0.49,3.12h13.29ZM1896.85,229l-5,31.09h-13.25l5-31.09h-6.23l-5.91,37h26l5.94-37h-6.48Zm-45.2,30.84,1.23-7.79-17.72-11.24,3.45-21.82h26l-2.05,13.37h-6.23l1.15-7.3h-13.21l-1.64,9.84,17.55,11.16-3.12,19.85-25.84.08,2.05-13.45h6.23l-1.15,7.3h13.29Z" transform="translate(-1831.23 -210.56)"/><path class="cls-1" d="M2251.06,235.08h13.54l-1.72,9.76h-13.34Zm16.79,15.83,3.56-21.9h-25.8l-5.94,37h26.11l0.9-5.91h-19.52l1.44-9.19h19.26Z" transform="translate(-1831.23 -210.56)"/><path class="cls-1" d="M3548.8,235.08h13.54l-1.72,9.76h-13.34Zm16.79,15.83,3.56-21.9h-25.8l-5.94,37h26.11l0.9-5.91h-19.52l1.44-9.19h19.26Zm-42.3-8.45h6.15l2.13-13.45h-21.84l-5.89,37h6.48l4.93-30.84,9.11-.08ZM3489.82,229l-5,31.09h-13.25l5-31.09h-6.23l-5.91,37h26l5.94-37h-6.48ZM3451.1,260.1h-8.93l4-25.18h8.9l1-5.91h-8.94l1.72-10.91h-6.23L3440.85,229h-7.48l-1.06,5.91h7.61L3435,266h15.09ZM3414.27,229l-5,31.09H3396l5-31.09h-6.23l-5.91,37h26l5.94-37h-6.48Zm-61.2,5.91h8L3356.19,266h6.23l4.93-31.09h11.83l0.9-5.82h-11.81l1.62-10.17h11.73l1-5.82h-18l-2.53,16H3354Zm-34.29.16h-13.21l-4,24.86h13.29ZM3294.5,266l5.91-37h25.92L3318,281.1h-26l0.9-5.82h19.52l1.39-9.27H3294.5Zm-21.25,0,4.92-31.09h-13.29L3260,266h-6.23l5.91-37h26l-5.82,37h-6.56Zm-25.59-55.45-1.72,10.91h-6.15l1.64-10.91h6.23Zm-3,18.46-5.82,37h-6.15l5.74-36.91Zm-24.45,6.07h-13.21l-4,24.86h13.29ZM3196,266l5.91-37h25.92l-8.29,52.09h-26l0.9-5.82h19.52l1.39-9.27H3196Zm-15.42-23.54h6.15l2.13-13.45H3167l-5.89,37h6.48l4.93-30.84,9.11-.08Zm-47.5-7.38h13.54l-1.72,9.76h-13.34Zm16.79,15.83,3.56-21.9h-25.8l-5.94,37h26.11l0.9-5.91h-19.52l1.44-9.19h19.26Zm-55.91-16h12.84l-5,31.09h6.48l6-37h-45.41l-5.86,37h6.23l4.93-31.09h13.21l-5,31.09h6.64Zm-59.06.16h13.54l-1.72,9.76h-13.34Zm16.79,15.83,3.56-21.9h-25.8l-5.94,37h26.11l0.9-5.91H3031l1.44-9.19h19.26Zm-73-15.83h13.54l-1.72,9.76h-13.34Zm16.79,15.83L2999,229h-25.8l-5.94,37h26.11l0.9-5.91h-19.52l1.44-9.19h19.26ZM2945.87,266l4.92-31.09H2937.5L2932.58,266h-6.15l8.7-55.45h6.23l-3,18.46h19.85l-5.82,37h-6.56Zm-31.34-5.91h-8.93l4-25.18h8.9l1-5.91h-8.94l1.72-10.91H2906L2904.28,229h-7.48l-1.06,5.91h7.61l-4.9,31.09h15.09Zm-75.31-25.18h8L2842.34,266h6.23l4.93-31.09h11.83l0.9-5.82h-11.81l1.62-10.17h11.73l1-5.82h-18l-2.53,16h-8.06Zm-22.39,25.18h-13.34l4-24.94,13.33-.08Zm5.3,5.91,5.86-37h-26l-5.9,37h26.05Zm-61.74-6.15,1.07-7-18.79-4.51,3.12-19.36h26l-2.05,13.45h-6.23l1.07-7.3h-13.29l-1.07,7.3,18.54,4.51-3,18.95-25.84.08,1.56-9.27h6.15l-0.49,3.12h13.29Zm-48.23-24.94H2725L2720,266h6.48l6-37H2687l-5.86,37h6.23l4.93-31.09h13.21l-5,31.09h6.64Zm-59.06.16h13.54l-1.72,9.76h-13.34Zm16.79,15.83,3.56-21.9h-25.8l-5.94,37h26.11l0.9-5.91h-19.52l1.44-9.19h19.26Zm-41.48,9.19h-8.93l4-25.18h8.9l1-5.91h-8.94l1.72-10.91h-6.23L2618.16,229h-7.48l-1.06,5.91h7.61l-4.9,31.09h15.09Zm-41.75-.25,1.07-7-18.79-4.51L2572,229h26L2596,242.47h-6.23l1.07-7.3h-13.29l-1.07,7.3L2595,247l-3,18.95-25.84.08,1.56-9.27h6.15l-0.49,3.12h13.29ZM2553.35,229l-4.94,30.93H2535L2540,229h-6.06L2528,266h19.45l-1.48,9.27h-19.52l-0.9,5.82h26l8.31-52.09h-6.48Zm-45.61,30.84,1.07-7L2490,248.37l3.12-19.36h26l-2.05,13.45h-6.23l1.07-7.3h-13.29l-1.07,7.3L2516.1,247l-3,18.95-25.84.08,1.56-9.27h6.15l-0.49,3.12h13.29Zm-50-30.84-4.94,30.93h-13.38l4.95-30.93h-6.06l-5.91,37h19.45l-1.48,9.27h-19.52l-0.9,5.82h26l8.31-52.09h-6.48Zm-40.53,6.07H2404l-4,24.86h13.29ZM2392.89,266l5.91-37h25.92l-8.29,52.09h-26l0.9-5.82h19.52l1.39-9.27h-19.36Zm-15.42-23.54h6.15l2.13-13.45h-21.84L2358,266h6.48l4.93-30.84,9.11-.08Zm-47.5-7.38h13.54l-1.72,9.76h-13.34Zm16.79,15.83,3.56-21.9h-25.8l-5.94,37h26.11l0.9-5.91h-19.52l1.44-9.19h19.26ZM2298.64,266l4.92-31.09h-13.29L2285.35,266h-6.23l5.91-37h26l-5.82,37h-6.56Z" transform="translate(-1831.23 -210.56)"/></svg>