<svg xmlns="http://www.w3.org/2000/svg" viewBox="0 0 1266.43 604.43"><defs><style>.cls-1{fill:#fff;}.cls-2{fill:#fefefe;}</style></defs><title>redT</title><g id="Layer_2" data-name="Layer 2"><g id="redT_energy_storage" data-name="redT energy storage"><path class="cls-1" d="M896,.43c6.58,3.87,8.11,9.76,8.1,17.09q-.23,184.47-.11,369c0,14.44-3.32,17.72-18,17.72h-53.5c-9.66,0-14.12-4.45-14.29-14.24-.07-3.9,0-7.81,0-11.72V366.49c-2.66.78-3.08,3.19-4.38,4.68-20.14,23.11-45.54,36.71-75.8,40.17-35.31,4-68.62-2.79-98.37-22.88-31.43-21.23-51.33-50.94-59.39-87.79-9.3-42.47-7-84.48,11.93-124.24,17.47-36.74,43.65-65.15,84.28-76,36-9.57,71.52-7.37,105.19,10.07a75.43,75.43,0,0,1,24.63,20.67c1,1.3,1.86,4,3.83,3.29s1.66-3.35,1.66-5.29c0-14.07-.07-28.14-.08-42.21,0-23.39.23-46.78-.11-70.16-.1-7,1.43-12.49,7.38-16.4Zm-152.72,330a86.17,86.17,0,0,0,12.84-.92c25.88-3.47,44.52-16.72,55.1-40.72,7-15.89,8.29-32.63,5.67-49.6-3.84-24.93-16-44.32-39.52-55.06-15.33-7-31.57-8-48.15-5.77-23.45,3.14-41.16,14.8-52.16,35.74-9.42,17.92-10.8,37.19-7.57,56.95a71,71,0,0,0,17.2,36.62C701.78,324.62,721.44,330.29,743.28,330.45Z"/><path class="cls-1" d="M1133,.43c4.73,3.05,9.87,5.76,10.68,12.21a41,41,0,0,1,.32,4.95q0,36.46,0,72.92c0,10.75-5.18,16.22-15.94,16.57-4.66.15-9.32,0-14,0q-84.67,0-169.35,0c-6.53,0-12.07-1.63-15.4-7.87a13.81,13.81,0,0,1-1.45-6.72q0-38.49,0-77c0-6.24,2.77-10.69,8.47-13.38.9-.42,2.46-.12,2.62-1.74Z"/><path class="cls-1" d="M1266,98.43c-4.56,6.86-11,8.93-19.07,8.8-23-.36-45.94-.12-68.91-.13-12.24,0-17.55-5-17.63-17.22q-.21-37.53,0-75.07c0-5.49,3-9.67,7.93-12.39,1.21-.66,3-.32,3.64-2h83a24.11,24.11,0,0,1,11,9Z"/><path class="cls-1" d="M408,604.43c-.2-1.86-1.56-2.07-3.08-2.38-7-1.45-13.08-4.92-19-8.9-2.81-1.91-2.87-3.61-.73-5.86a12.55,12.55,0,0,0,1.38-1.45c2.38-3.55,4.11-3.5,7.71-.52,11.78,9.72,25.21,11.48,39.19,5.14,8.5-3.85,11.69-11.68,12.74-20.36.5-4.11.13-8.33.1-12.49,0-.93.34-2.16-.86-2.61s-2.21.19-3.06,1.07c-3.1,3.22-6.32,6.45-10.6,7.91-20.77,7.08-44.81-2-49.79-25.71-5-23.54,7.58-45.48,34.51-46.53,10.51-.41,19.6,2.28,26.15,11.05a2.47,2.47,0,0,0,2.54,1.07c1.36-.22,1.05-1.46,1.11-2.39a12,12,0,0,0,0-3c-.77-4.16,1.32-4.64,4.94-4.88,5.2-.35,6.55,1.26,6.47,6.47-.33,20.33,0,40.66-.2,61a67.68,67.68,0,0,1-2.28,17.08c-3.46,12.7-11.83,20.47-24.42,23.85-1.39.38-3.51-.26-2.86,2.44Zm38.38-75.36c0-16.11-11.2-27.86-26.69-28-15-.1-27,12.21-27.06,27.75s11.84,27.93,26.91,27.94C435.09,556.81,446.35,545.18,446.38,529.07Z"/><path class="cls-1" d="M1106,604.43c1-2.51-.92-2.06-2.26-2.35-8.53-1.85-16.25-5.21-22.09-12.07,1.5-2.35,4-3.74,5.32-6.37,1.18-2.45,3.06-1.18,4.33.17,7.72,8.22,17.46,10.6,28.29,10,13.74-.78,23.26-8.22,24.91-22.81a118.59,118.59,0,0,0,.8-13.82c0-1,.49-2.46-1.09-2.94a2.8,2.8,0,0,0-3.09,1.16c-9.54,12.39-22.52,12.74-35.72,9-13.65-3.83-22.31-13.13-25.13-27.54-2.51-12.86.35-24.47,8.72-34.1,6-7,14.7-10.18,24-11,11.6-1,21.57,2,28.72,11.76a2.18,2.18,0,0,0,2.49,1.08c1.33-.34,1-1.52,1.09-2.45a13,13,0,0,0,0-3c-.7-4.18.54-5.74,5.2-5.61,4.1.13,5.25,1,5.2,5.2-.23,22.3.08,44.61-.2,66.91-.13,10.77-2.75,20.87-11.3,28.48a38.23,38.23,0,0,1-15.13,7.89c-1.27.37-3.41-.2-2.11,2.37Zm-14.64-76.8c-1.19,14.87,9.65,28,24.33,29.08,14.13,1,28.8-7.57,29.23-26.92.33-15.15-8.32-27.1-25.42-28.62C1104.52,499.83,1092.67,511.1,1091.36,527.63Z"/><path class="cls-1" d="M0,520.43c2,1,2-.31,2.35-1.72C8.54,493.49,36.88,484.83,57.22,497c9.4,5.61,16.21,21.6,14.51,33-.47,3.13-2.52,2.1-4.06,2.1-16.64.07-33.28,0-49.92,0-5.31,0-6.15,1.06-4.74,6.06,6.57,23.28,31.57,24.24,44.88,12.39,1.25-1.11,2.19-3.69,4.34-2.53a25.71,25.71,0,0,1,6.09,5c.78.82-.68,1.63-1.3,2.3-6.8,7.39-15.22,11.1-25.25,11.83-12,.87-22.47-2.16-31-11a33.94,33.94,0,0,1-8.41-15.52c-.34-1.35.1-3.28-2.38-2.23Zm36.33,3.34v0H52.27c8.77,0,10.23-2.51,6.18-10.6-.15-.3-.25-.62-.41-.91a23.8,23.8,0,0,0-23.82-11c-11.87,2-19.46,8.87-21.38,19.07-.52,2.77.46,3.51,3.06,3.47C22.71,523.7,29.52,523.77,36.33,523.77Z"/><path class="cls-1" d="M491,604.43c-2.65-3.64-.82-7.4-.43-11.27,5.19,1.07,10.52,1.65,15-.76s6.31-7.28,7.95-12.07c1.06-3.07,1.77-6.29,3.52-9.17,2.52-4.17-.17-7.86-1.7-11.57-8.93-21.77-17.91-43.53-27.09-65.83,3.51,0,6.62.13,9.71,0,2.09-.12,3,.94,3.61,2.62,6.37,16.5,12.72,33,19.2,49.44.67,1.72,1.28,4.13,3.78,4.07s2-2.8,2.54-4.25c6.29-16.23,12.36-32.54,18.55-48.81.93-2.45,9.75-4.48,11.53-2.74.69.67.35,1.47,0,2.27-12.22,30.73-24.35,61.49-36.7,92.17-2.56,6.37-6.3,12-13.74,13.74-1.24.29-1.5,1.12-.78,2.2Z"/><path class="cls-2" d="M1266,9.43a24.11,24.11,0,0,0-11-9h2c3,0,7.17-1.17,8.67.33S1266,6.43,1266,9.43Z"/><path class="cls-1" d="M329,283.2c7.31,29.91,24.38,50.33,54.74,56.72,27.81,5.85,52.09-2.32,72.08-22.67a124.59,124.59,0,0,0,8.86-10.07c1.23-1.57,1.76-2.31,3.76-.84q30.68,22.59,61.53,44.93c3,2.17.44,3.39-.53,4.56-13.21,15.74-28.45,29-46.78,38.61-19,9.93-39.18,15.33-60.52,17.16-34.34,2.93-67.63-1-98.68-16.39-43.42-21.54-72.9-55.35-83-103.33-9-42.69-5.25-84.42,18.73-122.19,24.28-38.24,59.41-61.18,103.75-70.37a201,201,0,0,1,51-3.78c32.79,1.63,62.25,12,86.29,35.15,21.65,20.85,34.49,46.6,40.65,75.76,4.51,21.41,5.37,43.13,4.53,64.95a74.1,74.1,0,0,0,.37,8.28c.18,2.54-.82,3.76-3.46,3.54-1.16-.1-2.33,0-3.5,0H329Zm62-63.52c19.31,0,38.62-.07,57.93.07,3.21,0,4.41-.73,4.1-4.08-.67-7.29-1.92-14.46-5.26-21C434.2,168.05,408.36,158,379.29,164c-28,5.81-44.21,23.34-49.72,51.26-.74,3.72-.14,4.5,3.51,4.48C352.39,219.61,371.7,219.68,391,219.68Z"/><path class="cls-1" d="M103.17,148.8c4.9-7.64,9.82-15.23,15.85-22.08,17.43-19.81,39.21-30.33,65.56-31.26,10.62-.37,21.22-.11,31.72,1.92,2.39.46,3.79,1.05,3.77,4C220,128.2,220,155,220,181.81a9.36,9.36,0,0,1-.36,1.66c-14.91-4.31-30-6.75-45.53-6-12.12.59-24,2.49-35.2,7.46-18.07,8-27.69,22.66-32,41.49-5.88,26-4.8,52.31-4.91,78.59-.13,29,0,57.94,0,86.9,0,8.34-4.21,12.54-12.55,12.54q-33.72,0-67.43,0c-8,0-12.21-4.22-12.21-12.32q0-138.1-.05-276.21c0-8.81,3.81-12.55,12.83-12.58q33.38-.1,66.75-.12c8.46,0,12.65,4.32,12.65,12.89q0,16.14,0,32.27Z"/><path class="cls-1" d="M1034,264.24q0-62.73,0-125.45c0-9.55,5.85-15.34,15.51-15.35H1124c10.25,0,16,5.78,16,16V388.92c0,10-5.35,16-15.46,16.1q-37.5.38-75,0c-10.56-.1-15.59-5.79-15.59-16.33Z"/><path class="cls-1" d="M276.08,553.11c-14.17,15.77-35.39,19-51.72,8.13-13.1-8.76-18.75-27-14.49-43.13,4.23-15.95,20.19-26.25,34.87-26.49,22.77-.38,35.18,16.74,35,37.43,0,3.52-2,3.06-4.16,3.06l-48.93,0c-7.65,0-8.31,1.17-5.39,8.57,7.52,19.07,26.72,20.92,41,12.53.27-.16.41-.64.68-.7,2.85-.66,3.86-5,6.54-4.43C271.84,548.62,273.79,551.29,276.08,553.11Zm-8.17-29.35c-.68-7.83-1.38-10.33-3.73-13.54-6.24-8.55-19.83-11.58-30.08-7.05a22.39,22.39,0,0,0-13.17,15.65c-.58,2.2-1.19,4.93,2.64,4.93Q245.73,523.78,267.91,523.76Z"/><path class="cls-1" d="M1233.14,532.12c-8.48,0-17,.24-25.44-.09-4-.15-4.73,1.7-4,4.72,3.67,14.66,14.63,23.5,30.84,20.7a26.77,26.77,0,0,0,15.48-8c4.42-4.71,5.66,1.67,8.27,2.73,3.18,1.28-.16,3-1.06,3.9-11.36,11.62-25.65,13.66-40.25,9.61-13.72-3.8-22.42-14.17-24.39-28.39-2.82-20.34,4.49-37.32,24.31-43.88,16.57-5.47,32.41.08,41,14.22,4.12,6.75,5.23,14.48,4.73,22.41-.18,2.8-2.15,2-3.61,2C1250.43,532.15,1241.79,532.12,1233.14,532.12Zm-5.9-8.36h16.45c8.29,0,9.27-1.39,6.45-9.23a14.08,14.08,0,0,0-1.39-2.63,23.82,23.82,0,0,0-23.5-10.68c-10.58,1.69-17.9,7-21,17.68-1.22,4.26.47,5,4,4.89C1214.6,523.69,1220.92,523.76,1227.24,523.76Z"/><path class="cls-1" d="M838.19,567.1c-21.46,1-37.52-17.13-38.06-36.36-.65-22.76,17.28-39.36,38.57-39.16,22.38.21,38.88,16.47,38.75,37.95C877.32,550.19,862.38,567.89,838.19,567.1Zm27.19-37.67c.79-15.8-10.33-27.82-26.33-28.22-15.41-.39-27.39,12.25-27.37,28.08,0,16.18,11.68,28.57,26.93,28.47C855.61,557.64,866.47,544.05,865.38,529.43Z"/><path class="cls-1" d="M1044.48,566.06h-3.68c-6.93.06-6.92.06-7.44-6.92-.08-1,.53-2.49-1.06-2.95s-2.17.86-3,1.9c-9.54,11.66-28.81,11.44-38.95,4.45-13.21-9.11-11.61-27.58,2.81-35.36,6.67-3.6,14-4.71,21.34-5.33,2.65-.23,5.39.3,8-.16,3.29-.59,7.92,2.4,9.71-2,2.28-5.58-1.4-13.28-6.88-15.93-10.82-5.23-21.29-3-31,2.71-5.29,3.13-5.79-2-7.7-3.69-2.08-1.83,1.12-3.11,2.44-3.94,12.82-8.07,26.44-9.66,40.59-4.15,8.47,3.29,11.78,10.5,13,18.95,2.06,14.23.47,28.53,1,42.78C1043.72,559.51,1043.39,562.63,1044.48,566.06Zm-22-36c-7.18-.14-14.28.52-21,3.12-5.69,2.2-8.16,6.28-8,12.4s2.42,9.51,8.19,11.71c13.68,5.19,27.78-2.77,30.52-17.25,1.68-8.91.8-10-8.15-10Z"/><path class="cls-1" d="M109.33,535.23c0-12.59.39-25.2-1-37.75-.5-4.52,2.37-3.78,5-3.7s6.14-1.2,5.36,3.75a11,11,0,0,0,0,2.5c.09,1.1-.31,2.51,1.15,3,1.28.41,2.17-.64,3-1.38,2-1.71,3.6-3.77,5.88-5.26,9.8-6.43,20.13-6.32,30.09-1.49,9.6,4.66,12.55,14,12.76,24,.31,14.48-.09,29,.2,43.44.09,4.33-2.24,4-4.93,3.78-2.44-.2-5.69,1.47-5.58-3.62.3-13.47.08-26.94.09-40.41a34.23,34.23,0,0,0-1.78-10.07c-3.3-10.92-13.36-11.92-21-10.5-13,2.41-17.88,10.62-18.74,24.13-.77,12.11-.41,24.3,0,36.44.14,4.63-2.33,4.13-5.19,4.06-2.68-.07-5.57,1-5.35-3.9C109.62,553.21,109.33,544.21,109.33,535.23Z"/><path class="cls-1" d="M668.88,567.07c-9.81.47-17.94-2.09-24.5-9.12-1.85-2-2.29-3.14,0-5.08,3.26-2.72,5.41-5.06,9.79-.53,8.51,8.81,23.85,6.09,28.92.92,5.77-5.88,4.27-13.88-3.18-17.26s-15.54-3.72-23-6.74c-7.27-2.94-12.14-7.69-12.41-15.57s3.35-14.23,10.73-18c10.57-5.45,21.12-5.52,31.75-.23a12.59,12.59,0,0,1,3.6,2.57c1.59,1.67,4.54,3.76,3.66,5.42-1.22,2.31-4.17,4-6.71,5.25-1.74.88-2.64-1.47-3.77-2.52-7.08-6.62-19.74-6.91-25.88-.53-4.19,4.36-3.18,10.64,2,13.65,7,4.06,15,4.34,22.52,6.7,14.67,4.63,18.14,15.72,14,26.95-3.5,9.56-12.24,13.21-22,14.13C672.43,567.23,670.42,567.07,668.88,567.07Z"/><path class="cls-1" d="M749.65,526.42c0,6,0,12,0,18,0,13.08,7.82,14.35,16.94,13.05,1.77-.25,4.59-2.17,4.81.53s3,7.36-3.56,8.38a57.16,57.16,0,0,1-15.31.51c-8-.91-13-7.85-13.12-17.23-.1-14.33-.16-28.66.06-43,.06-3.79-1.07-5.06-4.76-4.63-2.3.27-4.7-.25-7,.09-4.1.61-4.56-1.4-4.5-4.81.06-2.83.86-3.6,3.68-3.65,4.07-.06,9.51,1.95,11.83-1,2-2.51.56-7.67.64-11.66a12.27,12.27,0,0,0,0-2.5c-1-5,1.27-6.14,5.92-5.88,3.34.18,4.79.78,4.44,4.42-.34,3.47.32,7.05-.16,10.48-.75,5.5,1.58,6.83,6.58,6.34,4.12-.41,8.33.12,12.48-.15,3.62-.23,3,2.07,3,4.18s.78,4.46-2.92,4.26c-4.48-.25-9,.2-13.48-.15-4.27-.33-6,.84-5.69,5.44.4,6.31.1,12.66.1,19Z"/><path class="cls-1" d="M914.33,532.8q0-13.74,0-27.48a22.07,22.07,0,0,0-.13-4c-1.52-8.17-1.55-8.08,6.57-7.62,2.07.12,3.13.56,2.89,2.82a15.66,15.66,0,0,0,0,3.49c.14,1.24-.66,2.87.87,3.6,2,.93,2.44-1,3.36-2a28.65,28.65,0,0,1,19.79-9.93c5.37-.5,6.38,1.57,6.08,6.33-.2,3.1-.68,4.39-4.13,4.15-19-1.32-24.09,11.15-24.86,25.27-.63,11.46-.45,23,0,34.47.21,5.19-2.75,4-5.59,4.22-3.22.24-5.15,0-5-4.31.38-9.64.12-19.32.12-29Z"/><path class="cls-1" d="M316.32,529.44c0-11,.07-22-.06-33,0-2,.25-3.3,2.46-2.63s5.85-2.24,6.87,2.18a26.27,26.27,0,0,1,.12,4c.1,1.4-.67,3.25,1.28,3.87s2.63-1.1,3.55-2.2a26.47,26.47,0,0,1,21.5-10c2.76,0,4,.74,3.66,3.61a19.84,19.84,0,0,0,0,4.49c.26,2.24-.54,2.62-2.67,2.37a27.15,27.15,0,0,0-13.16,1.49c-8.44,3.34-11,10.7-12.18,18.8-1.93,13-.82,26.19-.85,39.29,0,4.2-1.64,4.63-4.94,4.35-2.8-.24-5.83,1-5.62-4.17.44-10.81.13-21.65.13-32.48Z"/></g></g></svg>