<svg id="mito_logo_full" data-name="mito logo full" xmlns="http://www.w3.org/2000/svg" viewBox="0 0 202.12 118.93"><defs><style>.cls-1{fill:#fff;}</style></defs><title>terracotta</title><path class="cls-1" d="M3827.86,555h-6.32l-1.87,5.24h-2.28v-1a1.47,1.47,0,0,0,1.15-.45,5.46,5.46,0,0,0,.66-1.25l5.66-13.58h0.94l6.17,14.35a2.09,2.09,0,0,0,.48.79,1.9,1.9,0,0,0,.95.15v1h-3.49Zm-0.45-1.11-2.77-6.47-2.66,6.47h5.43Zm-25.05-8.37a1.12,1.12,0,0,1,.9.3,1.73,1.73,0,0,1,.24,1.06v11.18a1.11,1.11,0,0,1-.31.91,1.69,1.69,0,0,1-1,.24h-0.92v1h7.11v-1h-0.92a1.69,1.69,0,0,1-1-.24,1.1,1.1,0,0,1-.31-0.91V546.91a1.73,1.73,0,0,1,.24-1.06,1.13,1.13,0,0,1,.91-0.3h4.7V544h-14.35v1.57h4.75Zm-19.78,0a1.12,1.12,0,0,1,.9.3,1.73,1.73,0,0,1,.24,1.06v11.18a1.11,1.11,0,0,1-.31.91,1.69,1.69,0,0,1-1,.24h-0.92v1h7.11v-1h-0.92a1.69,1.69,0,0,1-1-.24,1.11,1.11,0,0,1-.31-0.91V546.91a1.71,1.71,0,0,1,.25-1.06,1.12,1.12,0,0,1,.9-0.3h4.71V544h-14.35v1.57h4.75Zm-18.65-.59q-4.92,0-4.92,7.17t5,7.15q4.94,0,4.94-7.15t-5-7.17m6,12.45a7.22,7.22,0,0,1-5.92,2.85,7.39,7.39,0,0,1-5.73-2.51,8,8,0,0,1-2.17-5.62,8.38,8.38,0,0,1,1.94-5.3,7.22,7.22,0,0,1,5.92-2.85,7.47,7.47,0,0,1,5.75,2.51,8.09,8.09,0,0,1,2.15,5.64,8.35,8.35,0,0,1-1.94,5.28m-22.42,1a5.29,5.29,0,0,1-3,1,4.89,4.89,0,0,1-2.44-.66,4.4,4.4,0,0,1-1.69-1.75,10.76,10.76,0,0,1-.87-4.8,10,10,0,0,1,1.17-5.21,4.14,4.14,0,0,1,3.77-2.11q3.81,0,5.26,5.53h0.91v-6.3h-1a2,2,0,0,1-.22,1,0.7,0.7,0,0,1-.56.49,0.45,0.45,0,0,1-.3-0.13,5.57,5.57,0,0,0-4-1.51,7.51,7.51,0,0,0-5.43,2.28,8.52,8.52,0,0,0-2.53,6.34,7.56,7.56,0,0,0,7.67,7.83,7.1,7.1,0,0,0,4.09-1.17ZM3724.6,555h-6.32l-1.87,5.24h-2.28v-1a1.47,1.47,0,0,0,1.15-.45,5.44,5.44,0,0,0,.66-1.25l5.66-13.58h0.94l6.17,14.35a2.13,2.13,0,0,0,.48.79,1.9,1.9,0,0,0,.95.15v1h-3.49Zm-0.45-1.11-2.77-6.47-2.66,6.47h5.43Zm-29.7-9.94,6,0a8.32,8.32,0,0,1,4,.89,3.38,3.38,0,0,1,2,3.13,3.32,3.32,0,0,1-1.57,2.89,7.48,7.48,0,0,1-4,1.13v0a3.83,3.83,0,0,1,3.68,3l0.56,2q0.51,1.94,1.17,2a1.55,1.55,0,0,0,.74-0.12,1,1,0,0,0,.55-0.39l0.26,0.19A2.09,2.09,0,0,1,3707,560a3,3,0,0,1-1.87.58q-2.53,0-2.87-4a6.24,6.24,0,0,0-1-3.3,3.53,3.53,0,0,0-2.92-1h-1.34v5.81a1.07,1.07,0,0,0,.31.88,1.69,1.69,0,0,0,1,.24h0.66v1h-6.62v-1h0.68a1.68,1.68,0,0,0,1-.24,1.07,1.07,0,0,0,.31-0.88V544Zm2.6,7.34,1.83,0a6.3,6.3,0,0,0,3.66-.79,2.86,2.86,0,0,0,1-2.49,2.91,2.91,0,0,0-.8-2.33q-0.8-.67-4.16-0.67h-1.53v6.3ZM3672.76,544l6,0a8.33,8.33,0,0,1,4,.89,3.38,3.38,0,0,1,2,3.13,3.32,3.32,0,0,1-1.58,2.89,7.47,7.47,0,0,1-4,1.13v0a3.83,3.83,0,0,1,3.68,3l0.55,2q0.51,1.94,1.17,2a1.55,1.55,0,0,0,.75-0.12,1,1,0,0,0,.55-0.39l0.26,0.19a2.08,2.08,0,0,1-.79,1.19,3,3,0,0,1-1.87.58q-2.53,0-2.87-4a6.24,6.24,0,0,0-1-3.3,3.53,3.53,0,0,0-2.92-1h-1.34v5.81a1.08,1.08,0,0,0,.31.88,1.69,1.69,0,0,0,1,.24h0.66v1h-6.62v-1h0.68a1.69,1.69,0,0,0,1-.24,1.08,1.08,0,0,0,.31-0.88V544Zm2.6,7.34,1.83,0a6.3,6.3,0,0,0,3.66-.79,2.87,2.87,0,0,0,1-2.49,2.9,2.9,0,0,0-.8-2.33q-0.8-.67-4.16-0.67h-1.53v6.3Zm-15.2,1v-1h-4.49V545q0.34,0,1.79,0h4.77a1.48,1.48,0,0,1,1.13.45,1.57,1.57,0,0,1,.43,1.13v0.6h1.08V544h-11.79v14.11a1.11,1.11,0,0,1-.31.91,1.69,1.69,0,0,1-1,.24H3651v1h13.81v-3.19h-1.08v0.6a1.52,1.52,0,0,1-.42,1.11,1.49,1.49,0,0,1-1.12.43l-4.79,0a5.44,5.44,0,0,1-1.17,0,0.76,0.76,0,0,1-.62-0.83V552.3h4.49ZM3636,545.55a1.13,1.13,0,0,1,.91.3,1.73,1.73,0,0,1,.24,1.06v11.18a1.11,1.11,0,0,1-.31.91,1.69,1.69,0,0,1-1,.24h-0.91v1H3642v-1h-0.91a1.69,1.69,0,0,1-1-.24,1.11,1.11,0,0,1-.31-0.91V546.91a1.73,1.73,0,0,1,.24-1.06,1.13,1.13,0,0,1,.91-0.3h4.7V544h-14.35v1.57H3636Z" transform="translate(-3631.27 -454.6)"/><path class="cls-1" d="M3827.28,571.37a1.89,1.89,0,0,0,.73,1.57,3.14,3.14,0,0,0,2,.57,2.87,2.87,0,0,0,1.92-.58,1.84,1.84,0,0,0,.68-1.46,1.57,1.57,0,0,0-.57-1.31,2.91,2.91,0,0,0-1.11-.47l-1.12-.26a3.75,3.75,0,0,1-.85-0.27,0.54,0.54,0,0,1-.31-0.51,0.66,0.66,0,0,1,.32-0.58,1.52,1.52,0,0,1,.85-0.21,1.79,1.79,0,0,1,.8.16,0.92,0.92,0,0,1,.52.82h1.29a1.91,1.91,0,0,0-.76-1.56,2.86,2.86,0,0,0-1.75-.54,2.71,2.71,0,0,0-1.86.57,1.84,1.84,0,0,0-.63,1.43,1.57,1.57,0,0,0,.65,1.39,4.34,4.34,0,0,0,1.41.49l0.69,0.15a3.09,3.09,0,0,1,.89.3,0.55,0.55,0,0,1,.28.49,0.75,0.75,0,0,1-.57.74,2.54,2.54,0,0,1-.79.1,1.43,1.43,0,0,1-1.14-.4,1.32,1.32,0,0,1-.24-0.66h-1.28Zm-18.64-4.43h-4.71v6.41h4.86V572.2h-3.55v-1.65h3.12v-1.11h-3.12v-1.36h3.4v-1.14Zm-29.21,3.26a3.58,3.58,0,0,0,.78,2.45,2.72,2.72,0,0,0,2.15.89,2.56,2.56,0,0,0,1.81-.66,2.89,2.89,0,0,0,.88-1.71h-1.33a2.06,2.06,0,0,1-.33.74,1.26,1.26,0,0,1-1.05.46,1.37,1.37,0,0,1-1.11-.54,2.54,2.54,0,0,1-.43-1.62,2.87,2.87,0,0,1,.41-1.67,1.31,1.31,0,0,1,1.13-.59,1.32,1.32,0,0,1,1.06.42,1.83,1.83,0,0,1,.33.7h1.34a2.31,2.31,0,0,0-.44-1.2,3,3,0,0,0-4.31-.27,3.55,3.55,0,0,0-.89,2.59m-20.82-3.26h-3.07v6.41h1.31v-2.52h1.31a1.07,1.07,0,0,1,.76.21,1.22,1.22,0,0,1,.21.82v0.6a3.13,3.13,0,0,0,.06.55c0,0.09,0,.2.09,0.34h1.48v-0.16a0.54,0.54,0,0,1-.25-0.36,3.11,3.11,0,0,1,0-.6V571.8a2.07,2.07,0,0,0-.19-1,1.18,1.18,0,0,0-.63-0.51,1.29,1.29,0,0,0,.76-0.62,1.93,1.93,0,0,0,.23-0.9,1.83,1.83,0,0,0-.12-0.68,2.06,2.06,0,0,0-.32-0.54,1.61,1.61,0,0,0-.6-0.45,2.83,2.83,0,0,0-1-.16m-0.28,1.11a1.33,1.33,0,0,1,.62.11,0.81,0.81,0,0,1,.37.78,0.72,0.72,0,0,1-.38.72,1.53,1.53,0,0,1-.65.1h-1.44v-1.72h1.48Zm-27,2.83a3.29,3.29,0,0,0,.32,1.59,3,3,0,0,0,4.51,0,3.31,3.31,0,0,0,.32-1.59v-3.94h-1.36v3.94a2.23,2.23,0,0,1-.16,1,1.31,1.31,0,0,1-2.11,0,2.23,2.23,0,0,1-.16-1v-3.94h-1.36v3.94Zm-18.78-.74a3.4,3.4,0,0,0-1-2.65,3.32,3.32,0,0,0-4.2,0,3.39,3.39,0,0,0-1,2.65,3.46,3.46,0,0,0,1,2.65,3.33,3.33,0,0,0,4.2,0,3.47,3.47,0,0,0,1-2.65m-3.07,2.26a1.55,1.55,0,0,1-1.27-.59,3.18,3.18,0,0,1,0-3.34,1.55,1.55,0,0,1,1.27-.59,1.53,1.53,0,0,1,1.26.59,3.22,3.22,0,0,1,0,3.34,1.53,1.53,0,0,1-1.26.59m-26.85-1a1.89,1.89,0,0,0,.73,1.57,3.14,3.14,0,0,0,2,.57,2.86,2.86,0,0,0,1.92-.58,1.84,1.84,0,0,0,.68-1.46,1.57,1.57,0,0,0-.57-1.31,2.91,2.91,0,0,0-1.11-.47l-1.13-.26a3.76,3.76,0,0,1-.85-0.27,0.55,0.55,0,0,1-.31-0.51,0.66,0.66,0,0,1,.32-0.58,1.51,1.51,0,0,1,.85-0.21,1.78,1.78,0,0,1,.8.16,0.92,0.92,0,0,1,.52.82h1.29a1.91,1.91,0,0,0-.76-1.56,2.86,2.86,0,0,0-1.75-.54,2.71,2.71,0,0,0-1.86.57,1.84,1.84,0,0,0-.63,1.43,1.56,1.56,0,0,0,.65,1.39,4.32,4.32,0,0,0,1.41.49l0.69,0.15a3.11,3.11,0,0,1,.89.3,0.55,0.55,0,0,1,.28.49,0.75,0.75,0,0,1-.57.74,2.52,2.52,0,0,1-.79.1,1.43,1.43,0,0,1-1.14-.4,1.32,1.32,0,0,1-.24-0.66h-1.28ZM3664,566.94h-4.7v6.41h4.86V572.2h-3.55v-1.65h3.12v-1.11h-3.12v-1.36h3.4v-1.14Zm-25.84,0h-3.07v6.41h1.31v-2.52h1.31a1.07,1.07,0,0,1,.76.21,1.2,1.2,0,0,1,.21.82v0.6a3.29,3.29,0,0,0,.06.55c0,0.09,0,.2.09,0.34h1.48v-0.16a0.53,0.53,0,0,1-.25-0.36,3.33,3.33,0,0,1,0-.6V571.8a2.1,2.1,0,0,0-.18-1,1.2,1.2,0,0,0-.63-0.51,1.29,1.29,0,0,0,.76-0.62,1.92,1.92,0,0,0,.23-0.9,1.78,1.78,0,0,0-.12-0.68,2,2,0,0,0-.32-0.54,1.59,1.59,0,0,0-.6-0.45,2.82,2.82,0,0,0-1-.16m-0.28,1.11a1.33,1.33,0,0,1,.62.11,0.81,0.81,0,0,1,.37.78,0.73,0.73,0,0,1-.38.72,1.55,1.55,0,0,1-.64.1h-1.44v-1.72h1.48Z" transform="translate(-3631.27 -454.6)"/><path class="cls-1" d="M3676.54,462.94c6.76,10.37,17.15,22,33.2,33.13a60.24,60.24,0,0,0,9.47-8.17,106.86,106.86,0,0,1-23.58-30,137,137,0,0,0-19.09,5" transform="translate(-3631.27 -454.6)"/><path class="cls-1" d="M3699.42,457.24a102.89,102.89,0,0,0,22.14,27.94,56.1,56.1,0,0,0,8.4-9.49s-6.52-7.28-12.21-20.58c-6.38.44-12.52,1.16-18.33,2.13" transform="translate(-3631.27 -454.6)"/><path class="cls-1" d="M3788,462.88c-6.76,10.39-17.16,22-33.24,33.19a52.28,52.28,0,0,1-9.47-8.17,106.85,106.85,0,0,0,23.6-30,137.34,137.34,0,0,1,19.11,5" transform="translate(-3631.27 -454.6)"/><path class="cls-1" d="M3765.06,457.21a103,103,0,0,1-22.16,28,56,56,0,0,1-8.4-9.49s6.53-7.28,12.21-20.6c6.38,0.43,12.52,1.15,18.34,2.11" transform="translate(-3631.27 -454.6)"/><path class="cls-1" d="M3742.64,454.86a101.51,101.51,0,0,1-10.41,17.66,101.58,101.58,0,0,1-10.4-17.65c3.45-.17,6.95-0.27,10.51-0.27s6.92,0.09,10.3.26" transform="translate(-3631.27 -454.6)"/><path class="cls-1" d="M3716.8,504.86l-7.14-4.35s-18,15-52.43,28l1.63,0.8a260.65,260.65,0,0,0,57.94-24.49" transform="translate(-3631.27 -454.6)"/><path class="cls-1" d="M3728.29,511.35l-8.09-4.54s-14,10.54-56.37,25l1,0.49a331.12,331.12,0,0,0,63.46-20.92" transform="translate(-3631.27 -454.6)"/><path class="cls-1" d="M3747.87,504.86l7.14-4.35s18,15,52.43,28l-1.63.8a260.62,260.62,0,0,1-57.94-24.49" transform="translate(-3631.27 -454.6)"/><path class="cls-1" d="M3736.38,511.35l8.09-4.54s14,10.54,56.37,25l-1,.49a331.15,331.15,0,0,1-63.46-20.92" transform="translate(-3631.27 -454.6)"/><path class="cls-1" d="M3721.67,490.39s5.64,5,7.6,6.18c-3.18,3.32-9.07,6.08-9.07,6.08a44.72,44.72,0,0,1-7.29-4.53,113.83,113.83,0,0,0,8.76-7.72" transform="translate(-3631.27 -454.6)"/><path class="cls-1" d="M3742.79,490.39s-5.64,5-7.6,6.18c3.18,3.32,9.07,6.08,9.07,6.08a44.71,44.71,0,0,0,7.29-4.53,113.62,113.62,0,0,1-8.76-7.72" transform="translate(-3631.27 -454.6)"/><path class="cls-1" d="M3724.31,487.74a104.62,104.62,0,0,0,7.92-9.09,104.64,104.64,0,0,0,7.92,9.09,75.39,75.39,0,0,1-7.92,6.48,75.2,75.2,0,0,1-7.92-6.48" transform="translate(-3631.27 -454.6)"/><path class="cls-1" d="M3723.88,504.79a84.66,84.66,0,0,0,8.35-5.9,84.62,84.62,0,0,0,8.35,5.9l-8.35,4.33Z" transform="translate(-3631.27 -454.6)"/></svg>